<svg width="94" height="107" viewBox="0 0 94 107" fill="none" xmlns="http://www.w3.org/2000/svg">
<path d="M74.9106 37.7756C74.844 42.6521 70.6133 46.9622 65.3522 47.5549C63.5562 47.7774 61.7319 47.6847 59.9719 47.2816C59.5243 47.2179 59.0669 47.2992 58.675 47.5121C56.0545 48.9251 53.0692 49.6304 50.0489 49.5502C45.4922 49.3889 42.2676 47.3573 40.5045 43.383C40.4478 43.165 40.3072 42.9744 40.1098 42.848C39.9124 42.7215 39.6722 42.6682 39.4354 42.6982C34.9419 42.6982 31.2264 39.5801 30.918 35.5301C30.7287 33.0771 31.8048 30.9796 33.3085 29.0698C35.9268 25.7442 39.46 23.8773 43.8238 23.3538C43.9959 23.3383 44.163 23.2907 44.3153 23.2138C44.4675 23.1369 44.6019 23.0322 44.7106 22.906C47.7601 17.6377 54.1744 16.8837 59.0465 19.3631C62.6637 21.2037 65.4644 23.795 66.7963 27.5947C66.8518 27.7118 66.9329 27.8166 67.0344 27.9023C67.1358 27.988 67.2553 28.0526 67.3851 28.0919C71.9173 29.162 74.9912 33.4655 74.9106 37.7756ZM43.3646 25.8068C43.2867 25.7971 43.2077 25.7971 43.1298 25.8068C39.113 26.1855 34.4547 30.0379 33.5329 33.7454C32.6671 37.2225 35.9128 40.7852 39.5195 40.3143C39.9682 35.0823 40.7183 33.7487 44.0096 32.1452C43.7818 30.0182 43.5714 27.9471 43.3541 25.8068H43.3646ZM60.799 30.9269C61.1495 31.8522 61.5001 32.6885 61.749 33.5611C62.422 36.0635 61.1495 38.0259 58.5137 38.7141C56.5088 39.2376 54.6581 38.826 52.8389 38.0325C51.6542 37.5155 51.6577 37.509 50.7359 38.5527C52.8012 41.113 55.5428 43.122 58.6889 44.3807C58.8464 44.4184 59.0109 44.4219 59.17 44.3911C59.329 44.3603 59.4786 44.2959 59.6073 44.2029C60.7009 43.3007 61.8856 42.4545 62.7619 41.3943C65.4609 38.1938 66.0252 34.5291 65.0192 30.6141C64.9701 30.4132 64.6687 30.1235 64.5004 30.1235C63.2154 30.1324 61.9482 30.4067 60.7886 30.9269H60.799ZM64.2305 27.5618C63.9916 27.0707 63.7236 26.5925 63.4279 26.1295C62.3421 24.5632 60.9378 23.2137 59.2954 22.1585C57.6796 21.0571 55.7552 20.4251 53.7608 20.341C51.0969 20.2784 48.9553 21.1872 47.3885 23.2846C47.477 23.3465 47.5736 23.3975 47.6759 23.4361C51.9627 24.2033 55.7622 25.8595 58.9098 28.7538C59.0213 28.817 59.1458 28.8573 59.2751 28.8721C59.4044 28.8868 59.5355 28.8757 59.6599 28.8394C61.1285 28.4475 62.5866 28.0195 64.22 27.5618H64.2305ZM62.2572 45.2039C66.7402 45.8624 70.722 43.7848 72.2012 39.5273C73.3719 36.1557 70.9253 31.5295 67.4622 30.6371C68.6575 36.4059 67.1819 41.3449 62.2362 45.2039H62.2572ZM56.8628 30.1894C55.0331 28.1545 49.6037 25.7212 46.7716 25.6587C46.3264 25.6587 46.1687 25.7838 46.0881 26.1888C45.7025 28.1347 46.0882 29.9918 46.7682 31.8225C46.8319 31.9975 46.955 32.1478 47.1187 32.2505C48.4471 32.9782 49.7755 33.7027 51.132 34.3842C51.26 34.4355 51.399 34.4577 51.5378 34.4491C51.6766 34.4405 51.8114 34.4014 51.9312 34.3348C53.5821 32.9749 55.2259 31.5756 56.8523 30.1894H56.8628ZM48.4505 40.1398L42.8424 42.4743C44.97 48.2529 52.2431 47.9763 56.2669 46.0073C54.9455 45.1183 53.561 44.2655 52.2712 43.2941C50.9813 42.3228 49.6984 41.2034 48.4261 40.1398H48.4505ZM47.2834 38.1148C46.5543 36.8175 45.955 35.7013 45.2785 34.6246C45.1909 34.4863 44.651 34.4533 44.4162 34.5554C42.7512 35.2831 41.521 38.3288 42.2711 40.1727L47.2834 38.1148ZM58.7311 32.1518L58.3805 32.0497L53.8239 35.8626C55.5344 36.6825 56.9154 36.8241 58.2088 36.3795C59.1622 36.0503 59.5723 35.5893 59.4356 34.6476C59.2493 33.8019 59.0058 32.9683 58.7065 32.1518H58.7311Z" fill="#758963"/>
<path d="M46.2213 106.487C42.4078 106.487 39.7298 105.743 38.0544 104.225C35.8602 102.249 35.8567 99.4406 35.8532 96.981C35.8532 95.7561 35.8532 94.5971 35.5728 93.7377C34.5493 90.5669 33.2665 88.6736 20.3046 89.6581C9.54038 90.4747 8.64302 80.4387 8.15931 75.0486C8.02962 73.6064 7.88238 71.9666 7.60197 71.4892C6.90095 70.3269 5.47788 69.6386 4.09686 68.9702C2.6142 68.259 1.08249 67.5248 0.43755 66.1518C-0.85233 63.3892 0.938811 61.575 2.83508 59.6521C5.56906 56.8763 9.31602 53.0667 8.6185 43.6431C7.50738 28.589 12.7651 16.6959 24.2443 8.29957C32.1729 2.49789 43.249 -0.498432 54.6336 0.0679061C66.3967 0.667171 76.9716 5.13861 83.6489 12.3331C98.3703 28.2169 95.2788 52.8724 87.3713 64.5614C81.2619 73.5965 82.0015 82.5262 82.5938 89.7042C82.7621 91.7325 82.9198 93.6554 82.9163 95.4104C82.8952 102.513 76.2741 105.219 72.776 105.657C72.7364 105.66 72.6965 105.66 72.6568 105.657L47.2237 106.451C46.8732 106.48 46.5438 106.487 46.2213 106.487ZM26.2422 87.0832C33.652 87.0832 36.5192 88.7526 37.9107 93.066C38.2928 94.2514 38.2927 95.575 38.2962 96.9744C38.2962 99.1739 38.2963 101.255 39.7509 102.572C41.0443 103.747 43.5224 104.284 47.1116 104.175L72.4745 103.382C73.2281 103.273 80.4136 102.065 80.4311 95.4202C80.4311 93.7509 80.2804 91.8806 80.1157 89.8984C79.4953 82.3813 78.7136 73.0236 85.2682 63.3431C89.3341 57.3307 91.6615 48.4866 91.4933 39.6853C91.3005 29.59 87.848 20.4199 81.7666 13.8642C75.524 7.13731 65.573 2.95229 54.4689 2.38596C43.6661 1.83937 33.1893 4.65789 25.727 10.1204C14.9312 18.0228 9.99248 29.2443 11.044 43.485C11.8151 53.9162 7.47936 58.3021 4.60868 61.2227C2.64932 63.1983 2.06746 63.9588 2.65982 65.2265C2.95074 65.8488 4.03731 66.369 5.18699 66.9189C6.83089 67.7059 8.6921 68.5982 9.74363 70.3762C10.2799 71.2883 10.4131 72.7865 10.5989 74.8609C11.2193 81.7755 12.418 87.9525 20.1048 87.373C22.4427 87.1787 24.4791 87.0832 26.2527 87.0832H26.2422Z" fill="#758963"/>
</svg>
