<svg width="75" height="106" viewBox="0 0 75 106" fill="none" xmlns="http://www.w3.org/2000/svg">
<g clip-path="url(#clip0_2_486)">
<path d="M54.5996 22.0158C54.5996 24.3032 54.5996 26.3965 54.6212 28.4897C54.7004 28.8314 54.8938 29.136 55.1696 29.3529C61.3868 35.1881 64.7329 42.4 65.0783 50.8765C65.3201 56.729 65.1388 62.5987 65.1431 68.4598V70.1128C65.7087 70.1516 66.1016 70.1905 66.4945 70.2034C71.5158 70.389 74.4171 73.6777 74.7323 78.5979C75.0864 84.1785 74.9655 89.7936 75 95.3914C75.0069 96.6872 74.8898 97.9807 74.6503 99.2542C73.7868 103.726 66.3131 107.934 61.7883 105.063C60.5276 104.265 59.5 104.477 58.2825 104.891C57.5343 105.171 56.7452 105.325 55.9467 105.348C40.4813 105.348 25.0202 105.348 9.55474 105.279C8.03458 105.234 6.5352 104.914 5.12926 104.334C2.02927 103.13 0.65627 100.545 0.470616 97.3897C-0.436067 81.986 0.211566 66.5781 0.418808 51.1701C0.513794 44.2257 2.45237 38.1186 7.21461 33.0431C8.66701 31.5822 10.21 30.2142 11.8344 28.9472C12.5857 28.3214 13.0001 27.7042 12.849 26.6684C12.7344 25.5992 12.6911 24.5236 12.7195 23.4487C12.7195 22.5855 12.3741 22.2402 11.4933 22.2963C10.4657 22.3567 9.42951 22.3481 8.40194 22.2963C6.29066 22.2315 4.85722 20.9367 4.88313 18.8435C4.94789 13.8283 5.0472 8.80894 5.31488 3.79811C5.44873 1.04021 6.88647 -0.0647063 9.63243 -0.0129147C25.3166 0.274816 41.0037 0.562547 56.6936 0.850277C57.4093 0.854091 58.1227 0.932214 58.8222 1.08336C60.3765 1.45453 61.1839 2.32629 61.1666 3.92751C61.1148 9.0376 61.0155 14.1434 60.8342 19.2448C60.7694 21.0705 59.6814 21.951 57.8119 21.9898C56.7498 22.0373 55.6833 22.0158 54.5996 22.0158ZM5.23288 51.265V83.1599H56.2057C56.2057 82.2968 56.2057 81.4854 56.2057 80.6912C56.2057 77.5881 56.8404 74.7353 59.4439 72.6506C59.7718 72.2995 59.9526 71.8362 59.9491 71.3559C60.1174 66.1767 60.2902 60.9716 60.3506 55.7752C60.3506 54.1438 60.0527 52.5037 59.88 50.7471L5.23288 51.265ZM6.14387 46.0513L58.9344 45.5938C58.6581 41.7094 54.8716 35.0327 51.4176 32.387C50.7516 31.9042 49.952 31.6403 49.1293 31.6317C39.0911 31.7828 29.057 32.141 19.0188 32.1324C16.0656 32.1324 13.9198 32.9956 11.9596 35.0586C9.04525 38.1143 6.93398 41.5411 6.14387 46.0513ZM57.3197 100.182C57.0615 99.2994 56.8667 98.3994 56.7368 97.4889C56.5771 95.0331 56.4346 92.5731 56.4519 90.113C56.4519 88.7664 56.0719 88.3866 54.7032 88.3866C38.7542 88.4427 22.8096 88.4341 6.8606 88.447C6.38135 88.447 5.90208 88.4902 5.5394 88.5075C5.5394 90.8769 5.47032 93.1082 5.5394 95.3353C5.72506 100.083 5.75963 100.083 10.5866 100.083C25.5944 100.109 40.6007 100.14 55.6056 100.178L57.3197 100.182ZM17.3393 22.2272C17.3997 23.453 17.5206 24.4326 17.4817 25.4081C17.4386 26.6381 17.8185 27.1086 19.1656 27.0741C28.7851 26.8108 38.4089 26.6425 48.0283 26.431C48.3845 26.4566 48.7425 26.429 49.0904 26.349C49.3279 26.267 49.6517 25.9778 49.6604 25.7706C49.7165 24.5881 49.6863 23.4012 49.6863 22.2272H17.3393ZM65.4151 85.292C66.6672 85.21 67.9235 85.1885 69.1627 85.0158C69.4951 84.9727 70.0262 84.4634 70.0262 84.1958C69.9563 82.0666 69.7356 79.945 69.3656 77.847C68.9339 75.7494 67.9322 75.1453 65.9677 75.1194C63.9169 75.0978 61.7538 76.194 61.512 77.847C61.1709 80.156 61.2616 82.5341 61.2486 84.882C61.2486 85.0762 61.866 85.4388 62.1985 85.4431C63.2692 85.4733 64.3443 85.3567 65.4151 85.292ZM61.4386 90.7734C61.6804 93.4838 61.8142 95.987 62.164 98.4557C62.2959 99.2456 62.7302 99.9531 63.3749 100.428C64.0196 100.904 64.8241 101.11 65.618 101.002C68.2085 100.653 69.8449 98.8139 69.8794 96.1941C69.8794 95.6115 69.9183 95.0289 69.9226 94.4462C69.9226 93.0781 69.9226 91.7099 69.9226 90.2295L61.4386 90.7734ZM30.7841 5.64104C30.9309 9.24918 31.0604 12.758 31.2461 16.2669C31.2966 16.4181 31.385 16.5538 31.5029 16.6611C31.6208 16.7684 31.7643 16.8436 31.9196 16.8797C33.6898 16.9358 35.4643 16.91 36.9711 16.91C36.9711 13.2759 36.9711 9.84902 36.9409 6.42647C36.9019 6.25364 36.8191 6.09374 36.7004 5.9622C36.5817 5.83067 36.431 5.73194 36.263 5.67549C34.5188 5.59349 32.7874 5.64104 30.7711 5.64104H30.7841ZM10.3923 17.0654C11.9941 17.0654 13.6435 17.1042 15.2841 17.0265C15.5432 17.0265 15.9793 16.4784 15.9922 16.1633C16.1001 12.853 16.1649 9.5383 16.1649 6.23659C16.1198 6.03903 16.0252 5.8562 15.89 5.70521C15.7548 5.55421 15.5835 5.44001 15.3921 5.3734C14.0076 5.26263 12.6175 5.23816 11.2299 5.30006C10.9407 5.30006 10.4312 5.7748 10.4269 6.03807C10.3621 9.63758 10.3794 13.2587 10.3794 17.0654H10.3923ZM26.1384 16.9316C26.1384 13.2587 26.1384 9.77573 26.1125 6.29275C26.0786 6.12311 26.0022 5.9648 25.8904 5.8327C25.7786 5.70061 25.6352 5.59906 25.4735 5.53746C24.0142 5.4684 22.5505 5.5029 21.0567 5.5029V16.9316H26.1384ZM50.6405 6.04239C50.947 9.63327 51.2535 13.1767 51.5644 16.8323C52.6913 16.8323 53.667 16.7934 54.6385 16.8323C55.4502 16.8755 55.7395 16.569 55.7395 15.7533C55.7395 13.3407 55.8387 10.9237 55.8819 8.51111C55.8819 7.7256 55.8819 6.9401 55.8819 6.03375L50.6405 6.04239ZM46.474 16.8797C46.3013 13.3536 46.1545 10.0519 45.943 6.75016C45.943 6.4351 45.5112 5.90855 45.2565 5.88697C44.1166 5.79202 42.9639 5.84387 41.647 5.84387C41.9104 9.58581 42.1608 13.181 42.4199 16.8021C43.0157 16.8366 43.4129 16.8711 43.8058 16.8754C44.6347 16.8883 45.481 16.8797 46.4611 16.8797H46.474Z" fill="#758963"/>
<path d="M33.1846 81.1228C29.3723 81.1171 25.7183 79.5979 23.0261 76.8995C20.334 74.2011 18.8242 70.5443 18.8288 66.7333C18.79 58.8955 25.3051 52.4302 33.2753 52.4043C41.0771 52.3828 47.6009 58.9905 47.5836 66.8931C47.5577 74.7179 41.0901 81.1228 33.1846 81.1228ZM33.1501 75.9047C34.3613 75.9104 35.5617 75.6764 36.682 75.2162C37.8024 74.7561 38.8205 74.0788 39.6778 73.2235C40.5351 72.3681 41.2145 71.3516 41.677 70.2326C42.1395 69.1135 42.3758 67.914 42.3724 66.7032C42.3407 64.3043 41.3668 62.0139 39.6608 60.3264C37.9549 58.6389 35.6537 57.6893 33.2537 57.6828C32.0419 57.6623 30.8384 57.886 29.715 58.3404C28.5915 58.7948 27.571 59.4707 26.7144 60.3278C25.8579 61.1848 25.1827 62.2055 24.7291 63.329C24.2756 64.4525 24.053 65.6558 24.0746 66.8671C24.0792 69.2707 25.0355 71.5747 26.7345 73.2755C28.4335 74.9764 30.737 75.9356 33.1415 75.9436L33.1501 75.9047Z" fill="#758963"/>
<path d="M33.4739 74.446C31.8243 74.3749 30.2488 73.7413 29.0095 72.6506C27.8395 71.5673 27.7143 70.061 28.5778 69.0511C29.4413 68.0411 30.5898 68.0713 31.9325 69.0295C33.0378 69.815 34.0525 69.9617 35.2009 68.9992C36.3494 68.0368 37.5971 68.1361 38.4693 69.0295C39.3414 69.9229 39.3846 71.2868 38.4175 72.4262C37.2647 73.7857 35.7752 74.5021 33.4739 74.446Z" fill="#758963"/>
<path d="M36.6861 67.1089C36.1038 67.1159 35.5422 66.8933 35.1228 66.4894C34.7034 66.0855 34.4601 65.5328 34.4454 64.9509C34.4394 64.367 34.6616 63.8038 35.0649 63.3814C35.4681 62.959 36.0204 62.7107 36.6041 62.6893C37.1898 62.6964 37.7507 62.9268 38.172 63.3336C38.5934 63.7403 38.8434 64.2927 38.8708 64.8776C38.8655 65.4596 38.6351 66.0169 38.2279 66.4328C37.8206 66.8488 37.2681 67.0911 36.6861 67.1089Z" fill="#758963"/>
<path d="M32.3211 65.1062C32.3181 65.3975 32.256 65.6853 32.1388 65.9519C32.0215 66.2186 31.8515 66.4587 31.6389 66.6579C31.4263 66.8571 31.1755 67.0113 30.9017 67.111C30.6279 67.2108 30.3368 67.2541 30.0458 67.2384C29.4815 67.226 28.9446 66.9931 28.5499 66.5897C28.1553 66.1864 27.9344 65.6446 27.9345 65.0804C27.9333 64.7886 27.9901 64.4995 28.1016 64.2298C28.213 63.9601 28.3769 63.7151 28.5837 63.5091C28.7905 63.3032 29.0362 63.1404 29.3064 63.03C29.5767 62.9197 29.8661 62.864 30.158 62.8663C30.4489 62.8655 30.737 62.9235 31.0049 63.0368C31.2728 63.15 31.5151 63.3163 31.7171 63.5255C31.9191 63.7347 32.0768 63.9826 32.1806 64.2542C32.2844 64.5259 32.3322 64.8157 32.3211 65.1062Z" fill="#758963"/>
</g>
<defs>
<clipPath id="clip0_2_486">
<rect width="75" height="106" fill="white"/>
</clipPath>
</defs>
</svg>
