<svg width="114" height="95" viewBox="0 0 114 95" fill="none" xmlns="http://www.w3.org/2000/svg">
<g clip-path="url(#clip0_2_333)">
<path d="M49.4271 42.0471C49.7871 42.1976 50.1919 42.2035 50.5561 42.0634C50.9203 41.9233 51.2155 41.6482 51.3792 41.2962C51.5419 41.0486 51.6501 40.7699 51.6968 40.478C51.761 39.1675 51.943 37.8286 51.7717 36.5428C51.5148 34.5841 50.5406 33.0576 48.4243 32.5263C48.3038 32.4648 48.1984 32.3776 48.1158 32.2711C48.0331 32.1645 47.9752 32.0412 47.9461 31.9099C46.9944 27.3808 44.2679 24.5095 39.7665 23.2958C37.8385 22.7728 35.8006 22.8022 33.8888 23.3808C33.4898 23.4727 33.1438 23.7178 32.9265 24.0623C32.7091 24.4068 32.6381 24.8227 32.7289 25.2191C32.8105 25.5818 33.0161 25.9052 33.3108 26.1345C33.6056 26.3637 33.9712 26.4846 34.3456 26.4765C34.6397 26.449 34.931 26.3968 35.2164 26.3207C38.2105 25.7079 40.8407 26.4127 42.9177 28.6477C44.9947 30.8827 45.3551 33.5534 44.4273 36.3976C43.685 38.6716 42.0897 40.23 40.0413 41.4095C39.0956 41.9515 38.8636 42.7732 39.3275 43.5595C39.4261 43.7513 39.5653 43.9196 39.7355 44.0531C39.9057 44.1865 40.1029 44.2819 40.3137 44.3327C40.5245 44.3835 40.7439 44.3885 40.9568 44.3473C41.1697 44.3062 41.3711 44.2199 41.5473 44.0944C42.8278 43.3061 44.0236 42.3899 45.1161 41.36C46.7113 39.7909 47.5321 37.7577 47.9996 35.5794L48.278 35.5086C48.4493 35.8876 48.7597 36.2666 48.7597 36.6456C48.7718 37.8393 48.7122 39.0327 48.5813 40.2195C48.46 41.0341 48.7348 41.7637 49.4271 42.0471Z" fill="#758963"/>
<path d="M40.7015 87.6751C39.8415 87.6468 38.9172 88.6528 38.9172 89.641C38.9123 90.0113 39.0537 90.3689 39.3112 90.637C39.5687 90.9051 39.9217 91.0625 40.2947 91.0754C41.1369 91.0754 42.0327 90.0128 42.0363 89.0423C42.042 88.8648 42.0117 88.688 41.9472 88.5223C41.8827 88.3567 41.7853 88.2056 41.6608 88.078C41.5363 87.9505 41.3872 87.8491 41.2224 87.7799C41.0576 87.7107 40.8805 87.6751 40.7015 87.6751Z" fill="#758963"/>
<path d="M78.7836 26.3207C79.069 26.3968 79.3602 26.449 79.6544 26.4765C80.0287 26.4846 80.3944 26.3637 80.6891 26.1345C80.9838 25.9052 81.1895 25.5818 81.271 25.2191C81.3619 24.8227 81.2908 24.4068 81.0735 24.0623C80.8561 23.7178 80.5101 23.4727 80.1112 23.3808C78.1993 22.8022 76.1615 22.7728 74.2335 23.2958C69.744 24.5024 67.0175 27.3737 66.0539 31.9099C66.0239 32.0413 65.9652 32.1647 65.882 32.2712C65.7987 32.3776 65.693 32.4648 65.5721 32.5263C63.4594 33.0576 62.4852 34.5841 62.2246 36.5428C62.0569 37.8286 62.2246 39.1675 62.3031 40.478C62.3498 40.7699 62.4581 41.0486 62.6208 41.2962C62.7845 41.6482 63.0796 41.9233 63.4439 42.0634C63.8081 42.2035 64.2129 42.1976 64.5729 42.0471C65.2652 41.7637 65.54 41.0341 65.4472 40.2195C65.3169 39.0327 65.2562 37.8393 65.2652 36.6456C65.2652 36.2666 65.5793 35.8876 65.747 35.5086L66.0289 35.5794C66.4929 37.7577 67.3172 39.7909 68.9089 41.36C70.0022 42.3889 71.1979 43.3051 72.4776 44.0944C72.6538 44.2199 72.8553 44.3062 73.0682 44.3473C73.2811 44.3885 73.5005 44.3835 73.7112 44.3327C73.922 44.2819 74.1193 44.1865 74.2895 44.0531C74.4597 43.9196 74.5988 43.7513 74.6974 43.5595C75.1435 42.7732 74.9115 41.9515 73.9658 41.4095C71.9174 40.23 70.3221 38.6716 69.5798 36.3976C68.6519 33.564 69.0088 30.8862 71.0894 28.6477C73.17 26.4091 75.7895 25.7079 78.7836 26.3207Z" fill="#758963"/>
<path d="M73.2985 87.6751C73.1201 87.676 72.9438 87.7123 72.7798 87.7819C72.6158 87.8516 72.4676 87.9531 72.3439 88.0805C72.2201 88.208 72.1234 88.3588 72.0593 88.524C71.9952 88.6892 71.9652 88.8654 71.9709 89.0423C71.9709 90.0164 72.8702 91.0648 73.7125 91.0754C74.0854 91.0625 74.4385 90.9051 74.6959 90.637C74.9534 90.3689 75.0949 90.0113 75.09 89.641C75.0757 88.6528 74.1585 87.6468 73.2985 87.6751Z" fill="#758963"/>
<path d="M68.0559 90.36C64.6371 91.4013 61.4859 90.7744 58.5095 88.9432C58.2816 88.8045 58.0677 88.6444 57.8708 88.4651C57.6651 88.275 57.4221 88.1292 57.157 88.0365V87.962C57.1027 87.9701 57.049 87.9819 56.9964 87.9975C56.9437 87.9823 56.8901 87.9705 56.8358 87.962V88.0365C56.5708 88.1292 56.3278 88.275 56.1221 88.4651C55.9251 88.6444 55.7112 88.8045 55.4833 88.9432C52.5069 90.7744 49.3557 91.4013 45.9369 90.36C44.8662 90.0341 43.9562 90.5442 43.7956 91.4687C43.635 92.3931 44.3381 93.183 45.4016 93.3034C45.7613 93.3386 46.1188 93.3942 46.4722 93.4699C50.2408 94.3589 53.7417 93.6328 57.0107 91.6989C60.2797 93.6363 63.7913 94.3624 67.5492 93.4699C67.8956 93.3951 68.2458 93.3396 68.5984 93.3034C69.669 93.183 70.3828 92.3896 70.2079 91.4687C70.033 90.5477 69.1301 90.0341 68.0559 90.36Z" fill="#758963"/>
<path d="M96.9057 30.7977C96.9057 30.5993 96.9271 30.3974 96.945 30.0609C98.2868 30.1318 99.5823 30.1814 100.871 30.2947C101.038 30.2947 101.227 30.6206 101.32 30.8331C101.807 32.2324 102.762 33.4238 104.026 34.2092C105.29 34.9945 106.787 35.3264 108.268 35.1493C109.748 34.9721 111.123 34.2968 112.163 33.2358C113.203 32.1749 113.845 30.7923 113.983 29.3184C114.12 27.8446 113.745 26.3683 112.919 25.1357C112.094 23.9032 110.867 22.9887 109.444 22.5445C108.022 22.1004 106.489 22.1535 105.101 22.6949C103.713 23.2363 102.554 24.2335 101.816 25.5201C101.739 25.7311 101.589 25.9085 101.394 26.0217C101.198 26.1349 100.969 26.1767 100.746 26.14C99.5323 26.0514 98.3118 26.0125 97.0948 26.0443C96.4596 26.062 96.2241 25.8389 96.0635 25.2651C95.132 21.9392 93.7473 18.8044 91.4812 16.1621C90.1429 14.6036 88.5584 13.2506 87.0096 11.7311C87.7233 10.7995 88.5192 9.744 89.365 8.72745C89.5855 8.54201 89.8684 8.44589 90.1572 8.45825C93.6617 8.40512 97.1698 8.36262 100.674 8.36616C100.844 8.39034 101.007 8.45271 101.149 8.54845C101.291 8.64419 101.41 8.7708 101.495 8.91873C102.698 11.3415 105.303 12.9212 107.744 12.6485C110.838 12.2943 113.147 10.3497 113.754 7.56212C114.66 3.38964 110.845 -0.396754 106.545 0.393112C105.557 0.543409 104.617 0.915841 103.796 1.48183C102.975 2.04781 102.296 2.79246 101.809 3.65891C101.712 3.86389 101.551 4.03253 101.35 4.14023C101.149 4.24793 100.918 4.28901 100.692 4.25749C97.2126 4.25749 93.7367 4.37431 90.2607 4.28222C88.5013 4.23618 87.3165 4.95524 86.3351 6.26578C85.4822 7.42401 84.6363 8.58933 83.9404 9.53858C81.6136 8.65308 79.4866 7.64007 77.249 7.05918C75.5931 6.6306 73.7874 6.78292 72.0565 6.63061C71.6755 6.61481 71.3115 6.46981 71.0252 6.21977C69.2643 4.25327 67.1038 2.6792 64.6858 1.60134C62.2677 0.523469 59.6471 -0.0338135 56.9964 -0.0338135C54.3457 -0.0338135 51.7251 0.523469 49.307 1.60134C46.889 2.6792 44.7285 4.25327 42.9677 6.21977C42.6814 6.46981 42.3173 6.61481 41.9363 6.63061C40.2019 6.78292 38.3997 6.6306 36.7438 7.05918C34.5062 7.64007 32.3792 8.65308 30.0524 9.53858C29.3565 8.58933 28.5107 7.41338 27.6542 6.26578C26.6906 4.95524 25.513 4.23618 23.7464 4.28222C20.2705 4.37431 16.791 4.25395 13.315 4.25749C13.0883 4.28981 12.857 4.2491 12.6553 4.14135C12.4537 4.03361 12.2921 3.86454 12.1944 3.65891C11.7091 2.79222 11.0302 2.04729 10.21 1.48122C9.38973 0.915155 8.44983 0.542898 7.46224 0.393112C3.17975 -0.396754 -0.653112 3.38964 0.253349 7.56212C0.860036 10.3497 3.16905 12.3014 6.26315 12.6485C8.70417 12.9212 11.3094 11.3415 12.5085 8.91873C12.5948 8.77147 12.7134 8.64539 12.8555 8.54974C12.9976 8.4541 13.1595 8.39133 13.3292 8.36616C16.8373 8.36616 20.3454 8.40512 23.8499 8.45825C24.1387 8.44589 24.4216 8.54201 24.6422 8.72745C25.4844 9.744 26.2767 10.7995 26.994 11.7311C25.4487 13.2506 23.8642 14.6036 22.5223 16.1621C20.2562 18.8044 18.8751 21.9392 17.9436 25.2651C17.7831 25.8389 17.5439 26.062 16.9123 26.0443C15.6953 26.0125 14.4748 26.0443 13.2615 26.14C13.0383 26.1753 12.8097 26.1329 12.6145 26.0199C12.4193 25.9069 12.2696 25.7303 12.1908 25.5201C11.4107 24.1502 10.1542 23.1095 8.65654 22.5931C7.15892 22.0766 5.52296 22.1197 4.05507 22.7144C2.58719 23.309 1.3881 24.4144 0.682365 25.8235C-0.0233668 27.2326 -0.187309 28.8487 0.221242 30.3691C0.571883 31.7166 1.35157 32.9157 2.44426 33.788C3.53695 34.6602 4.88423 35.1589 6.28554 35.2099C7.68684 35.2608 9.06724 34.8613 10.2213 34.0707C11.3754 33.2802 12.2414 32.1409 12.6905 30.8225C12.769 30.61 12.9724 30.2983 13.1401 30.2841C14.432 30.1708 15.7239 30.1211 17.0657 30.0503C17.0657 30.4045 17.105 30.5887 17.105 30.787C17.105 33.2664 17.4333 35.7459 18.5967 37.9065C19.3497 39.3233 19.2855 40.3646 18.5967 41.746C17.3262 44.3175 17.0086 47.1475 16.8694 49.9918C16.6981 53.4948 16.9729 56.9341 18.197 60.2636C18.5075 61.1066 18.8215 61.9496 19.2284 63.0441C17.287 63.0441 15.5097 63.0617 13.7361 63.0192C13.5947 62.9834 13.4631 62.9172 13.3502 62.8255C13.2374 62.7337 13.1462 62.6185 13.083 62.4879C11.8661 59.9342 9.9104 58.652 7.01615 58.7087C2.68012 58.7937 -0.281942 63.8622 1.88072 67.6061C3.07982 69.6853 4.86774 70.8683 7.30877 70.8896C9.8283 70.9108 11.652 69.7207 12.8689 67.5495C12.9401 67.4358 13.0354 67.3388 13.1482 67.2654C13.261 67.192 13.3885 67.1439 13.522 67.1245C15.8381 67.0501 18.1613 67.0288 20.4703 66.9544C20.6892 66.9346 20.9087 66.9856 21.0959 67.0999C21.2831 67.2142 21.428 67.3856 21.5088 67.5885C21.9656 68.4173 22.4224 69.2461 22.9363 70.0324C24.1604 71.8813 25.3773 73.7586 27.9326 74.0774C27.6007 76.323 28.0896 78.4376 28.9639 80.453C29.0878 80.6774 29.1298 80.9374 29.083 81.189C29.0362 81.4407 28.9034 81.6686 28.707 81.8344C27.0975 83.6479 25.5236 85.4933 23.907 87.2997C23.678 87.5481 23.3635 87.7022 23.0255 87.7318C20.4418 87.8133 17.858 87.8345 15.2742 87.9089C15.0325 87.9512 14.7837 87.8993 14.5796 87.764C14.3755 87.6288 14.2319 87.4205 14.1786 87.1828C13.8305 86.2801 13.2579 85.4795 12.5143 84.8555C11.7707 84.2314 10.8802 83.8042 9.92556 83.6134C8.9709 83.4227 7.98315 83.4747 7.05418 83.7646C6.1252 84.0545 5.28518 84.5728 4.61225 85.2714C3.93933 85.97 3.45533 86.8262 3.20532 87.7603C2.95531 88.6944 2.94741 89.6762 3.18232 90.6142C3.41722 91.5521 3.8873 92.4159 4.54887 93.1251C5.21044 93.8344 6.042 94.366 6.96618 94.6706C9.31798 95.5242 11.9803 94.6139 13.5648 92.4675C13.6779 92.3297 13.8176 92.2158 13.9757 92.1325C14.1339 92.0491 14.3072 91.998 14.4855 91.9822C17.5439 91.8972 20.6059 91.8193 23.6644 91.8335C25.2774 91.8335 26.291 91.4792 27.1439 89.8215C28.136 87.877 29.8775 86.3114 31.2729 84.6077C32.265 85.6987 33.1822 86.779 34.1779 87.7743C34.9237 88.5217 35.9622 88.5145 36.5689 87.8876C37.1756 87.2607 37.09 86.3079 36.3727 85.5145C35.6553 84.7211 34.8702 83.8462 34.1671 82.9749C31.5584 79.7411 30.3879 76.1495 31.4121 71.9947C32.3935 68.017 34.5704 65.0134 38.3676 63.2389C38.885 62.9945 39.1563 63.1432 39.5274 63.4478C41.7757 65.2932 45.4123 65.4208 47.7712 63.7666C48.5313 63.2318 48.7776 62.3994 48.3814 61.6839C47.9532 60.9117 47.1253 60.6638 46.2224 61.0463C45.9226 61.1738 45.6442 61.3545 45.3373 61.4608C43.9705 61.9319 42.6358 61.9709 41.4902 60.9437C40.3447 59.9165 40.1591 58.6378 40.5338 57.221C40.8773 56.0876 41.5793 55.0941 42.5359 54.3874C43.4459 53.6436 43.6065 52.751 43.0283 52.0037C42.4502 51.2563 41.4438 51.2492 40.5552 51.9257C39.2384 52.9039 38.2356 54.2401 37.6681 55.7723C37.1045 57.2815 37.0345 58.9287 37.4682 60.4797C32.7254 62.6049 29.6384 66.0548 28.3037 71.3111C27.59 70.6381 26.9298 70.2166 26.5586 69.6251C25.3238 67.6487 24.1319 65.6475 23.0363 63.6037C20.6023 59.1052 19.5736 53.9891 20.0813 48.908C20.2669 46.9599 20.7951 45.0401 21.1912 43.1132C21.284 42.6634 21.4874 42.4048 22.0655 42.5642C24.968 43.2864 28.0273 43.0667 30.7947 41.9373C34.5444 40.5015 37.6728 37.8137 39.6416 34.3361C39.864 33.9985 39.9508 33.5903 39.8847 33.1922C39.8186 32.7942 39.6045 32.4351 39.2847 32.1861C38.9417 31.9431 38.516 31.844 38.0998 31.9103C37.6837 31.9766 37.3106 32.2029 37.0614 32.5403C36.8754 32.7648 36.7049 33.0014 36.5511 33.2487C34.1921 37.0068 30.7554 39.178 26.4087 39.9077C24.7813 40.1769 23.3146 40.2407 22.3082 38.2501C21.2376 36.1426 20.4453 34.0493 20.3633 31.7257C20.2027 27.0822 21.6873 22.9096 24.271 19.0984C26.1018 16.3923 28.7391 14.5788 31.4085 12.8078C33.7425 11.2706 36.2263 10.0982 39.0242 9.7936C42.9855 9.36147 44.8627 10.4205 46.8219 14.1113C47.3108 15.0287 46.9932 15.3545 46.0868 15.8185C44.8025 16.4703 43.5846 17.2437 42.4502 18.1279C42.2655 18.2575 42.1123 18.4263 42.0017 18.6221C41.8911 18.8179 41.8259 19.0357 41.8108 19.2597C41.7958 19.4837 41.8313 19.7081 41.9147 19.9167C41.9982 20.1254 42.1275 20.3129 42.2932 20.4657C42.9249 21.0395 43.7207 20.8199 44.5736 20.1292C45.3159 19.5271 46.1546 18.8966 47.0717 18.6699C48.8882 18.2059 50.6405 18.7655 50.8903 21.0607C50.9723 22.0213 50.9508 22.9878 50.8261 23.9439C50.7154 24.9356 50.9938 25.6299 51.7825 25.8884C52.1686 26.0173 52.5899 25.9941 52.9593 25.8233C53.3286 25.6526 53.6177 25.3474 53.7667 24.9711C54.0175 24.3747 54.1694 23.7419 54.2164 23.0974C54.4162 20.3346 53.5026 16.8564 50.3585 15.8434C50.1587 15.7796 50.0231 15.3864 49.9481 15.135C49.6948 14.2105 49.5913 13.2258 49.2344 12.3615C48.403 10.5636 47.1079 9.01551 45.4801 7.87386C47.4898 5.64929 50.1764 4.13697 53.1315 3.56682C55.7064 3.08037 58.3507 3.08037 60.9256 3.56682C63.8807 4.13697 66.5673 5.64929 68.577 7.87386C66.9492 9.01551 65.6541 10.5636 64.8227 12.3615C64.4408 13.2258 64.3516 14.2105 64.1089 15.135C64.034 15.4006 63.8984 15.7938 63.6985 15.8434C60.5402 16.8564 59.6373 20.3346 59.8407 23.0974C59.8877 23.7419 60.0396 24.3747 60.2904 24.9711C60.4394 25.3474 60.7285 25.6526 61.0978 25.8233C61.4671 25.9941 61.8884 26.0173 62.2746 25.8884C63.0633 25.6299 63.3452 24.9356 63.231 23.9439C63.1063 22.9878 63.0847 22.0213 63.1668 21.0607C63.4237 18.7655 65.1688 18.2059 66.9853 18.6699C67.8811 18.8966 68.7233 19.5271 69.4621 20.1292C70.3257 20.8376 71.1144 21.0395 71.7461 20.4657C71.9118 20.3129 72.0411 20.1254 72.1245 19.9167C72.2079 19.7081 72.2434 19.4837 72.2284 19.2597C72.2133 19.0357 72.1481 18.8179 72.0375 18.6221C71.9269 18.4263 71.7737 18.2575 71.589 18.1279C70.4546 17.2437 69.2368 16.4703 67.9525 15.8185C67.0424 15.3545 66.7284 15.0287 67.2173 14.1113C69.1765 10.4205 71.0537 9.36147 75.015 9.7936C77.8129 10.0982 80.2968 11.2706 82.6307 12.8078C85.3144 14.5788 87.9517 16.3923 89.7682 19.0984C92.352 22.9096 93.8366 27.0822 93.6938 31.7257C93.6118 34.0493 92.8123 36.1426 91.7488 38.2501C90.7389 40.2407 89.2757 40.1769 87.6484 39.9077C83.2981 39.178 79.865 37.0068 77.506 33.2487C77.3522 33.0014 77.1817 32.7648 76.9957 32.5403C76.7451 32.2371 76.3888 32.0384 75.9975 31.9839C75.6062 31.9294 75.2085 32.0231 74.8835 32.2461C74.5585 32.4692 74.33 32.8054 74.2433 33.188C74.1565 33.5706 74.218 33.9716 74.4155 34.3113C76.3834 37.7896 79.5121 40.4778 83.2624 41.9125C86.0299 43.042 89.0891 43.2616 91.9915 42.5394C92.5697 42.3942 92.7731 42.6386 92.8659 43.0884C93.2584 45.0153 93.7902 46.9351 93.9757 48.8832C94.4839 53.9647 93.4539 59.0813 91.0173 63.5789C89.9217 65.6333 88.7297 67.6345 87.4985 69.6003C87.1416 70.1918 86.4671 70.6133 85.7534 71.2863C84.4187 66.03 81.3317 62.5942 76.5888 60.4548C77.0225 58.9039 76.9526 57.2567 76.389 55.7475C75.8202 54.216 74.8176 52.8802 73.5019 51.9009C72.6132 51.2244 71.5712 51.2775 71.0287 51.9789C70.4863 52.6802 70.6112 53.6188 71.5212 54.3626C72.4778 55.0686 73.1788 56.0625 73.5197 57.1962C73.898 58.613 73.7017 59.9023 72.5668 60.9189C71.432 61.9354 70.0866 61.9071 68.7198 61.436C68.4129 61.3297 68.1309 61.1491 67.8311 61.0216C66.9318 60.6391 66.1038 60.887 65.6899 61.6592C65.2937 62.3676 65.54 63.207 66.3001 63.7418C68.6555 65.3959 72.2956 65.2685 74.5404 63.4231C74.9151 63.1185 75.1863 62.9697 75.7038 63.2141C79.5009 64.9851 81.6779 67.9922 82.6593 71.9699C83.6799 76.1176 82.513 79.7092 79.9042 82.9501C79.1905 83.8214 78.4517 84.6573 77.6987 85.4897C76.9457 86.322 76.8851 87.2324 77.5024 87.8629C78.1198 88.4934 79.1441 88.4969 79.8935 87.7495C80.8892 86.7542 81.8028 85.6739 82.7985 84.583C84.1938 86.2867 85.9354 87.8522 86.9275 89.7968C87.7804 91.4615 88.7939 91.8157 90.407 91.8086C93.4654 91.8086 96.5274 91.8724 99.5858 91.9574C99.7636 91.9733 99.9364 92.0244 100.094 92.1077C100.251 92.1911 100.391 92.305 100.503 92.4427C102.091 94.5891 104.753 95.4994 107.105 94.6458C108.031 94.342 108.864 93.8106 109.527 93.1011C110.19 92.3916 110.662 91.5271 110.898 90.5881C111.133 89.6491 111.126 88.6661 110.876 87.7308C110.626 86.7954 110.142 85.938 109.468 85.2385C108.794 84.539 107.953 84.02 107.022 83.7301C106.092 83.4401 105.103 83.3886 104.147 83.5802C103.192 83.7718 102.3 84.2003 101.556 84.8259C100.812 85.4515 100.24 86.2538 99.8928 87.158C99.8387 87.3954 99.6949 87.603 99.491 87.7381C99.2871 87.8732 99.0387 87.9255 98.7971 87.8841C96.2133 87.8097 93.6296 87.7884 91.0458 87.707C90.7079 87.6774 90.3934 87.5233 90.1643 87.2749C88.5477 85.4684 86.9739 83.6231 85.3644 81.8096C85.168 81.6438 85.0352 81.4159 84.9884 81.1642C84.9416 80.9126 84.9836 80.6527 85.1074 80.4282C85.9818 78.4057 86.4707 76.2912 86.1388 74.0526C88.6833 73.7338 89.8967 71.8565 91.135 70.0076C91.6596 69.2213 92.1164 68.3925 92.5625 67.5637C92.6434 67.3608 92.7883 67.1894 92.9755 67.0751C93.1627 66.9608 93.3822 66.9097 93.6011 66.9296C95.9172 67.004 98.2405 67.0253 100.549 67.0996C100.683 67.1191 100.81 67.1673 100.923 67.2407C101.036 67.3141 101.131 67.411 101.202 67.5247C102.419 69.6959 104.243 70.8861 106.763 70.8648C109.204 70.8436 110.992 69.6605 112.191 67.5814C114.353 63.8375 111.391 58.7688 107.052 58.6838C104.154 58.6272 102.198 59.9093 100.985 62.4631C100.921 62.5934 100.83 62.7084 100.717 62.8001C100.604 62.8919 100.473 62.9581 100.332 62.9944C98.5473 63.0369 96.7808 63.0192 94.8394 63.0192C95.2463 61.9248 95.5532 61.0818 95.8708 60.2388C97.0948 56.9164 97.3696 53.4771 97.1983 49.967C97.0592 47.1334 96.7415 44.2998 95.471 41.7212C94.7894 40.3399 94.7252 39.2949 95.471 37.8817C96.5773 35.7388 96.895 33.2735 96.9057 30.7977ZM107.444 26.3702C107.763 26.3583 108.081 26.4103 108.38 26.5231C108.678 26.6358 108.95 26.807 109.18 27.0265C109.41 27.246 109.594 27.5092 109.719 27.8006C109.844 28.0919 109.91 28.4052 109.91 28.722C109.896 29.3594 109.634 29.9669 109.18 30.4181C108.727 30.8692 108.115 31.1295 107.473 31.1448C106.844 31.1457 106.24 30.8997 105.794 30.4603C105.347 30.021 105.094 29.4241 105.089 28.8C105.074 28.4847 105.124 28.1697 105.236 27.8742C105.347 27.5788 105.519 27.3091 105.739 27.0816C105.96 26.8541 106.225 26.6738 106.518 26.5514C106.811 26.4291 107.126 26.3674 107.444 26.3702ZM107.566 4.40977C108.84 4.40977 109.764 5.21734 109.753 6.35078C109.742 7.48422 108.597 8.57163 107.316 8.58226C107.048 8.5946 106.781 8.55389 106.53 8.46258C106.279 8.37126 106.049 8.23117 105.852 8.05044C105.656 7.86971 105.499 7.65197 105.388 7.41001C105.278 7.16804 105.217 6.90672 105.21 6.64125C105.178 5.3803 106.184 4.42748 107.566 4.41332V4.40977ZM6.68424 8.58226C5.39949 8.58226 4.2575 7.51964 4.2468 6.35078C4.23609 5.18192 5.1604 4.39915 6.43444 4.40977C7.81555 4.40977 8.82192 5.37676 8.7898 6.64125C8.78297 6.90702 8.72274 7.16876 8.61267 7.41113C8.50261 7.65351 8.34491 7.87167 8.14881 8.05277C7.95271 8.23388 7.72218 8.37424 7.47069 8.46578C7.2192 8.55731 6.95181 8.59815 6.68424 8.5858V8.58226ZM6.52723 31.1412C5.88502 31.1259 5.27344 30.8657 4.81953 30.4145C4.36562 29.9633 4.10425 29.356 4.08975 28.7186C4.08999 28.4016 4.15467 28.088 4.27991 27.7965C4.40515 27.505 4.58837 27.2414 4.81862 27.0218C5.04886 26.8023 5.32139 26.6311 5.61988 26.5185C5.91837 26.4059 6.23669 26.3542 6.55577 26.3666C6.87362 26.3638 7.18869 26.4255 7.48167 26.5479C7.77465 26.6702 8.03934 26.8507 8.25955 27.0782C8.47975 27.3057 8.65084 27.5755 8.76227 27.8709C8.8737 28.1664 8.92312 28.4814 8.90756 28.7965C8.90472 29.4209 8.6526 30.0187 8.2064 30.4589C7.7602 30.8991 7.15636 31.1457 6.52723 31.1448V31.1412ZM7.31234 66.8375C6.77393 66.8174 6.26431 66.5911 5.89037 66.2061C5.51644 65.8211 5.30724 65.3073 5.3067 64.7725C5.33649 64.2481 5.56996 63.7556 5.95803 63.3985C6.34609 63.0414 6.85855 62.8475 7.38766 62.8576C7.91677 62.8677 8.42129 63.0809 8.79525 63.4526C9.16921 63.8242 9.38343 64.3253 9.3929 64.8504C9.37 65.3839 9.14116 65.8883 8.75382 66.2588C8.36648 66.6294 7.85034 66.8379 7.31234 66.8411V66.8375ZM8.76127 90.9054C8.33018 90.8938 7.9199 90.719 7.61463 90.4167C7.30936 90.1143 7.13222 89.7075 7.11961 89.2797C7.12868 88.8548 7.30287 88.4498 7.60574 88.1495C7.90861 87.8491 8.31673 87.6766 8.7448 87.6679C9.17287 87.6592 9.58774 87.815 9.90273 88.1029C10.2177 88.3907 10.4084 88.7882 10.435 89.2123C10.4389 89.659 10.2655 90.0893 9.95226 90.4101C9.63906 90.7309 9.21123 90.9165 8.76127 90.9267V90.9054ZM105.21 87.6043C105.432 87.6014 105.652 87.6429 105.857 87.7263C106.062 87.8096 106.248 87.9332 106.404 88.0896C106.56 88.246 106.682 88.432 106.764 88.6365C106.846 88.841 106.886 89.0597 106.88 89.2797C106.868 89.7075 106.691 90.1143 106.385 90.4167C106.08 90.719 105.67 90.8938 105.239 90.9054C104.792 90.8944 104.368 90.7117 104.055 90.3957C103.742 90.0798 103.565 89.6554 103.561 89.2123C103.573 88.7847 103.751 88.3783 104.058 88.0788C104.366 87.7794 104.779 87.6104 105.21 87.6078V87.6043ZM106.563 62.7855C106.838 62.7627 107.115 62.7974 107.376 62.8873C107.637 62.9772 107.876 63.1204 108.077 63.3076C108.279 63.4948 108.439 63.7219 108.547 63.9742C108.655 64.2265 108.708 64.4985 108.704 64.7725C108.694 65.2977 108.48 65.7987 108.106 66.1704C107.732 66.542 107.228 66.7553 106.699 66.7654C106.17 66.7755 105.657 66.5816 105.269 66.2245C104.881 65.8674 104.648 65.3748 104.618 64.8504C104.603 64.5868 104.642 64.323 104.733 64.0748C104.823 63.8267 104.964 63.5993 105.146 63.4066C105.327 63.2139 105.547 63.0598 105.79 62.9536C106.034 62.8475 106.297 62.7915 106.563 62.7891V62.7855Z" fill="#758963"/>
</g>
<defs>
<clipPath id="clip0_2_333">
<rect width="114" height="95" fill="white"/>
</clipPath>
</defs>
</svg>
