<svg width="89" height="106" viewBox="0 0 89 106" fill="none" xmlns="http://www.w3.org/2000/svg">
<g clip-path="url(#clip0_2_356)">
<path d="M60.8255 104.906C56.9462 105.065 53.063 105.187 49.1875 105.4C46.1791 105.563 43.1746 105.985 40.1662 106C38.7171 106 37.2377 105.426 35.8305 104.936C35.2701 104.655 34.8329 104.178 34.602 103.595C33.5875 101.133 32.9465 98.5329 32.7004 95.8816C32.5254 94.1489 31.6583 92.4846 31.0992 90.79C31.0802 90.733 31.0156 90.6874 31.0041 90.6266C30.4298 87.8034 28.2658 87.5109 25.923 87.3133C22.3936 87.0169 18.8718 86.5876 15.3461 86.2038C14.536 86.1164 13.7259 85.9985 12.9273 85.8465C11.8307 85.6602 10.8011 85.1935 9.93864 84.4917C9.07621 83.7899 8.41033 82.877 8.00584 81.8418C7.19361 79.9295 6.71386 77.8927 6.58723 75.8192C6.44651 73.7028 6.089 71.594 5.77333 69.4928C5.71552 69.0351 5.54346 68.5993 5.27297 68.2255C5.00248 67.8517 4.64224 67.5518 4.2254 67.3535C3.6397 67.0533 3.10344 66.6429 2.50253 66.3769C-0.247228 65.1762 -0.692209 61.0195 0.981224 58.8574C1.98148 57.5655 3.09964 56.3572 4.18357 55.1337C6.17268 52.8843 7.03221 50.194 7.22618 47.2721C7.34408 45.3532 7.41253 43.4306 7.38971 41.508C7.38971 39.9691 7.08546 38.4341 7.10067 36.899C7.15772 30.6789 8.41279 24.7399 11.5163 19.276C12.9197 16.8138 14.5208 14.4542 16.1182 12.106C16.5708 11.4373 17.3466 10.9965 17.9247 10.4038C20.9369 7.3146 24.6793 5.41468 28.5739 3.67822C32.2873 2.04735 36.2382 1.02111 40.2765 0.63847C42.2922 0.425688 44.3269 0.387772 46.3389 0.152191C50.0166 -0.273374 53.6411 0.182582 57.1896 0.999515C59.7035 1.57707 62.1338 2.54593 64.5565 3.49965C66.5595 4.30333 68.5139 5.22316 70.4097 6.25443C71.4251 6.79778 72.2581 7.67551 73.2127 8.34426C74.5666 9.29038 75.9244 10.2441 77.3354 11.0952C79.237 12.2617 80.3248 14.154 81.519 15.8981C83.0099 18.0373 84.3638 20.2829 85.6531 22.5552C86.2161 23.6228 86.6441 24.7561 86.9272 25.9292C87.5205 28.1229 88.0479 30.3305 88.5094 32.5521C89.0635 35.4725 89.1725 38.46 88.8327 41.413C88.2076 47.4216 86.6057 53.2881 84.09 58.7814C82.3063 62.7824 79.7695 66.453 77.537 70.2489C76.9779 71.1988 76.1754 72.0119 75.7076 72.9961C75.2356 74.0134 74.9079 75.0914 74.734 76.1992C74.5069 77.6779 74.3672 79.1687 74.3156 80.6638C74.2164 82.0553 74.2164 83.452 74.3156 84.8435C74.5895 87.773 74.9774 90.695 75.3463 93.6132C75.6011 95.6308 76.3618 97.6712 75.7266 99.6699C74.8024 102.618 73.3838 103.918 70.5846 104.112C67.3252 104.336 64.0811 104.723 60.8293 105.039L60.8255 104.906ZM53.7058 67.0761C53.8427 66.9735 54.2002 66.8405 54.2915 66.6088C54.8441 65.396 55.2896 64.1374 55.6226 62.8471C56.022 60.8865 55.5732 59.4501 55.8888 57.4705C56.0942 56.1976 56.1665 54.1952 56.7066 53.0629C57.6269 51.1289 59.597 49.7571 60.7456 47.9408C61.6584 46.4969 62.7956 45.1899 63.6209 43.7042C65.0357 41.1622 66.0321 38.5101 66.0245 35.4703C66.0245 32.9625 65.2373 30.7169 64.3625 28.494C63.9099 27.3541 62.8412 25.9027 62.0805 24.9033C61.415 24.056 60.7989 23.0985 59.9545 22.4716C57.9198 20.9745 54.9342 19.4318 52.3899 18.8429C50.5242 18.3516 48.6121 18.0574 46.685 17.9651C45.18 17.9946 43.6817 18.174 42.2123 18.5008C40.9273 18.7626 39.6576 19.095 38.4091 19.4964C35.7126 20.3665 33.4648 22.3347 31.5366 24.4056C30.4311 25.6329 29.4995 27.006 28.7678 28.4864C27.962 30.0583 27.4296 31.7556 27.1933 33.5058C26.9156 35.3525 26.7293 37.1307 27.2237 39.0572C27.5013 40.3682 27.9448 41.6387 28.5434 42.8379C29.4296 44.4413 30.3043 46.0676 31.7382 47.3329C32.4988 48.0017 32.8791 49.096 33.6132 49.8065C35.9179 52.0104 37.0019 55.0197 37.3708 58.0785C37.4773 58.9372 37.4392 59.8149 37.5267 60.6774C37.6484 61.8591 37.9945 63.0484 37.9413 64.2187C37.831 66.7873 39.6299 68.0565 41.7445 68.9988C42.934 69.5942 44.2373 69.9284 45.5668 69.979C48.1873 70.0018 51.1044 69.4319 53.238 68.0108C53.489 67.8588 53.5308 67.4409 53.7058 67.0761Z" fill="#758963"/>
<path d="M46.2666 45.6723C46.2666 48.4764 46.2666 51.2502 46.2666 54.0316C46.2666 55.2513 46.24 54.8219 45.0229 54.7915C44.3916 54.7915 44.1976 55.1259 43.5587 55.1715C42.9197 55.2171 42.2047 55.0423 41.5316 55.0689C40.7215 55.0955 40.5731 55.2779 39.763 55.3007C39.5196 55.3007 39.0594 55.0234 39.048 54.8524C38.8807 52.0596 36.458 50.5131 34.8644 48.4727C33.6284 46.9072 32.6433 45.1441 31.4187 43.5672C30.7721 42.7275 30.0647 41.96 29.7909 40.9074C29.2166 38.7188 28.475 36.5493 29.1596 34.2276C29.6122 32.7078 29.7301 31.0359 30.4184 29.6376C31.2712 27.9854 32.3377 26.4524 33.5904 25.078C35.2638 23.1781 37.5077 22.1864 39.9076 21.3809C41.5506 20.8337 43.1708 20.2409 44.8898 20.1193C46.6089 19.9977 48.4497 19.8496 50.2144 20.4195C52.0323 21.0047 53.8769 21.5139 55.7025 22.0724C56.2768 22.2472 58.9961 24.1926 59.5057 24.9944C60.3691 26.3661 61.4074 27.6541 62.168 29.0638C63.2558 31.0663 63.6057 33.3461 63.5904 35.5461C63.5904 37.066 62.8298 38.6124 62.2289 40.0753C61.8828 40.9227 61.7421 41.3558 62.1224 41.675C61.7868 41.9651 61.4776 42.2842 61.1982 42.6287C60.6924 43.3582 60.2588 44.1487 59.7872 44.8896C59.0836 46.0295 58.5777 47.3518 57.6269 48.1953C56.2806 49.3846 55.345 50.9881 54.668 52.4509C54.3579 53.2571 54.1038 54.0835 53.9074 54.9246H48.6779C48.6779 54.5218 48.6779 54.043 48.6779 53.5642C48.6779 51.501 48.6779 49.4416 48.6132 47.3821C48.5407 46.9514 48.439 46.5262 48.309 46.1093C48.2139 45.5621 48.2861 45.1099 48.8985 44.8287C49.7507 44.5035 50.5216 43.9965 51.1576 43.3431C51.9345 42.4462 52.4883 41.3786 52.774 40.2274C53.3483 37.9476 53.0136 35.7475 51.188 34.0148C50.9295 33.8067 50.6458 33.6319 50.3437 33.4943C50.2068 33.4221 49.99 33.4487 49.9063 33.3461C48.5638 31.716 46.7953 31.8262 44.9621 32.1112C42.7942 32.4456 41.311 33.6994 40.3487 35.5993C38.7894 38.6846 39.1583 41.3558 41.7521 43.7762C42.5927 44.6995 44.0151 45.2962 45.5554 45.5507L46.2666 45.6723Z" fill="#758963"/>
<path d="M39.4093 57.2841C39.4088 57.2226 39.4206 57.1616 39.4439 57.1047C39.4673 57.0478 39.5017 56.996 39.5452 56.9525C39.5888 56.909 39.6405 56.8746 39.6975 56.8513C39.7545 56.828 39.8156 56.8163 39.8772 56.8168C42.1591 56.8168 43.939 56.8168 46.1487 56.8168C47.9401 56.8168 49.3092 56.7902 51.093 56.7522C51.808 56.7522 52.523 56.6078 53.2342 56.6192C53.7096 56.6192 53.9948 56.7521 53.7857 57.4437C53.5042 58.405 53.5384 59.45 53.3825 60.4493C53.0821 62.3491 53.4966 64.3667 52.2111 65.9854C51.3192 67.0568 50.0593 67.7573 48.6779 67.9499C47.362 68.1817 45.9776 68.4058 44.6807 68.2272C43.5397 68.0753 43.9771 67.7903 42.8057 67.5737C41.3528 67.3077 39.7402 65.0811 39.668 62.0527C39.6033 60.4987 39.436 58.9446 39.4093 57.2841Z" fill="#758963"/>
<path d="M46.2286 33.9427C46.898 33.9208 47.5645 34.0396 48.185 34.2915C48.8054 34.5434 49.366 34.9227 49.8304 35.4049C50.2947 35.887 50.6525 36.4614 50.8805 37.0905C51.1084 37.7197 51.2016 38.3896 51.1538 39.0571C50.9446 41.5383 49.4651 44.0612 45.6315 43.6774C44.3787 43.5108 43.2354 42.8768 42.4311 41.9027C41.6269 40.9287 41.2213 39.6868 41.2957 38.4263C41.4289 36.0819 43.7108 33.5437 46.2286 33.9427Z" fill="#758963"/>
</g>
<defs>
<clipPath id="clip0_2_356">
<rect width="89" height="106" fill="white"/>
</clipPath>
</defs>
</svg>
