<svg width="106" height="106" viewBox="0 0 106 106" fill="none" xmlns="http://www.w3.org/2000/svg">
<g clip-path="url(#clip0_2_361)">
<path d="M52.9981 0.00012207C82.2241 0.00012207 105.996 23.776 105.996 52.9981C105.996 82.2203 82.2241 106 52.9981 106C23.772 106 -1.14441e-05 82.2241 -1.14441e-05 52.9981C-1.14441e-05 23.7721 23.7759 0.00012207 52.9981 0.00012207ZM52.9981 103.289C80.7289 103.289 103.285 80.7289 103.285 52.9981C103.266 39.667 97.9622 26.8871 88.5357 17.4606C79.1091 8.03399 66.3292 2.73006 52.9981 2.71161C25.2711 2.71161 2.71148 25.2712 2.71148 52.9981C2.71148 80.7251 25.2711 103.289 52.9981 103.289Z" fill="#758963"/>
<path d="M53.4358 35.3502C59.0176 35.5245 63.7511 37.8447 68.0468 41.2224C69.2864 42.1986 70.4523 43.2677 71.6028 44.3523C71.9995 44.725 72.2942 45.1931 72.4588 45.7119C72.5538 46.0456 72.5282 46.402 72.3865 46.7186C72.2448 47.0353 71.9962 47.2919 71.6841 47.4434C70.8862 47.916 70.1347 47.7145 69.4685 47.1219C68.1669 45.9598 66.9197 44.7474 65.5523 43.6822C62.1629 41.0443 58.3978 39.1656 54.0672 38.7743C50.1936 38.4257 46.6725 39.5103 43.4885 41.7183C40.8545 43.5427 38.7782 45.9017 36.9731 48.5241C36.8335 48.7413 36.6822 48.9508 36.5199 49.1516C36.2485 49.4937 35.8564 49.7188 35.4242 49.7808C34.9919 49.8427 34.5524 49.7368 34.1958 49.4848C33.8414 49.2475 33.5955 48.8795 33.512 48.4613C33.4285 48.043 33.5142 47.6088 33.7503 47.2536C34.6473 45.879 35.6279 44.5608 36.6865 43.3064C40.2037 39.2391 44.4336 36.3572 49.8566 35.5012C50.3942 35.3987 50.9375 35.3288 51.4835 35.292C52.1459 35.2688 52.7889 35.3269 53.4358 35.3502Z" fill="#758963"/>
<path d="M46.2154 59.5521C46.2154 60.0983 46.2503 60.6483 46.2154 61.1906C46.1418 62.1668 45.4872 62.8369 44.666 62.8524C44.2571 62.8576 43.8626 62.7009 43.5688 62.4164C43.2749 62.132 43.1054 61.7428 43.0972 61.3339C42.9617 59.6373 42.8726 57.9329 42.8571 56.2324C42.8355 56.0138 42.8615 55.7931 42.9332 55.5855C43.005 55.3779 43.1209 55.1882 43.2729 55.0296C43.4249 54.871 43.6094 54.7472 43.8138 54.6667C44.0181 54.5861 44.2375 54.5507 44.4569 54.5629C45.3362 54.5629 45.9559 55.1982 46.0334 56.1859C46.1225 57.3054 46.1806 58.4288 46.2503 59.5482L46.2154 59.5521Z" fill="#758963"/>
<path d="M64.7272 59.5521C64.7272 60.0983 64.7582 60.6483 64.7272 61.1906C64.6497 62.1668 63.999 62.8369 63.1778 62.8524C62.7688 62.8576 62.3744 62.7009 62.0805 62.4164C61.7866 62.132 61.6171 61.7428 61.609 61.3339C61.4734 59.6373 61.3882 57.9329 61.3727 56.2324C61.3511 56.0138 61.3771 55.7931 61.4489 55.5855C61.5206 55.3779 61.6365 55.1882 61.7885 55.0296C61.9405 54.871 62.125 54.7472 62.3294 54.6667C62.5337 54.5861 62.7531 54.5507 62.9725 54.5629C63.8479 54.5629 64.4715 55.1982 64.549 56.1859C64.6381 57.3054 64.6962 58.4288 64.7659 59.5482L64.7272 59.5521Z" fill="#758963"/>
</g>
<defs>
<clipPath id="clip0_2_361">
<rect width="106" height="106" fill="white"/>
</clipPath>
</defs>
</svg>
