<svg width="129" height="106" viewBox="0 0 129 106" fill="none" xmlns="http://www.w3.org/2000/svg">
<g clip-path="url(#clip0_2_340)">
<path d="M78.4674 75.9039C75.1136 87.7951 67.9724 96.7782 56.6593 102.138C47.3463 106.551 37.6447 107.176 27.8367 104.034C18.3112 101.026 10.2593 94.5249 5.28092 85.8217C0.3025 77.1185 -1.23813 66.8505 0.965155 57.0576C2.57237 49.6813 6.26525 42.9295 11.5993 37.6147C16.8735 32.2634 23.5421 28.5172 30.8387 26.8066C38.1353 25.096 45.7637 25.4905 52.8474 27.9447C53.4118 26.4639 53.874 25.0449 54.4834 23.6916C60.3894 10.6612 70.3323 2.75573 84.4021 0.48527C104.742 -2.80525 123.985 10.8792 128.202 31.1241C130.026 40.0031 128.723 49.2435 124.516 57.2622C120.309 65.281 113.46 71.5789 105.143 75.0772C97.3747 78.4122 88.7212 79.0405 80.5574 76.8623C79.833 76.608 79.1334 76.2871 78.4674 75.9039ZM51.9762 31.6424C37.6242 26.0691 17.0513 30.7745 7.62376 49.296C5.4163 53.6356 4.09828 58.377 3.748 63.2387C3.39773 68.1005 4.02232 72.9834 5.58468 77.5977C7.14704 82.212 9.61531 86.4635 12.843 90.1C16.0707 93.7366 19.992 96.6839 24.3742 98.7671C28.7563 100.85 33.51 102.027 38.353 102.227C43.196 102.427 48.0296 101.646 52.5669 99.9316C57.1041 98.2169 61.2526 95.603 64.766 92.2449C68.2794 88.8868 71.0861 84.8531 73.0195 80.3832C80.6474 62.816 73.6371 42.0199 55.5836 33.0121C53.8494 32.2018 54.2298 32.4774 51.9762 31.6424ZM79.1709 73.2099C79.9433 73.1777 80.7171 73.219 81.4818 73.3332C90.623 75.5338 99.3021 74.3986 107.535 69.8083C119.94 62.8941 127.069 48.3212 124.979 34.1884C123.45 23.8356 118.468 15.5682 109.846 9.77691C99.6211 2.91618 88.578 1.72332 77.1259 6.23133C67.3466 10.0854 60.6921 17.2011 57.0356 27.122C56.2176 29.3349 56.2176 29.3349 58.3117 30.3303C58.4057 30.3756 58.4957 30.4249 58.5857 30.4742C72.3119 38.4044 79.3958 50.3161 79.6413 66.2586C79.6862 68.6237 79.3345 71.0135 79.1709 73.2099Z" fill="#758963"/>
<path d="M33.5956 59.6366C33.4779 61.3288 32.8275 62.9394 31.7387 64.235C29.5424 66.7317 26.1231 66.6577 23.6486 64.1116C22.2429 62.6054 21.3072 60.7178 20.9574 58.6823C20.6833 57.362 21.2723 56.3007 22.3153 56.0869C23.4646 55.8483 24.3603 56.5682 24.5934 57.9954C24.7601 59.3282 25.3446 60.5729 26.2622 61.5491C27.5301 62.8571 28.888 62.6432 29.481 60.9116C29.7634 59.9348 29.8728 58.9157 29.8041 57.9008C29.7673 56.6669 30.25 55.7743 31.297 55.5809C32.3441 55.3876 33.2111 56.0622 33.4197 57.3002C33.5194 58.0753 33.5782 58.8552 33.5956 59.6366Z" fill="#758963"/>
<path d="M58.7289 58.3863C58.5841 60.4214 57.7447 62.3437 56.3526 63.828C53.9518 66.2959 50.5325 66.1765 48.287 63.5688C46.835 61.8865 46.2993 59.867 46.1602 57.7034C46.1349 57.4464 46.1603 57.1869 46.2351 56.9399C46.3099 56.6928 46.4326 56.463 46.596 56.2638C46.7595 56.0647 46.9606 55.9 47.1876 55.7793C47.4147 55.6586 47.6632 55.5842 47.919 55.5605C48.8842 55.5029 49.6858 56.2803 49.8699 57.4197C49.9673 58.3311 50.148 59.2316 50.4098 60.1097C50.7411 61.0105 51.3014 61.903 52.4302 61.8866C53.5591 61.8701 54.1317 61.064 54.4753 60.1344C54.8083 59.2432 55.0348 58.3153 55.1501 57.3704C55.3342 55.9266 55.9436 55.1204 57.0356 55.1368C58.1277 55.1533 58.7984 56.05 58.778 57.5678C58.7821 57.8516 58.7453 58.1148 58.7289 58.3863Z" fill="#758963"/>
<path d="M90.3982 55.0257C85.9891 54.3758 82.5085 51.5665 80.3121 47.0503C79.7518 45.9027 80.0913 44.7799 81.0402 44.3028C81.9891 43.8256 83.0852 44.3028 83.67 45.5367C85.0893 48.5599 87.2979 50.5918 90.6231 51.2951C92.6022 51.7117 94.6626 51.4628 96.4872 50.5866C98.3118 49.7103 99.7995 48.2554 100.721 46.4457C100.967 45.9603 101.159 45.4461 101.392 44.9526C101.92 43.8297 102.852 43.332 103.736 43.7186C104.787 44.1546 105.171 45.0925 104.734 46.3717C104.016 48.4892 102.76 50.3809 101.09 51.8586C98.2224 54.3923 94.8604 55.5192 90.3982 55.0257Z" fill="#758963"/>
<path d="M78.4143 37.1745C73.9153 36.5247 71.584 32.7612 71.0523 29.4871C70.8518 28.2902 71.4858 27.4305 72.4961 27.2454C73.5063 27.0604 74.2547 27.6567 74.6597 28.8084C74.9208 29.7588 75.2943 30.6744 75.7722 31.5354C77.3673 34.0033 80.4103 34.1843 82.214 31.8769C82.942 30.9432 83.2938 29.7051 83.7887 28.5863C83.8603 28.3239 83.9163 28.0574 83.9564 27.7883C84.0675 27.3533 84.3299 26.9726 84.696 26.7153C85.0622 26.458 85.5079 26.3412 85.9523 26.3858C86.3891 26.4797 86.7818 26.7185 87.0674 27.0639C87.353 27.4093 87.5148 27.8411 87.527 28.2901C87.7806 32.7405 82.848 37.5735 78.4716 37.1704L78.4143 37.1745Z" fill="#758963"/>
<path d="M113.912 29.697C113.531 33.6785 110.37 36.9155 106.431 37.1006C103.192 37.2569 100.795 35.5952 99.294 32.8311C98.5987 31.5519 98.292 30.0178 98.0179 28.5576C97.9546 28.2963 97.9491 28.0241 98.0017 27.7604C98.0544 27.4967 98.1639 27.2477 98.3227 27.0312C98.4814 26.8146 98.6855 26.6358 98.9204 26.5073C99.1554 26.3787 99.4156 26.3036 99.6826 26.2872C100.656 26.1884 101.527 27.0152 101.617 28.2574C101.681 29.6708 102.235 31.0172 103.184 32.062C104.239 33.2096 105.56 33.7073 107.065 33.3166C108.771 32.8682 109.679 31.5644 110.145 29.9232C110.268 29.5119 110.333 29.0553 110.431 28.6193C110.685 27.5046 111.356 26.974 112.354 27.0563C113.351 27.1385 113.99 27.953 113.957 29.0759C113.953 29.2856 113.928 29.4913 113.912 29.697Z" fill="#758963"/>
<path d="M38.52 82.6579C34.115 82.008 30.6303 79.1987 28.434 74.6825C27.8777 73.5349 28.2131 72.412 29.1661 71.9349C30.119 71.4578 31.2111 71.9102 31.7919 73.1688C33.2152 76.192 35.4198 78.2239 38.745 78.9273C40.7234 79.3422 42.7826 79.0925 44.6062 78.2164C46.4298 77.3403 47.917 75.8863 48.8392 74.0778C49.0846 73.5925 49.2768 73.0784 49.5099 72.5848C50.0376 71.4619 50.9742 70.9642 51.8536 71.3303C52.9047 71.7704 53.2892 72.7082 52.8556 73.9832C52.1377 76.1018 50.8814 77.9948 49.2114 79.4743C46.3606 82.0245 42.9822 83.1474 38.52 82.6579Z" fill="#758963"/>
</g>
<defs>
<clipPath id="clip0_2_340">
<rect width="129" height="106" fill="white"/>
</clipPath>
</defs>
</svg>
