<svg width="122" height="128" viewBox="0 0 122 128" fill="none" xmlns="http://www.w3.org/2000/svg">
<g clip-path="url(#clip0_2_348)">
<path d="M76.145 123.743C72.4374 123.898 68.7297 124.016 65.0257 124.218C62.1468 124.38 59.2789 124.782 56.4 124.808C55.0441 124.808 53.6628 124.259 52.3324 123.832C51.4673 123.556 51.1983 122.694 50.8458 121.891C49.7734 119.454 49.6753 116.829 49.1373 114.284C48.6866 112.174 47.7197 110.157 46.8328 108.168C46.6636 107.887 46.4369 107.646 46.1679 107.461C45.8989 107.276 45.5938 107.152 45.2734 107.097C42.1837 106.688 39.0721 106.452 35.9788 106.084C33.9221 105.872 31.8777 105.551 29.8539 105.123C27.6293 104.611 26.2698 103.017 25.4556 100.892C24.5432 98.4991 24.3033 96.0064 24.1397 93.4731C23.9855 91.9953 23.7427 90.5283 23.4127 89.0804C23.2564 88.2372 22.6858 87.7144 21.9588 87.3093C21.0599 86.8717 20.2073 86.3424 19.4143 85.7297C17.7131 84.2311 17.4841 80.9872 18.9199 79.102C19.8796 77.8538 20.9446 76.6828 21.9806 75.4935C23.8598 73.3395 24.6959 70.7658 24.8885 67.96C25.0073 66.038 25.0594 64.1146 25.0448 62.1901C25.0448 60.791 24.7577 59.3955 24.7649 58C24.8013 51.9356 25.9863 46.1253 28.9597 40.8121C30.3119 38.3893 31.6859 35.9001 33.4925 33.8382C35.8298 31.1687 38.5269 28.8011 41.8165 27.2694C44.8226 25.8665 47.7706 24.2464 51.0457 23.6351C54.4589 22.9981 57.9121 22.5306 61.369 22.225C66.9876 21.7165 72.6459 22.5383 77.8971 24.6257C80.0827 25.5412 82.2075 26.5988 84.2583 27.7922C86.1557 28.8416 88.0059 30.0015 89.7979 31.2166C92.0007 32.7262 94.0072 34.4825 95.4503 36.7949C96.8207 39.0041 98.1983 41.1729 99.5323 43.3858C100.656 45.2527 101.154 47.3367 101.553 49.465C101.822 50.9047 102.36 52.3075 102.538 53.7545C102.811 55.9932 103.12 58.2725 102.967 60.5038C102.784 63.3825 102.341 66.2381 101.644 69.0352C100.648 72.9492 99.6087 76.8854 97.6858 80.4828C95.4176 84.7208 93.0767 88.911 90.3214 92.8619C89.6925 93.7676 89.5289 95.0712 89.3654 96.231C89.1364 97.8585 89.0819 99.5117 89.0019 101.158C88.802 105.138 89.289 109.052 90.0306 112.959C90.3941 114.855 91.0011 116.843 90.3686 118.739C89.4635 121.457 88.1876 122.79 85.4687 122.959C82.986 123.129 80.5179 123.489 78.0425 123.732C77.41 123.795 76.7703 123.732 76.1341 123.732L76.145 123.743Z" fill="#758963"/>
<path d="M122 54.5426C122 62.9635 120.513 71.1119 117.94 79.102C116.249 84.3416 114.457 89.5443 112.804 94.795C111.337 99.5991 110.422 104.559 110.077 109.575C109.827 112.76 109.619 115.934 109.946 119.122C109.968 119.335 109.968 119.55 109.946 119.763C109.877 120.419 109.583 120.894 108.874 120.901C108.165 120.908 107.918 120.407 107.86 119.745C107.533 116.158 107.747 112.59 108.002 109.004C108.591 100.719 111.004 92.9135 113.73 85.1627C116.191 78.1667 118.394 71.1082 119.274 63.6999C120.219 55.7539 120.052 47.8669 118.296 40.0241C116.573 32.3617 112.72 25.8555 107.602 20.0452C105.057 17.1621 102.458 14.3343 99.3179 12.0919C94.8687 8.91429 89.9179 6.79706 84.7308 5.23954C79.6419 3.7078 74.4475 2.69894 69.1005 2.60689C56.4654 1.03833 22.4858 3.24753 14.3145 41.0404C12.915 47.1857 11.5991 53.3532 9.95251 59.4507C8.49244 64.8359 6.29887 69.9888 3.43504 74.7608C2.71426 75.8992 2.27888 77.1986 2.16675 78.5462C2.05462 79.8938 2.26914 81.2487 2.79165 82.4932C3.71856 84.8976 5.15073 86.9632 6.70286 88.9736C8.00659 90.66 9.28852 92.3636 10.5486 94.0844C11.2756 95.0859 11.4792 96.2494 11.4537 97.4829C11.4029 99.902 11.5228 105.65 11.5373 108.073C11.5373 110.65 12.7878 112.55 15.0051 113.684C17.8076 115.124 20.0395 114.476 22.3295 114.763C24.3397 115.013 26.059 115.249 27.2185 115.768C30.3083 117.156 31.8458 119.542 31.8313 123.132C31.8313 124.174 31.8313 125.993 31.8313 126.479C31.8313 126.965 31.6241 128.026 30.9844 128.026C30.3446 128.026 30.181 126.969 30.181 126.332C30.2085 124.814 30.1039 123.296 29.8684 121.796C29.5449 119.778 27.9855 118.246 26.1971 117.477C22.9257 116.077 19.7596 116.508 17.804 116.35C15.8484 116.192 14.3072 115.794 13.2858 115.135C12.1082 114.423 11.1337 113.414 10.4581 112.205C9.78251 110.997 9.42913 109.631 9.43271 108.242C9.37819 105.826 9.25823 100.068 9.38182 97.6523C9.46906 95.9438 8.55305 94.7508 7.64068 93.5394C6.35754 91.8346 4.96899 90.2071 3.70766 88.4876C1.98105 86.1311 0.643389 83.5757 0.127225 80.6374C-0.258755 78.4393 0.168288 76.1741 1.32676 74.2748C5.71052 66.7449 8.36767 58.6186 10.0507 50.0651C11.1411 44.6157 12.0353 38.2825 13.7837 33.006C15.9138 26.5845 19.4397 20.1409 24.2124 15.3726C42.0564 -4.55846 71.3396 0.125161 78.2606 1.49121C85.6832 2.96404 92.7531 5.35368 99.187 9.46655C102.415 11.5285 105.108 14.2054 107.689 17.0259C111.582 21.275 114.959 25.8629 117.438 31.1209C120.001 36.5777 121.146 42.3696 121.655 48.3235C121.851 50.3744 121.895 52.4622 122 54.5426Z" fill="#758963"/>
<path d="M97.6458 112.108C97.704 104.206 99.0998 96.5182 101.037 88.9479C102.255 84.1833 103.945 79.5475 105.446 74.8566C107.06 69.7532 108.816 64.6904 109.365 59.3109C109.943 53.681 109.256 48.2131 107.62 42.8041C104.392 32.1261 97.4422 24.5742 88.1368 19.0952C83.7312 16.4957 78.824 15.0707 73.7569 14.2385C67.861 13.2738 40.5334 8.99896 26.1753 30.1046C21.7443 36.5556 20.0395 43.813 19.7378 51.7073C19.5415 56.8622 19.0653 62.0392 17.8295 67.0947C17.0001 70.5309 15.3485 73.7075 13.0204 76.3442C12.0732 77.4607 11.5494 78.8824 11.5427 80.3545C11.5361 81.8267 12.047 83.2531 12.9841 84.3784C13.8346 85.413 14.667 86.5066 15.6957 87.324C18.6473 89.7137 19.8396 92.8472 20.0068 96.5587C20.0868 98.3003 20.2903 102.645 20.5193 104.376C20.7265 105.941 20.7629 107.973 22.0751 108.879C23.8926 110.72 29.5885 110.352 34.4339 110.517C39.2793 110.683 41.4785 115.61 41.5621 118.585C41.6021 120.025 41.5803 121.464 41.5912 122.904C41.5912 123.607 41.5912 124.311 41.6202 125.01C41.6202 125.647 41.3767 126.203 40.7478 126.159C40.5156 126.108 40.2973 126.006 40.1087 125.86C39.9201 125.713 39.766 125.526 39.6574 125.312C39.4611 124.914 39.5847 124.355 39.581 123.865C39.581 122.241 39.581 120.617 39.5519 118.994C39.512 116.416 38.2833 113.736 36.0442 112.66C32.7219 111.611 24.8813 112.495 21.8933 111.188C18.9054 109.88 18.5746 106.703 18.2802 104C18.0366 101.791 17.8149 96.9453 17.615 94.7177C17.4408 92.7751 16.5285 90.977 15.0705 89.7027C13.768 88.4668 12.5442 87.1484 11.4065 85.7555C8.69118 82.4416 8.81113 78.1483 11.4756 74.7976C12.6379 73.3538 13.649 71.7916 14.4926 70.1361C16.0483 67.0321 16.4991 63.6078 16.848 60.1945C17.3533 55.2569 17.7131 50.3045 18.302 45.3779C25.8082 5.48625 66.0144 10.4534 75.2945 12.3497C81.8374 13.5611 87.9332 15.9028 93.3384 19.8832C102.157 26.3747 108.144 34.8067 110.586 45.7019C112.04 52.164 112.153 58.6223 110.466 64.996C109.012 70.5191 107.257 75.9759 105.436 81.3923C102.762 89.2452 101.001 97.3873 100.19 105.653C99.7868 109.947 99.576 114.281 100.23 118.592C100.336 119.292 100.332 120.032 99.4342 120.176C98.5364 120.319 98.2383 119.667 98.1729 118.949C98.0093 116.678 97.8348 114.391 97.6458 112.108Z" fill="#758963"/>
</g>
<defs>
<clipPath id="clip0_2_348">
<rect width="122" height="128" fill="white"/>
</clipPath>
</defs>
</svg>
