<svg width="97" height="104" viewBox="0 0 97 104" fill="none" xmlns="http://www.w3.org/2000/svg">
<path d="M71.5508 10.8735C70.743 10.8735 70.1182 10.8735 69.4795 10.8735C68.4163 10.8478 67.7535 10.2996 67.7707 9.33138C67.7915 7.08717 67.8432 4.84296 67.9433 2.59875C67.9951 1.39969 68.6855 0.838664 69.9593 0.8579C77.6368 0.973316 85.3154 1.09511 92.9951 1.22335C94.5278 1.249 95.0456 1.75555 95.018 3.14696C94.9801 5.11866 94.9283 7.08713 94.8799 9.05563C94.8489 10.3925 94.445 10.7516 92.9709 10.7548H91.8352C91.8352 11.7647 91.8145 12.6784 91.8525 13.6242C91.8525 13.8037 92.0665 14.0026 92.2287 14.1468C95.6808 17.2535 97.11 21.0718 96.9719 25.4897C96.8994 27.8204 96.9995 30.1512 96.9719 32.4852C96.9477 36.0118 96.8856 39.5385 96.8407 43.0651C96.8096 43.3422 96.8096 43.6216 96.8407 43.8987C97.4932 46.8482 94.59 48.2781 92.2564 48.2781C85.2348 48.2781 78.2099 48.2525 71.1987 48.23C70.5076 48.2537 69.8155 48.2333 69.1274 48.169C66.9388 47.8933 65.5959 46.5661 65.589 44.5238C65.558 37.7014 65.6235 30.8726 65.5683 24.0502C65.5372 19.9529 67.1459 16.6251 70.705 14.2141C72.1583 13.2395 71.3333 12.0758 71.5508 10.8735ZM67.9744 38.2689H94.4899V23.8418H67.971L67.9744 38.2689ZM68.4128 21.4052H94.0653C93.5301 19.2374 92.3508 17.2525 90.6615 15.6761C90.4364 15.4592 90.1625 15.2913 89.8593 15.1843C89.5561 15.0773 89.2312 15.034 88.9078 15.0574C84.0404 15.1856 79.1764 15.3074 74.309 15.3395C73.7814 15.3217 73.2557 15.4064 72.7653 15.588C72.2749 15.7697 71.8307 16.0442 71.461 16.3942C69.9007 17.8241 68.7926 19.4271 68.4128 21.4052ZM67.9468 40.6991C68.0124 42.0905 68.0745 43.3857 68.1332 44.6809C68.1781 45.6267 68.4784 45.9121 69.4864 45.9121L92.0734 45.9409C92.4186 45.9409 92.7914 45.9569 93.1504 45.9409C94.1861 45.8543 94.4761 45.4857 94.4208 44.5367C94.3656 43.5877 94.3863 42.5425 94.3759 41.5422C94.3759 41.2793 94.3759 41.0132 94.3759 40.715L67.9468 40.6991ZM89.4395 10.8831H73.8119C73.8617 11.2714 73.8813 11.6624 73.8706 12.0533C73.7843 12.8708 74.1709 13.06 75.0063 13.0376C79.0315 12.9221 83.06 12.8644 87.0886 12.7907C87.855 12.7747 88.6213 12.7907 89.4395 12.7907V10.8831ZM80.502 3.42271V8.40488H83.3396V3.42271H80.502ZM70.3978 3.24316V8.45294H73.1836V3.24316H70.3978ZM75.6173 3.24316V8.43368H77.9993V3.34256L75.6173 3.24316ZM92.3875 8.37279V3.58622H89.9434C90.0919 5.23091 90.2369 6.81145 90.3784 8.37279H92.3875ZM85.5869 3.64712C85.7077 5.18601 85.832 6.78903 85.9563 8.38562H87.924C87.8826 7.74442 87.8481 7.21218 87.8135 6.66074C87.779 6.10931 87.7307 5.5579 87.7134 5.00647C87.6685 3.32331 87.5926 3.25915 85.7526 3.52525C85.7285 3.52525 85.7077 3.55414 85.5869 3.64391V3.64712Z" fill="#758963"/>
<path d="M85.2417 26.1597C85.5176 26.1405 85.7946 26.1774 86.0537 26.2677C86.3127 26.358 86.5474 26.4995 86.7416 26.6826C86.9357 26.8656 87.0846 27.0858 87.1779 27.3277C87.2712 27.5696 87.3067 27.8274 87.2819 28.0833C87.2563 28.9949 87.0443 29.8936 86.6571 30.7315C85.0553 33.8061 82.3212 35.595 78.7518 36.2715C77.4849 36.512 76.608 35.7649 76.577 34.5659C76.4665 30.552 80.9404 26.2078 85.2417 26.1597ZM84.6065 28.5995C81.7827 29.2407 79.3939 31.6195 79.2558 33.9022C81.7482 33.4245 84.6376 30.5937 84.6065 28.5867V28.5995Z" fill="#758963"/>
<path d="M91.9249 47.2551L89.5084 47.1397C88.5798 52.6572 86.6777 57.7805 84.0127 61.679C77.5608 71.1047 78.3237 80.2161 78.9382 87.5355C79.097 89.4591 79.2488 91.2865 79.2454 92.912C79.2454 99.3689 72.1514 100.558 71.4092 100.664L46.4299 101.437C42.8916 101.543 40.4475 101.02 39.1806 99.8754C37.7549 98.593 37.7514 96.5732 37.7479 94.4252C37.7479 93.0627 37.748 91.7739 37.3682 90.6197C35.9874 86.4198 33.1739 84.7943 25.8762 84.7943C24.1295 84.7943 22.1273 84.8873 19.8247 85.0604C12.2543 85.6343 11.0772 79.6263 10.4662 72.8776C10.2832 70.8578 10.1485 69.3991 9.62383 68.511C8.5882 66.7798 6.7586 65.9109 5.13612 65.1447C4.00384 64.6093 2.93716 64.1027 2.65064 63.4968C2.06379 62.2625 2.65066 61.5315 4.57002 59.5983C7.39382 56.7642 11.6641 52.4841 10.9046 42.3274C9.86899 28.4614 14.7329 17.5322 25.3653 9.84092C32.7252 4.52213 43.0434 1.78099 53.6724 2.30998C59.4826 2.56795 65.1744 3.92739 70.3977 6.30467V3.8168C65.1718 1.6028 59.5406 0.330998 53.8036 0.0689814C42.5947 -0.495278 31.6861 2.4222 23.874 8.08402C12.5685 16.2594 7.3904 27.8395 8.48816 42.4974C9.17858 51.6858 5.48485 55.3824 2.78877 58.0851C0.924651 59.9574 -0.839389 61.7239 0.430976 64.4137C1.06271 65.7506 2.57124 66.4655 4.03147 67.158C5.4123 67.7992 6.8242 68.479 7.48355 69.6107C7.75972 70.0755 7.90474 71.6722 8.03246 73.0764C8.50885 78.3279 9.39255 88.0965 19.9973 87.3015C32.77 86.3396 34.0266 88.1864 35.0312 91.2738C35.3039 92.1105 35.3074 93.239 35.3074 94.4316C35.3074 96.8297 35.3074 99.5613 37.4787 101.485C39.1254 102.963 41.7627 103.687 45.522 103.687C45.8361 103.687 46.1607 103.687 46.4921 103.671L71.5404 102.899C71.5806 102.902 71.621 102.902 71.6612 102.899C75.1133 102.472 81.6274 99.837 81.6446 92.9216C81.6446 91.2064 81.4927 89.3405 81.327 87.3656C80.7436 80.3764 80.0152 71.6818 86.0357 62.8845C88.7663 58.909 90.9065 53.4107 91.9249 47.2551Z" fill="#758963"/>
</svg>
