<svg width="116" height="116" viewBox="0 0 116 116" fill="none" xmlns="http://www.w3.org/2000/svg">
<g clip-path="url(#clip0_2_480)">
<path d="M69.04 76.1099C71.9817 77.2171 75.1075 77.7534 78.25 77.69C89.34 77.33 102.25 71.4499 116.71 59.0499C116.773 58.993 116.823 58.9235 116.857 58.846C116.892 58.7685 116.91 58.6847 116.91 58.5999C116.912 58.4602 116.862 58.3247 116.77 58.2199C116.666 58.1045 116.522 58.0338 116.367 58.0227C116.212 58.0115 116.059 58.0607 115.94 58.1599C97.6 73.8699 81.94 79.5399 69.47 75.0199C63.74 72.4899 60.61 68.7599 59.47 62.8999C61.59 67.3599 65.38 71.5599 73.21 72.7699C73.96 72.8299 74.7 72.8599 75.45 72.8599C88.45 72.8599 101.69 63.1499 114.85 43.9499C114.893 43.8864 114.923 43.8149 114.939 43.7396C114.954 43.6644 114.954 43.5868 114.939 43.5115C114.924 43.4361 114.895 43.3645 114.852 43.3007C114.809 43.2369 114.754 43.1822 114.69 43.1399C114.628 43.0949 114.557 43.063 114.482 43.0462C114.406 43.0293 114.329 43.0279 114.253 43.0419C114.177 43.0559 114.105 43.0851 114.041 43.1278C113.977 43.1704 113.922 43.2255 113.88 43.2899L113.76 43.4599C110.577 48.1625 107.04 52.6154 103.18 56.7799C97.3533 62.9666 91.56 67.2332 85.8 69.5799C81.8706 71.2359 77.6004 71.9219 73.35 71.5799C67.17 70.6299 63.18 67.8299 60.59 62.4599C62.1782 64.4263 64.1975 66.001 66.4916 67.0622C68.7856 68.1234 71.2931 68.6427 73.82 68.5799C74.6854 68.5778 75.5501 68.5277 76.41 68.4299C89.97 66.0299 100.99 53.0399 109.17 29.8299C109.18 29.7636 109.18 29.6963 109.17 29.63C109.17 29.5091 109.133 29.391 109.063 29.2924C108.993 29.1938 108.894 29.1195 108.78 29.0799C108.633 29.0287 108.471 29.0378 108.331 29.1052C108.19 29.1727 108.082 29.293 108.03 29.44C100.03 52.22 89.28 64.9499 76.22 67.2699C70 67.9499 65.41 66.2699 61.52 61.7599C64.3085 63.7797 67.6569 64.8808 71.1 64.9099C71.47 64.9099 71.85 64.9099 72.24 64.9099C74.3404 64.7445 76.4037 64.2624 78.36 63.4799C90.82 57.6399 98.11 42.2399 100.01 17.7099C100.021 17.555 99.9705 17.4019 99.8694 17.2839C99.7684 17.166 99.6248 17.0927 99.47 17.0799C99.393 17.0731 99.3154 17.0817 99.2418 17.1053C99.1682 17.1289 99.1 17.167 99.0413 17.2173C98.9826 17.2676 98.9346 17.3291 98.9 17.3983C98.8654 17.4674 98.845 17.5428 98.84 17.6199C96.97 41.6999 89.91 56.7699 77.9 62.3999C76.0167 63.1627 74.0262 63.6282 72 63.7799C68.5275 63.9602 65.0988 62.9397 62.29 60.8899C64.2135 61.5919 66.2426 61.9605 68.29 61.9799C72.1768 61.9003 75.9309 60.5517 78.98 58.1399C89.42 49.2499 92.44 32.5299 87.98 8.41994C87.9656 8.34375 87.9363 8.27111 87.8938 8.20625C87.8513 8.14139 87.7965 8.08553 87.7324 8.04188C87.6683 7.99823 87.5963 7.96764 87.5204 7.95186C87.4444 7.93607 87.3662 7.93541 87.29 7.9499C87.1382 7.97908 87.0039 8.0667 86.916 8.19386C86.8281 8.32103 86.7936 8.47764 86.82 8.62996L86.91 9.10994C91 31.4099 88.55 47.1699 79.66 55.9699C79.21 56.4199 78.73 56.8499 78.25 57.2599C73.2 60.9599 68.4 61.7999 62.77 59.8399C63.32 59.8399 63.87 59.9099 64.43 59.9099C68.92 59.9099 73.77 58.3599 78.18 52.9099C78.1819 52.8866 78.1819 52.8632 78.18 52.8399L78.26 52.7299C85.94 41.4599 84.51 24.6099 74.01 2.61995C73.9952 2.58244 73.9785 2.54568 73.96 2.5099C73.9268 2.4394 73.8799 2.37622 73.8221 2.32393C73.7644 2.27164 73.6968 2.23131 73.6234 2.20527C73.5499 2.17924 73.472 2.16802 73.3942 2.17225C73.3164 2.17649 73.2402 2.19609 73.17 2.22993C73.1007 2.26304 73.0387 2.30957 72.9876 2.36683C72.9364 2.4241 72.8971 2.49093 72.872 2.56349C72.8469 2.63605 72.8364 2.71287 72.8412 2.7895C72.846 2.86614 72.866 2.94105 72.9 3.0099C78.9 15.6299 81.95 26.4899 81.95 35.5199C81.95 42.0866 80.35 47.6699 77.15 52.2699C73.23 57.1499 68.81 59.2099 62.85 58.7599C66.9859 58.1212 70.7192 55.92 73.28 52.6099C74.3582 51.2029 75.2584 49.6679 75.96 48.0399C80.65 35.0999 74.96 19.0399 58.9 0.369948C58.7991 0.250837 58.655 0.176586 58.4995 0.163466C58.3439 0.150345 58.1895 0.199417 58.07 0.29994C57.9546 0.403683 57.8839 0.548075 57.8727 0.702833C57.8615 0.857592 57.9107 1.0107 58.01 1.12996C73.72 19.48 79.39 35.1299 74.87 47.5999C74.1647 49.2542 73.2434 50.8077 72.13 52.2199C69.7784 55.1037 66.4388 57.0106 62.76 57.57C67.22 55.45 71.41 51.6599 72.62 43.8299C72.62 43.6399 72.62 43.4599 72.62 43.2699V43.1799C73.39 29.6999 63.69 15.9499 43.75 2.28993C43.6221 2.20435 43.4658 2.17213 43.3145 2.20015C43.1632 2.22817 43.0288 2.31425 42.94 2.43995C42.8513 2.56863 42.8173 2.7272 42.8454 2.88093C42.8735 3.03467 42.9615 3.17096 43.09 3.2599C63.01 16.9099 72.53 30.5499 71.4 43.7699C70.45 49.9599 67.65 53.9499 62.28 56.5399C66.04 53.3399 69.11 48.5399 68.28 40.7099C68.2848 40.6868 68.2848 40.663 68.28 40.6399V40.4599V40.3999V40.31V40.1699V40.0799C65.54 26.8599 52.6 16.0799 29.81 8.07991C29.6641 8.02817 29.5036 8.03592 29.3633 8.10139C29.223 8.16687 29.1141 8.28486 29.06 8.42994C29.0332 8.50275 29.0214 8.58019 29.025 8.65767C29.0287 8.73515 29.0479 8.81107 29.0815 8.88099C29.1151 8.95092 29.1623 9.01343 29.2205 9.06477C29.2786 9.11612 29.3464 9.15528 29.42 9.17994C50.34 16.5599 62.79 26.1799 66.48 37.8499C66.8001 38.8834 67.0572 39.9354 67.25 41C67.93 47.22 66.25 51.7899 61.75 55.6799C63.7647 52.897 64.8622 49.5555 64.89 46.1199C64.8584 43.6293 64.3598 41.1667 63.42 38.8599C57.58 26.4099 42.19 19.1299 17.68 17.2299C17.603 17.2231 17.5254 17.2317 17.4518 17.2553C17.3782 17.2789 17.31 17.317 17.2513 17.3673C17.1926 17.4176 17.1446 17.4791 17.11 17.5483C17.0754 17.6174 17.055 17.6928 17.05 17.7699C17.0432 17.8469 17.0518 17.9245 17.0754 17.9981C17.099 18.0717 17.137 18.1399 17.1874 18.1986C17.2377 18.2573 17.2992 18.3053 17.3684 18.3399C17.4375 18.3745 17.5129 18.3949 17.59 18.3999C40.82 20.2099 55.66 26.8499 61.72 38.1199C61.7148 38.143 61.7148 38.1669 61.72 38.19L61.78 38.2999V38.0399V38.1199V38.1699L61.84 38.2999V38.3599V38.4199V38.4899V38.57V38.6499C62.7317 40.8118 63.2099 43.1217 63.25 45.4599C63.2077 48.6242 62.1877 51.698 60.33 54.2599C61.98 49.5999 62.26 43.9599 57.58 37.5799C48.72 27.0399 31.96 23.9899 7.77 28.5099C7.63495 28.5355 7.5131 28.6075 7.42547 28.7134C7.33783 28.8193 7.28992 28.9525 7.29 29.0899C7.2855 29.1264 7.2855 29.1634 7.29 29.1999C7.32147 29.3525 7.41107 29.4869 7.53985 29.5746C7.66862 29.6623 7.82648 29.6965 7.98 29.6699L8.65 29.5399L10.25 29.2599C11.15 29.1099 12.04 28.9599 12.92 28.8299C15.06 28.5099 17.1333 28.2566 19.14 28.07C35.78 26.5 47.88 29.4099 55.21 36.7299C55.69 37.2199 56.16 37.73 56.6 38.25C60.3 43.25 61.14 48.0999 59.18 53.7299C59.57 48.7999 58.39 43.28 52.18 38.31C40.94 30.48 24.05 31.8499 1.98 42.3699L1.76 42.4699C1.62018 42.537 1.5124 42.6565 1.46 42.8025C1.4076 42.9485 1.41478 43.1092 1.48 43.25C1.5122 43.3201 1.55807 43.3831 1.61494 43.4353C1.6718 43.4874 1.7385 43.5278 1.81115 43.5538C1.88379 43.5799 1.96091 43.5912 2.03799 43.5871C2.11506 43.583 2.19054 43.5636 2.26 43.5299C24.05 33.0999 40.63 31.6799 51.52 39.2699H51.57C56.41 43.1899 58.46 47.5999 58.01 53.5299C57.3554 49.3044 55.0725 45.5032 51.65 42.94C50.2969 41.9402 48.8341 41.0981 47.29 40.4299C46.72 40.2199 46.14 40.0299 45.55 39.8699C32.95 36.3099 17.55 42.2199 -0.280007 57.4599V57.5099C-0.339123 57.5589 -0.387716 57.6194 -0.422891 57.6876C-0.458065 57.7559 -0.479085 57.8305 -0.484689 57.9071C-0.490293 57.9837 -0.480378 58.0607 -0.455514 58.1333C-0.43065 58.206 -0.391357 58.2728 -0.340005 58.3299C-0.290909 58.3886 -0.230686 58.437 -0.16282 58.4722C-0.0949544 58.5075 -0.0207894 58.529 0.0554265 58.5355C0.131642 58.542 0.208391 58.5334 0.281257 58.5101C0.354122 58.4869 0.421674 58.4494 0.480002 58.3999C17.86 43.5099 32.82 37.6399 44.95 40.9099C45.63 41.0899 46.3 41.2999 46.95 41.5399C48.4324 42.1738 49.8353 42.9793 51.13 43.94C54.2563 46.2958 56.3377 49.7804 56.93 53.6499C54.8 49.1899 51.01 44.9999 43.18 43.7899C38.8896 43.4494 34.5789 44.1136 30.59 45.7299C20.95 49.4899 11.23 58.4799 1.59 72.5999C1.50387 72.7294 1.47135 72.8873 1.49934 73.0402C1.52732 73.1932 1.6136 73.3293 1.74 73.4199C1.83784 73.4848 1.95258 73.5196 2.07 73.5199C2.16569 73.5203 2.26009 73.4979 2.34533 73.4544C2.43057 73.4109 2.50417 73.3476 2.55999 73.2699C12 59.4899 21.44 50.68 30.74 46.94C34.636 45.3025 38.8662 44.6169 43.08 44.94C49.27 45.94 53.26 48.7 55.85 54.07C52.65 50.31 47.9 47.23 40.02 48.07C26.47 50.48 15.45 63.4699 7.27 86.6799C7.25499 86.7458 7.25499 86.8141 7.27 86.88C7.27028 87.0021 7.3091 87.1209 7.38093 87.2197C7.45275 87.3184 7.55391 87.3921 7.66999 87.4299C7.73296 87.4396 7.79702 87.4396 7.85999 87.4299C7.9819 87.4295 8.1008 87.392 8.20084 87.3223C8.30088 87.2526 8.37732 87.1541 8.41999 87.0399C16.42 64.2599 27.17 51.5299 40.23 49.2099C46.45 48.5199 51.03 50.2099 54.93 54.7099C50.86 51.9099 45.48 50.1699 38.09 53.0399C25.62 58.8699 18.34 74.27 16.44 98.81C16.4371 98.9588 16.4915 99.1031 16.592 99.2129C16.6926 99.3227 16.8315 99.3897 16.98 99.3999H17.03C17.1771 99.4003 17.3189 99.3447 17.4266 99.2445C17.5343 99.1442 17.5998 99.0067 17.61 98.8599C19.48 74.7799 26.53 59.6999 38.55 54.0799C44.39 51.8099 49.24 52.2399 54.17 55.5999C49.52 53.9399 43.87 53.6499 37.48 58.3299C32.2133 62.7699 28.82 69.1566 27.3 77.4899C25.78 85.8233 26.15 96.0433 28.41 108.15C28.4356 108.285 28.5076 108.407 28.6135 108.494C28.7194 108.582 28.8525 108.63 28.99 108.63H29.1C29.1762 108.616 29.2488 108.586 29.3137 108.544C29.3785 108.501 29.4344 108.446 29.478 108.382C29.5217 108.318 29.5523 108.246 29.568 108.17C29.5838 108.094 29.5845 108.016 29.57 107.94V107.78C27.3033 95.5799 26.97 85.3499 28.57 77.0899C30.0633 69.4299 33.2233 63.5299 38.05 59.3899L38.2 59.2699L38.41 59.1099C43.41 55.5499 48.13 54.75 53.68 56.69C48.75 56.3 43.22 57.48 38.26 63.69C34.91 68.49 33.26 74.3199 33.26 81.1399C33.26 90.3599 36.32 101.39 42.42 114.14C42.4677 114.24 42.5429 114.324 42.6368 114.382C42.7307 114.441 42.8394 114.471 42.95 114.47C43.0362 114.474 43.122 114.457 43.2 114.42C43.3017 114.374 43.3879 114.299 43.4482 114.205C43.5085 114.111 43.5404 114.002 43.54 113.89C43.5405 113.8 43.5199 113.711 43.48 113.63C42.4067 111.39 41.4267 109.2 40.54 107.06C32.85 88.49 32.41 74.14 39.22 64.38C43.14 59.53 47.55 57.4799 53.48 57.9299C48.62 58.8199 43.59 61.3899 40.39 68.6499V68.7299L40.3 69C35.95 81.7 41.53 97.3399 56.88 115.51L57.51 116.24C57.5651 116.302 57.6327 116.353 57.7086 116.387C57.7844 116.422 57.8667 116.44 57.95 116.44C58.0927 116.442 58.2312 116.392 58.34 116.3C58.4554 116.196 58.5261 116.052 58.5373 115.897C58.5485 115.742 58.4993 115.589 58.4 115.47C58.22 115.26 58.04 115.06 57.87 114.85C42.56 96.7699 37.07 81.34 41.54 69L41.6 68.8599C44.12 63.2299 47.85 60.1399 53.6 59.0399C49.14 61.1599 44.95 64.9499 43.74 72.7699C43.74 72.9599 43.74 73.1499 43.69 73.3299V73.44C42.91 86.92 52.62 100.67 72.55 114.34C72.6509 114.406 72.7693 114.441 72.89 114.44C72.9852 114.439 73.0788 114.415 73.1625 114.37C73.2462 114.325 73.3175 114.259 73.37 114.18C73.4556 114.052 73.4878 113.896 73.4598 113.744C73.4317 113.593 73.3457 113.459 73.22 113.37C54.03 100.47 44.49 87.0399 45.27 74.0399V73.9599C45.2748 73.9034 45.2748 73.8465 45.27 73.7899C45.27 73.6599 45.27 73.5399 45.27 73.4099V73.3399V73.2399C46.27 67.1799 49.05 63.24 54.36 60.69C51.528 62.9797 49.5371 66.1456 48.7 69.69C48.2138 71.9363 48.1056 74.248 48.38 76.5299C50.76 89.9299 63.48 100.85 86.19 109.01L86.99 109.29C87.0563 109.3 87.1237 109.3 87.19 109.29C87.3109 109.29 87.4289 109.253 87.5275 109.183C87.6261 109.113 87.7004 109.014 87.74 108.9C87.7912 108.753 87.7821 108.591 87.7147 108.451C87.6472 108.31 87.5269 108.202 87.38 108.15C64.6 100.15 51.87 89.3999 49.55 76.3399C49.2474 74.0396 49.3763 71.703 49.93 69.4499C50.7811 66.3822 52.5716 63.6581 55.05 61.6599C53.0321 64.445 51.9343 67.7907 51.91 71.2299C51.9416 73.7206 52.4402 76.1832 53.38 78.4899C59.21 90.9499 74.61 98.2399 99.15 100.14C99.2982 100.14 99.4411 100.085 99.5505 99.9852C99.6598 99.8851 99.7274 99.7476 99.74 99.5999C99.7403 99.4528 99.6848 99.311 99.5845 99.2033C99.4842 99.0956 99.3468 99.0301 99.2 99.0199C75.12 97.1499 60.04 90.0899 54.42 78.0799C53.5283 75.918 53.0501 73.6081 53.01 71.2699C53.0471 68.1047 54.0675 65.0294 55.93 62.4699C55.2281 64.3934 54.8594 66.4225 54.84 68.4699C54.9762 72.33 56.3663 76.0406 58.8 79.0399C65.01 86.4199 75.1 90.13 88.92 90.13C95.5307 90.0664 102.122 89.397 108.61 88.13C108.744 88.1026 108.865 88.0301 108.952 87.9246C109.04 87.8191 109.088 87.6869 109.09 87.5499C109.09 87.5499 109.09 87.48 109.09 87.44C109.076 87.3638 109.046 87.2911 109.004 87.2263C108.961 87.1614 108.906 87.1056 108.842 87.0619C108.778 87.0183 108.706 86.9877 108.63 86.9719C108.554 86.9561 108.476 86.9554 108.4 86.9699C84.66 91.4099 68.27 88.4899 59.73 78.3399C57.4794 75.5411 56.2109 72.0803 56.12 68.4899C56.1353 66.577 56.4734 64.6804 57.12 62.88C56.8542 65.3876 57.1667 67.9227 58.0334 70.2907C58.9002 72.6587 60.2982 74.7965 62.12 76.5399C62.7349 77.1512 63.3825 77.7287 64.06 78.2699L64.15 78.3399C68.9433 81.6733 74.73 83.3399 81.51 83.3399C90.72 83.3399 101.74 80.2899 114.51 74.1999C114.609 74.1513 114.693 74.0758 114.751 73.9821C114.809 73.8884 114.84 73.7803 114.84 73.6699C114.86 73.5844 114.86 73.4955 114.84 73.4099C114.806 73.3403 114.758 73.2781 114.7 73.2268C114.642 73.1756 114.574 73.1362 114.501 73.1112C114.428 73.0861 114.35 73.0758 114.273 73.0807C114.195 73.0856 114.12 73.1057 114.05 73.1399C92.28 83.5499 75.72 84.9699 64.84 77.3699C60.39 73.7999 58.29 69.81 58.29 64.63C58.29 64.13 58.31 63.6199 58.35 63.0999C59.22 67.8799 61.79 72.9099 69.04 76.1099Z" fill="white"/>
</g>
<defs>
<clipPath id="clip0_2_480">
<rect width="116.91" height="116.91" fill="white"/>
</clipPath>
</defs>
</svg>
