<svg width="402" height="218" viewBox="0 0 402 218" fill="none" xmlns="http://www.w3.org/2000/svg">
<g clip-path="url(#clip0_2_235)">
<path d="M53.64 97.2C52.64 97.03 51.9 96.82 51.1 96.76C49.1 96.58 47.1 95.96 45.03 97.19C43.3206 98.1306 41.3491 98.482 39.42 98.19C37.6308 98.1507 35.8407 98.2208 34.06 98.4C33.1748 98.4982 32.2789 98.4096 31.43 98.14C29.91 97.47 28.58 97.98 27.21 98.41C24.7055 99.2543 22.0511 99.5609 19.42 99.31C17.91 99.15 16.32 99.87 14.75 100.11C14.1342 100.216 13.5027 100.185 12.9 100.02C10.28 99.22 7.71004 98.27 5.09004 97.5C2.91004 96.86 2.09004 95.03 1.09004 93.31C-0.579958 90.59 0.140037 87.7 0.460037 84.92C0.650037 83.22 1.80004 81.65 2.46004 79.99C3.04004 78.49 3.53001 76.99 4.06001 75.42C4.14001 75.19 4.14003 74.86 4.30003 74.73C5.94003 73.48 5.86001 71.66 6.06001 69.88C6.26771 68.8167 6.60349 67.7825 7.06001 66.8C7.72001 65.01 8.37001 63.22 9.06001 61.45C10.06 59.08 10.98 56.72 12.06 54.39C12.5209 53.4101 13.0841 52.4816 13.74 51.62C14.8109 50.4005 15.8125 49.1218 16.74 47.79C17.6311 46.3936 18.7499 45.1565 20.05 44.13C21.76 42.61 22.42 40.13 24.83 39.13C26.27 38.5 27.24 36.87 28.58 35.93C31 34.23 33.4967 32.6367 36.07 31.15C37.86 30.15 39.82 29.38 41.68 28.47C42.16 28.24 42.54 27.81 43.01 27.54C43.5873 27.183 44.2007 26.888 44.84 26.66C45.6153 26.549 46.3809 26.3785 47.13 26.15C50.06 24.74 53.25 24.58 56.38 24.09C57.1961 23.8722 58.0242 23.7019 58.86 23.58C61.07 23.5 63.29 23.58 65.5 23.58C67.15 23.58 68.79 23.36 70.43 23.32C71.22 23.32 72.02 23.46 72.81 23.48C73.3728 23.4778 73.9346 23.431 74.49 23.34C74.78 23.34 75.05 23.12 75.33 23.07C76.907 22.7544 78.5043 22.5506 80.11 22.46C81.52 22.46 82.98 23.32 84.31 23.11C87.71 22.59 90.82 23.82 93.97 24.49C94.963 24.7007 95.9007 25.1175 96.7224 25.7135C97.5441 26.3096 98.2315 27.0715 98.74 27.95C99.93 30.05 101.28 32.08 102.25 34.28C103.13 36.28 103.55 38.43 104.25 40.5C104.9 42.4 104.43 44.27 104.39 46.17C104.39 49.1 103.39 51.75 102.78 54.51C102.64 55.18 101.99 55.74 101.57 56.35C100.51 57.89 99.41 59.41 98.4 60.98C97.75 61.98 96.78 62.78 96.74 64.19C96.74 64.65 95.47 65.01 95.36 65.53C94.96 67.53 93.5 68.65 92.27 69.98C90.9 71.48 89.4601 72.92 88.1001 74.42C87.4601 75.13 86.95 75.96 86.34 76.72C85.18 78.18 84.0401 79.72 82.7901 81.06C82.1427 81.6536 81.447 82.1922 80.71 82.67C78.41 84.45 76.05 86.15 73.88 88.07C73.44 88.45 73.53 89.67 73.68 90.44C73.9115 91.1968 74.2848 91.9027 74.78 92.52C75.68 93.83 76.68 95.09 77.58 96.41C78.85 98.27 80.1301 100.14 81.2901 102.08C81.7101 102.77 81.65 103.76 82.08 104.43C83.6146 106.787 85.5268 108.875 87.74 110.61C89.95 112.4 89.88 114.89 89.74 117.31C89.5772 118.626 89.2721 119.92 88.83 121.17C88.5867 122.261 88.1279 123.293 87.4805 124.205C86.8332 125.117 86.0102 125.89 85.06 126.48C84.0276 126.982 82.8398 127.061 81.75 126.7C78.83 125.7 75.75 124.82 73.47 122.51C72.31 121.31 70.66 120.51 70.19 118.59C69.96 117.59 68.88 116.91 68.19 116.08C66.95 114.59 65.74 113.08 64.46 111.61C63.77 110.82 62.99 110.08 62.22 109.35C61.22 108.35 60.09 107.52 59.15 106.49C58.6832 105.792 58.2815 105.052 57.95 104.28C56.49 101.87 55.02 99.47 53.64 97.2Z" fill="#D6EFA4"/>
<path d="M296.31 137.34C295.47 136.06 294.47 134.54 293.47 133C292.94 132.18 292.47 131.33 291.88 130.53C290.82 129.05 289.72 127.6 288.63 126.13C287.948 125.301 287.32 124.429 286.75 123.52C285.66 121.52 284.75 119.41 283.65 117.36C283.202 116.724 282.801 116.055 282.45 115.36C281.845 113.577 281.344 111.761 280.95 109.92C280.243 106.518 280.318 102.999 281.17 99.63C281.62 97.8 281.99 95.95 282.51 94.14C282.66 93.61 283.25 93.23 283.51 92.73C284.27 91.43 284.92 90.07 285.71 88.79C286.265 87.9807 286.873 87.209 287.53 86.48C289.3 84.37 291.03 82.23 293.65 81.08C294.438 80.7588 295.168 80.3094 295.81 79.75C296.94 78.69 298.07 77.97 299.68 78.75C300.024 78.8108 300.379 78.747 300.68 78.57C301.294 78.3226 301.96 78.2288 302.618 78.2968C303.277 78.3647 303.909 78.5924 304.46 78.96C305.94 79.73 307.81 79.71 309.46 80.14C311.75 80.72 314.01 81.39 316.29 82.03C316.38 82.03 316.48 82.15 316.57 82.14C318.97 81.71 320.57 83.37 322.47 84.31C323.449 84.6814 324.451 84.9887 325.47 85.23C326.068 85.458 326.641 85.7461 327.18 86.09C327.782 86.5552 328.429 86.9605 329.11 87.3C332.2 88.3 334.69 90.3 337.22 92.22C341.15 95.22 344.55 98.86 348.56 101.8C350.17 102.98 351.03 105.15 352.25 106.8C352.995 107.665 353.683 108.576 354.31 109.53C355.49 111.72 357.14 113.64 357.83 116.11C358.18 117.37 358.91 118.52 359.32 119.77C359.92 121.63 360.39 123.53 360.89 125.43C361.55 127.93 362.28 130.43 362.79 132.94C363.25 135.26 363.22 137.68 363.79 139.94C364.45 142.46 363.55 144.73 363.29 147.1C363.15 148.43 363.29 149.78 363.29 151.1C363.243 151.438 363.173 151.772 363.08 152.1C362.85 153.54 362.66 154.98 362.41 156.42C362.296 156.948 362.143 157.466 361.95 157.97C361.747 158.732 361.486 159.478 361.17 160.2C360.656 161.298 360.058 162.355 359.38 163.36C358.65 164.36 357.76 165.36 356.95 166.31C356.76 166.54 356.64 166.89 356.4 166.99C355 167.58 353.57 168.09 352.17 168.67C351.41 169.141 350.584 169.498 349.72 169.73C347.619 169.865 345.511 169.865 343.41 169.73C341.911 169.642 340.423 169.428 338.96 169.09C337.63 168.78 336.36 168.19 335.04 167.85C333.72 167.51 332.39 167.43 331.04 167.13C330.107 166.774 329.155 166.467 328.19 166.21C325.06 165.82 322.89 163.77 320.52 162.04C320.31 161.89 319.94 161.99 319.67 161.9C318.73 161.6 317.54 161.83 317.11 160.49C317 160.16 316.31 160 315.86 159.81C314.982 159.525 314.174 159.06 313.485 158.445C312.796 157.831 312.243 157.08 311.86 156.24C311.09 154.4 309.64 154.24 307.86 155.41C305.73 156.83 303.47 158.04 301.3 159.41C299.47 160.56 297.68 161.8 295.87 162.99C295.47 163.25 295.02 163.65 294.6 163.64C290.93 163.51 288.27 166.08 285.07 167.19C283.83 167.62 282.85 168.77 281.72 169.54C281.382 169.727 281.013 169.849 280.63 169.9C280.293 169.906 279.958 169.95 279.63 170.03C278.41 170.59 277.25 171.3 276 171.79C273.84 172.63 271.34 170.73 271.25 168.39C271.135 167.367 270.903 166.361 270.56 165.39C270.323 164.836 270.271 164.221 270.412 163.636C270.552 163.05 270.878 162.526 271.34 162.14C271.805 161.564 272.18 160.92 272.45 160.23C273.1 159.14 273.74 158.03 274.45 156.98C275.367 155.57 276.369 154.218 277.45 152.93C278.553 151.784 279.722 150.702 280.95 149.69C281.69 149.04 282.46 148.43 283.22 147.79C284.78 146.47 286.32 145.11 287.91 143.79C290.64 141.79 293.31 139.72 296.31 137.34Z" fill="#D6EFA4"/>
<path d="M185.73 81.99C185.1 83.61 184.55 85.07 183.96 86.51C183.665 87.3543 183.276 88.1627 182.8 88.92C181.48 90.74 181.24 92.92 180.56 94.92C180.115 95.8355 179.539 96.6811 178.85 97.43C178.77 97.54 178.47 97.56 178.47 97.63C178.47 99.38 176.77 100.17 176.19 101.53C175.4 103.35 174.91 105.14 173.03 106.39C171.85 107.17 171.29 108.87 170.43 110.15C170.25 110.42 170.04 110.8 169.77 110.88C167.71 111.47 165.63 112.42 163.55 112.46C160.17 112.53 159.09 112.04 158.55 109.46C158.44 108.95 158.71 108.37 158.65 107.83C158.52 106.71 158.28 105.61 158.1 104.49C157.959 104.079 157.898 103.644 157.92 103.21C158.25 101.62 158.79 100.06 159.04 98.46C159.41 96.18 159.56 93.87 159.88 91.58C160.03 90.47 160.35 89.38 160.6 88.28C160.89 86.99 161.17 85.7 161.49 84.42C162.04 82.27 162.56 80.1 163.21 77.98C163.86 75.86 164.83 73.91 165.35 71.81C165.71 70.35 165.66 68.81 166.35 67.41C166.66 66.79 165.82 65.33 165.16 64.55C163.84 62.99 162.16 61.71 160.84 60.18C159.3 58.44 158.06 56.41 156.44 54.75C154.09 52.35 151.54 50.13 149.02 47.89C148.08 47.06 146.77 46.56 146.02 45.61C144.77 44.06 143.84 42.25 142.74 40.61C141.96 39.41 141.09 38.25 140.31 37.04C140.097 36.6015 139.92 36.1467 139.78 35.68C139.37 34.68 138.92 33.63 138.53 32.58C138.148 31.7411 137.872 30.8575 137.71 29.95C137.39 26.95 137.82 23.95 137.86 20.95C137.86 18.35 139.39 16.64 140.53 14.78C141.21 13.67 142.98 13.22 144.28 12.5C144.93 12.13 145.68 11.91 146.28 11.5C146.787 11.0881 147.381 10.7982 148.017 10.6525C148.653 10.5069 149.315 10.5094 149.95 10.66C150.34 10.7246 150.739 10.7041 151.12 10.6C154.73 9.91998 158.32 9.14998 161.94 8.59998C162.869 8.60964 163.792 8.75449 164.68 9.02997C165.211 9.12751 165.75 9.17107 166.29 9.15998C167.11 9.15998 168 8.69998 168.72 8.90998C171.27 9.67998 174.06 8.53998 176.58 10.26C177.67 11.02 179.58 10.61 181.01 10.87C181.95 11.04 182.84 11.52 183.76 11.78C185.23 12.19 186.71 12.55 188.18 12.92C188.55 13.01 189.07 12.92 189.29 13.18C190.93 14.87 193.13 15.54 195.12 16.6C196.18 17.231 197.135 18.0239 197.95 18.95C199.472 20.5021 200.898 22.1451 202.22 23.87C204 26.3 205.59 28.87 207.22 31.42C208.225 32.9328 209.123 34.5133 209.91 36.15C210.494 37.6531 211.002 39.1851 211.43 40.74C211.938 41.8329 212.353 42.967 212.67 44.13C212.95 45.98 213.85 47.59 214.37 49.34C214.99 51.34 215.52 53.45 216.07 55.51C216.44 56.89 216.78 58.27 217.13 59.65C217.18 59.84 217.13 60.11 217.25 60.23C219.58 62.52 218.99 65.77 219.88 68.53C220.24 69.64 219.7 71.03 219.55 72.29C219.55 72.48 219.36 72.68 219.41 72.83C220.48 76.25 219.46 79.44 218.34 82.61C218.266 82.7975 218.236 82.9991 218.25 83.2C218.5 85.97 216.35 87.48 214.94 89.35C214.349 89.9607 213.676 90.4858 212.94 90.91C212.82 91 212.64 91.09 212.61 91.21C211.97 94.11 209.52 93.73 207.68 93.48C204.427 93.107 201.282 92.087 198.43 90.48C196.43 89.33 194.33 88.48 192.43 87.2C191.12 86.32 190.15 84.93 188.92 83.9C187.902 83.1905 186.836 82.5523 185.73 81.99Z" fill="#D6EFA4"/>
<path d="M397.42 52.01L400.86 58.72C400.91 58.81 401.03 58.92 401.01 58.98C400.5 60.4 401.78 60.92 402.42 61.76C404.12 64.01 404.84 66.76 406.04 69.22C407.15 71.52 407.5 74.07 409.04 76.3C410.24 78.07 411.47 80.19 411.23 82.66C411.262 83.2018 411.477 83.7167 411.84 84.12C413.22 85.89 413.78 87.66 412.29 89.67C411.64 90.55 411.56 91.96 410.05 92C408.05 92 405.89 92.75 403.98 91.36C403.736 91.1849 403.44 91.0968 403.14 91.11C401.97 91.2 401.54 90.45 401.25 89.53C401.056 88.759 400.705 88.0366 400.218 87.4084C399.73 86.7801 399.118 86.2597 398.42 85.88C397.78 85.53 397.49 84.53 397.01 83.88C396.07 82.57 395.08 81.3 394.2 79.96C393.8 79.36 393.71 78.56 393.31 77.96C392.23 76.35 391.49 74.46 390.31 73.02C389.01 71.42 387.78 69.58 385.7 68.55C384.7 68.06 384.26 66.45 383.41 65.48C383.203 65.283 382.95 65.1419 382.673 65.0702C382.397 64.9985 382.106 64.9984 381.83 65.07C379.03 66.78 376.31 68.61 373.55 70.4C373.024 70.6786 372.559 71.059 372.181 71.5191C371.803 71.9792 371.521 72.5098 371.35 73.08C371.09 74.08 370.14 74.41 369.35 74.97C367.42 76.28 364.74 76.13 363.26 78.25C362.98 78.64 362.26 78.71 361.81 78.98C361.167 79.47 360.469 79.8828 359.73 80.21C358.634 80.5631 357.477 80.6923 356.33 80.59C353.963 80.1984 351.625 79.6505 349.33 78.95C348.71 78.76 348.33 77.88 347.8 77.31C346.544 76.0998 345.421 74.7588 344.45 73.31C342.92 70.46 341.99 67.4 342.86 64.07C342.925 63.5922 342.925 63.1078 342.86 62.63C342.78 59.95 342.53 57.27 342.66 54.63C342.89 52.5038 343.247 50.3934 343.73 48.31C343.74 48.1101 343.74 47.9099 343.73 47.71C343.78 46.34 343.27 44.94 344.41 43.65C344.85 43.16 344.63 42.11 344.82 41.33C345.019 40.5268 345.273 39.7383 345.58 38.97C346.22 37.36 346.86 35.74 347.58 34.16C348.2 32.83 348.91 31.53 349.63 30.25C350.43 28.8 351.63 27.47 352.03 25.92C352.63 23.68 354.48 22.64 355.78 21.08C356.45 20.28 357.21 19.54 357.95 18.81C358.756 17.9835 359.607 17.2023 360.5 16.47C361.9 15.39 363.5 14.47 364.81 13.36C366.12 12.25 367.02 11.11 368.17 10.04C368.749 9.35752 369.483 8.82278 370.31 8.47999C372.07 8.04999 373.24 6.92999 374.59 5.84999C375.94 4.76999 378.01 4.20999 379.59 3.13999C381.274 1.87655 383.347 1.24001 385.45 1.33999C386.335 1.20127 387.207 0.993981 388.06 0.719993C390.53 0.409993 392.9 -0.450007 395.54 0.229993C397.74 0.789993 400.12 0.639993 402.42 0.809993C402.57 0.808404 402.719 0.846335 402.85 0.919994C404.627 2.30219 406.329 3.77759 407.95 5.33999C410.45 7.94999 410.8 11.54 411.87 14.79C412.172 15.5228 412.53 16.2315 412.94 16.91C413.13 17.1975 413.268 17.5155 413.35 17.85C413.602 21.0972 413.558 24.3606 413.22 27.6C413.211 27.6986 413.191 27.7958 413.16 27.89C412.25 30.03 411.38 32.18 410.41 34.28C409.553 36.3321 408.55 38.3205 407.41 40.23C406.31 41.91 404.75 43.29 403.48 44.88C402.21 46.47 401.31 47.96 400.13 49.43C399.277 50.3409 398.372 51.2023 397.42 52.01Z" fill="#D6EFA4"/>
<path d="M206.6 177.12L210.04 183.83C210.04 183.92 210.2 184.03 210.18 184.09C209.68 185.52 210.95 186.03 211.59 186.88C213.3 189.12 214.02 191.88 215.22 194.33C216.33 196.64 216.67 199.18 218.22 201.41C219.42 203.18 220.64 205.3 220.41 207.77C220.444 208.312 220.655 208.829 221.01 209.24C222.4 211 223.01 212.77 221.47 214.78C220.82 215.66 220.73 217.07 219.23 217.11C217.23 217.11 215.07 217.86 213.16 216.47C212.91 216.301 212.612 216.217 212.31 216.23C211.15 216.31 210.72 215.56 210.43 214.64C210.233 213.87 209.88 213.15 209.393 212.522C208.907 211.894 208.296 211.373 207.6 210.99C206.96 210.64 206.67 209.65 206.18 208.99C205.25 207.68 204.26 206.41 203.38 205.06C202.98 204.46 202.88 203.66 202.48 203.06C201.4 201.45 200.67 199.55 199.48 198.12C198.18 196.51 196.95 194.67 194.86 193.65C193.86 193.15 193.43 191.54 192.58 190.57C192.372 190.375 192.118 190.236 191.842 190.164C191.566 190.093 191.277 190.091 191 190.16C188.2 191.87 185.47 193.71 182.72 195.49C181.657 196.059 180.862 197.026 180.51 198.18C180.25 199.18 179.31 199.5 178.51 200.06C176.58 201.37 173.9 201.22 172.42 203.34C172.14 203.73 171.42 203.8 170.97 204.07C170.319 204.58 169.607 205.007 168.85 205.34C167.756 205.702 166.597 205.832 165.45 205.72C163.082 205.334 160.743 204.786 158.45 204.08C157.83 203.89 157.45 203.02 156.92 202.44C155.664 201.23 154.541 199.889 153.57 198.44C152.03 195.6 151.11 192.53 151.98 189.2C152.045 188.722 152.045 188.238 151.98 187.76C151.9 185.08 151.64 182.4 151.78 179.76C152.01 177.634 152.364 175.524 152.84 173.44C152.855 173.24 152.855 173.04 152.84 172.84C152.84 171.47 152.38 170.06 153.52 168.78C153.96 168.28 153.74 167.23 153.92 166.46C154.121 165.656 154.378 164.868 154.69 164.1C155.33 162.48 155.97 160.86 156.69 159.29C157.31 157.95 158.02 156.66 158.69 155.37C159.49 153.92 160.69 152.59 161.09 151.05C161.69 148.81 163.54 147.76 164.84 146.2C166.315 144.572 167.888 143.036 169.55 141.6C170.96 140.51 172.55 139.6 173.87 138.49C175.19 137.38 176.08 136.24 177.23 135.16C177.808 134.483 178.538 133.952 179.36 133.61C181.13 133.18 182.3 132.06 183.65 130.97C185 129.88 187.07 129.34 188.65 128.26C190.353 127.016 192.435 126.401 194.54 126.52C195.426 126.386 196.299 126.179 197.15 125.9C199.62 125.59 201.99 124.74 204.63 125.41C206.83 125.97 209.21 125.82 211.51 125.99C211.662 125.988 211.811 126.03 211.94 126.11C213.683 127.466 215.352 128.915 216.94 130.45C219.44 133.05 219.78 136.64 220.86 139.89C221.16 140.627 221.518 141.339 221.93 142.02C222.12 142.304 222.258 142.619 222.34 142.95C222.592 146.197 222.548 149.461 222.21 152.7C222.202 152.803 222.179 152.904 222.14 153C221.23 155.13 220.37 157.28 219.39 159.39C218.531 161.438 217.528 163.423 216.39 165.33C215.29 167.01 213.72 168.39 212.46 169.98C211.2 171.57 210.29 173.07 209.11 174.54C208.321 175.445 207.483 176.307 206.6 177.12Z" fill="#D6EFA4"/>
</g>
<defs>
<clipPath id="clip0_2_235">
<rect width="413.48" height="217.33" fill="white"/>
</clipPath>
</defs>
</svg>
