<svg width="105" height="105" viewBox="0 0 105 105" fill="none" xmlns="http://www.w3.org/2000/svg">
<g clip-path="url(#clip0_2_399)">
<path d="M53.65 74.78C52.65 74.61 51.9 74.41 51.11 74.34C49.11 74.17 47.11 73.54 45.04 74.78C43.3306 75.7206 41.3591 76.072 39.43 75.78C37.6405 75.7391 35.8502 75.8125 34.07 76C33.1841 76.0949 32.2881 76.0029 31.44 75.73C29.92 75.07 28.59 75.57 27.22 76C24.7165 76.849 22.0611 77.1558 19.43 76.9C17.92 76.74 16.33 77.46 14.76 77.7C14.1408 77.8056 13.5061 77.7748 12.9 77.61C10.29 76.81 7.71998 75.87 5.09998 75.09C2.91998 74.45 2.09998 72.62 1.09998 70.91C-0.580021 68.19 0.0999745 65.29 0.469975 62.51C0.659975 60.82 1.80997 59.24 2.46997 57.58C3.05997 56.08 3.55002 54.58 4.08002 53.01C4.16002 52.78 4.16001 52.45 4.32001 52.32C5.96001 51.07 5.88002 49.26 6.08002 47.47C6.28617 46.4063 6.62201 45.3719 7.08002 44.39C7.74002 42.6 8.39002 40.81 9.08002 39.05C10.08 36.68 11 34.31 12.08 31.98C12.5409 31.0001 13.1041 30.0716 13.76 29.21C14.8356 27.9944 15.8374 26.7155 16.76 25.38C17.651 23.9836 18.7699 22.7464 20.07 21.72C21.78 20.2 22.44 17.72 24.85 16.72C26.29 16.09 27.25 14.47 28.6 13.52C31.02 11.83 33.52 10.22 36.09 8.73999C37.88 7.73999 39.84 6.97 41.7 6.06C42.18 5.83 42.56 5.4 43.03 5.13C43.6053 4.77204 44.2192 4.4802 44.86 4.26001C45.6335 4.13944 46.3985 3.96907 47.15 3.75C50.08 2.33 53.27 2.16999 56.39 1.67999C57.2097 1.46313 58.041 1.29288 58.88 1.17001C61.09 1.09001 63.31 1.17 65.52 1.12C67.17 1.12 68.81 0.900016 70.45 0.860016C71.24 0.860016 72.03 1.00002 72.83 1.02002C73.3954 1.02823 73.9605 0.991432 74.52 0.910004C74.81 0.910004 75.08 0.689994 75.36 0.649994C76.9352 0.323973 78.5334 0.120049 80.14 0.0400085C81.55 0.0400085 83.01 0.889993 84.34 0.679993C87.74 0.159993 90.85 1.39001 94 2.07001C94.9933 2.27655 95.9317 2.69066 96.7537 3.28522C97.5758 3.87977 98.2629 4.64136 98.77 5.52002C99.95 7.63002 101.31 9.66001 102.28 11.85C103.16 13.85 103.58 16 104.28 18.07C104.93 19.97 104.46 21.84 104.42 23.74C104.37 26.67 103.42 29.32 102.81 32.09C102.67 32.75 102.02 33.31 101.6 33.92C100.54 35.46 99.44 36.98 98.43 38.55C97.78 39.55 96.81 40.36 96.77 41.77C96.77 42.22 95.5 42.58 95.39 43.1C94.99 45.1 93.53 46.22 92.3 47.56C91.07 48.9 89.49 50.49 88.13 51.99C87.49 52.71 86.97 53.53 86.37 54.29C85.21 55.75 84.07 57.29 82.82 58.63C82.1752 59.2265 81.4791 59.7653 80.74 60.24C78.44 62.02 76.08 63.73 73.91 65.64C73.47 66.03 73.56 67.24 73.71 68.01C73.9415 68.7668 74.3147 69.4727 74.81 70.09C75.71 71.41 76.71 72.66 77.61 73.98C78.88 75.85 80.16 77.72 81.32 79.65C81.74 80.34 81.68 81.33 82.11 82.01C83.6472 84.3647 85.5592 86.4522 87.77 88.19C89.98 89.97 89.91 92.46 89.77 94.88C89.6072 96.1958 89.302 97.49 88.86 98.74C88.6146 99.8307 88.1549 100.862 87.5078 101.773C86.8606 102.685 86.0388 103.459 85.09 104.05C84.0577 104.552 82.8698 104.631 81.78 104.27C78.86 103.22 75.73 102.39 73.5 100.09C72.34 98.89 70.68 98.09 70.22 96.16C69.99 95.22 68.91 94.48 68.22 93.65C66.98 92.16 65.76 90.65 64.49 89.19C63.8 88.39 63.02 87.66 62.25 86.93C61.25 85.93 60.12 85.09 59.18 84.06C58.711 83.3805 58.3028 82.6611 57.96 81.91C56.5 79.45 55.03 77.05 53.65 74.78Z" fill="#D6EFA4"/>
</g>
<defs>
<clipPath id="clip0_2_399">
<rect width="104.58" height="104.46" fill="white"/>
</clipPath>
</defs>
</svg>
