<svg width="102" height="76" viewBox="0 0 102 76" fill="none" xmlns="http://www.w3.org/2000/svg">
<g clip-path="url(#clip0_2_255)">
<path d="M93.1477 42.2629C93.1477 42.1712 93.0408 42.0337 92.9798 42.0337C92.3998 42.0337 91.8199 42.1407 91.2399 42.2324C91.1727 42.2497 91.1102 42.282 91.0573 42.327C91.0044 42.372 90.9625 42.4285 90.9346 42.4921C90.431 43.638 89.9578 44.784 89.4084 45.93C89.0421 46.7703 88.6299 47.5802 88.3247 48.4358C88.1263 48.9706 88.0805 49.5665 87.9127 50.1318C87.7473 49.9176 87.6418 49.6632 87.6069 49.3947C87.5721 49.1262 87.6091 48.8533 87.7142 48.6039C88.0042 47.7329 88.3705 46.8773 88.7215 46.0216C88.9352 45.5123 89.1642 45.003 89.4084 44.4937C89.6983 43.8978 90.0036 43.2866 90.3241 42.6907C90.3241 42.5685 90.5378 42.4921 90.6599 42.3851V42.2171C89.9273 42.2171 89.1336 42.3087 88.4621 42.4157C88.34 42.4157 88.2026 42.706 88.1568 42.8741C88.0042 43.6075 87.8821 44.402 87.7447 45.0743C87.5158 46.1897 87.2716 47.3204 87.0274 48.4358C86.9978 48.6982 86.9519 48.9584 86.89 49.215C86.8187 49.3771 86.7022 49.5151 86.5543 49.6123C86.1727 48.3441 86.829 47.2287 86.9511 46.0369C87.1385 44.8192 87.4035 43.6147 87.7447 42.4309C87.4297 42.4086 87.1135 42.4086 86.7984 42.4309C86.7247 42.4479 86.6565 42.4835 86.6004 42.5343C86.5443 42.5851 86.5021 42.6495 86.478 42.7213C86.3711 43.088 86.3253 43.4852 86.249 43.8672C85.9895 45.1507 85.7453 46.4189 85.4706 47.7024C85.4504 47.7664 85.4168 47.8254 85.372 47.8755C85.3273 47.9255 85.2725 47.9655 85.2111 47.9927C84.7227 46.0369 85.7453 44.3562 86.0811 42.5074C85.6439 42.4846 85.2058 42.4846 84.7686 42.5074C84.6465 42.5074 84.4633 42.7977 84.4633 42.9505C84.4633 43.3325 84.6311 43.6992 84.6006 44.0659C84.509 45.2424 84.3717 46.4189 84.2343 47.5954C84.1992 48.0123 84.1329 48.426 84.0359 48.833C84.0359 48.9858 83.8375 49.1234 83.6543 49.2303C83.6543 46.9842 84.3717 44.7993 84.0512 42.5532H83.227L82.3723 42.4615C82.9734 44.709 83.0775 47.0607 82.6775 49.3526C82.0823 47.1371 82.7844 44.7687 82.0671 42.599H81.716C80.6162 42.5568 79.5201 42.4445 78.4345 42.2629C77.496 42.0465 76.5884 41.7128 75.733 41.2697C75.2791 40.9452 74.882 40.5476 74.5579 40.0932C74.0237 39.5126 73.4589 38.9472 72.9552 38.3361C72.661 37.9692 72.4196 37.5629 72.2379 37.129C71.9534 36.4477 71.7137 35.7484 71.5205 35.0357C71.4433 34.7676 71.441 34.4835 71.5136 34.2142C71.5863 33.9448 71.7312 33.7005 71.9327 33.5078C72.0548 33.4008 72.3142 33.4161 72.5126 33.3702C72.7111 33.3244 72.5126 33.7064 72.5126 33.8897C72.3951 34.3067 72.3588 34.7425 72.4058 35.1732C72.6345 35.8509 72.9151 36.5099 73.2452 37.1443C73.2987 37.3678 73.3809 37.5835 73.4895 37.786C73.9168 38.275 74.3747 38.7486 74.8173 39.2375C75.089 39.4812 75.3345 39.7526 75.5499 40.0474C75.9595 40.593 76.5398 40.9857 77.1983 41.1628C77.8142 41.4872 78.4889 41.6846 79.1824 41.7434C80.6159 41.914 82.0631 41.9396 83.5017 41.8198C84.3301 41.7662 85.1611 41.7662 85.9896 41.8198C87.18 41.8198 88.3704 41.6364 89.5457 41.5448C89.774 41.522 90.0041 41.522 90.2325 41.5448C91.5129 41.544 92.7871 41.364 94.0177 41.01C95.0708 40.8725 96.1239 40.7655 97.1465 40.5516C98.1458 40.324 99.1297 40.0331 100.092 39.6807C100.495 39.4688 100.816 39.1283 101.004 38.7132C101.192 38.298 101.237 37.8319 101.13 37.3887C100.835 36.2288 100.228 35.1719 99.3748 34.3329C98.692 33.5703 97.9577 32.8555 97.177 32.1937C96.3775 31.4802 95.4775 30.8881 94.506 30.4366C93.6055 30.131 92.7814 29.6115 91.9114 29.2448C91.4195 29.037 90.9083 28.8783 90.3852 28.7712C89.9353 28.6664 89.4722 28.6303 89.0115 28.6642C88.4603 28.7729 87.9151 28.9106 87.3784 29.0767C86.5314 29.365 85.6641 29.5897 84.7837 29.749C83.8971 29.8637 82.9994 29.8637 82.1128 29.749C81.277 29.7218 80.4463 29.8892 79.6861 30.238C78.984 30.4519 78.2819 30.6505 77.5951 30.8797C76.3283 31.277 75.0767 31.6895 73.8252 32.1173C73.2066 32.3141 72.6044 32.5593 72.0242 32.8507C70.6964 33.5842 69.3685 34.3787 68.1017 35.1274C66.8349 35.8761 66.0565 36.6553 65.0492 37.3429C64.3443 37.9011 63.7856 38.6226 63.4213 39.4451C63.057 40.2676 62.8981 41.1665 62.9582 42.0643C62.9582 42.5379 63.1872 42.9963 63.2025 43.4852C63.2025 44.5242 63.2025 45.5632 63.2941 46.5411C63.2557 46.8762 63.2557 47.2145 63.2941 47.5496C63.349 47.6698 63.4315 47.7754 63.535 47.8577C63.6384 47.9401 63.7598 47.9967 63.8892 48.0232C64.321 48.0338 64.7456 48.136 65.135 48.323C65.5244 48.51 65.8697 48.7776 66.1482 49.1081C66.4839 49.4748 66.9723 49.7651 67.1555 50.1929C67.2835 50.3813 67.3708 50.5945 67.4117 50.8186C67.4527 51.0428 67.4464 51.273 67.3932 51.4945C67.34 51.7161 67.2411 51.9241 67.1029 52.1052C66.9647 52.2862 66.7903 52.4364 66.5907 52.546C66.1267 52.8818 65.6112 53.1398 65.0645 53.31C64.2194 53.6584 63.3462 53.9343 62.4545 54.135C62.1625 54.2092 61.8887 54.3424 61.6499 54.5263C61.411 54.7102 61.2123 54.9411 61.0657 55.2046C60.976 55.327 60.8736 55.4397 60.7604 55.5407C60.0342 56.1091 59.5011 56.8882 59.2342 57.7715C59.0357 58.4744 58.7458 59.1314 58.6084 59.8343C58.4737 60.5032 58.4072 61.184 58.41 61.8664C58.41 62.9818 58.5321 64.0972 58.5932 65.2126C58.5932 66.0071 58.5931 66.7406 58.6694 67.5962C58.7458 68.4519 58.9289 69.2464 58.9747 70.0715C59.0284 71.0451 58.9977 72.0215 58.8831 72.9899C58.8831 73.3107 58.3489 73.6011 57.9979 73.8303C57.0605 74.3991 56.0252 74.7877 54.9454 74.9762C54.4812 75.081 54.0011 75.0931 53.5323 75.0118C53.0635 74.9306 52.6153 74.7575 52.2134 74.5025C51.4527 75.1432 50.5045 75.5186 49.5119 75.5721C48.1036 75.5928 46.7078 75.3061 45.4215 74.7317C44.8363 74.5313 44.2736 74.2701 43.7427 73.9525C43.0559 73.5094 42.4453 72.944 41.8043 72.4245C40.631 71.2276 39.3484 70.1431 37.9734 69.1853C37.2797 68.7261 36.6216 68.2153 36.0045 67.6573C35.2625 67.1984 34.5535 66.6878 33.883 66.1294C33.0625 65.2954 32.2928 64.4127 31.5783 63.4861C30.9526 62.7068 30.3574 61.9581 29.8079 61.1024C29.2584 60.2468 28.9837 59.6968 28.5564 58.9939C28.3732 58.6883 28.1595 58.3827 27.9458 58.0924C27.546 57.4715 27.0968 56.8839 26.6027 56.3353C26.2304 56.0408 25.8129 55.8086 25.3664 55.6477C25.107 55.5255 24.8017 55.4643 24.5423 55.3268C23.7639 54.9295 23.016 54.5017 22.2529 54.0892C20.9403 53.371 19.5666 52.7293 18.3151 51.9042C16.8888 50.9232 15.5554 49.8134 14.3316 48.5886C13.5887 47.9437 12.7979 47.3562 11.9659 46.8314C11.5691 46.5411 11.2027 46.205 10.7907 45.9605C10.0886 45.548 9.26444 45.2118 8.63867 44.784C7.69736 44.397 6.66941 44.2703 5.66245 44.4173H4.82302L1.32782 44.5701C1.10294 44.5773 0.881569 44.5132 0.695205 44.387C0.508841 44.2608 0.367007 44.0789 0.289978 43.8672C0.078558 43.4045 -0.0308495 42.9016 -0.0308495 42.3928C-0.0308495 41.8839 0.078558 41.381 0.289978 40.9183C0.62279 40.0394 1.15862 39.2518 1.85359 38.6198C2.54857 37.9877 3.38298 37.5292 4.28877 37.2818C5.19412 37.0912 6.11242 36.9686 7.03602 36.9151C7.96046 36.835 8.8438 36.4961 9.58495 35.9372C10.9608 34.895 12.4635 34.0325 14.0569 33.3702C14.7742 33.0952 15.5831 32.8966 16.1326 32.7132C15.5068 32.5146 14.7437 32.3771 14.0569 32.0868C12.6151 31.5339 11.4477 30.4366 10.8059 29.0309C10.4052 28.1621 10.1279 27.2415 9.98179 26.2958C9.89025 25.3456 9.89025 24.3888 9.98179 23.4386C10.0196 22.9998 10.0962 22.5651 10.2107 22.1398C10.4309 21.0544 10.7476 19.9908 11.1569 18.9617C11.7626 17.7722 12.4617 16.6328 13.2479 15.5544C13.8432 14.6835 14.5147 13.8584 15.1863 13.0333C16.2246 11.6807 17.4182 10.455 18.7425 9.38153C19.6277 8.69396 20.4671 7.85358 21.3676 7.27296C22.2681 6.69234 22.9855 6.26451 23.7792 5.74501C24.5728 5.22551 25.3054 4.67545 26.1143 4.21707C27.3506 3.56005 28.6174 2.90305 29.9147 2.36827C31.2121 1.83349 32.4635 1.49731 33.7456 1.10005C34.7682 0.794458 35.806 0.580549 36.7981 0.244401C37.8149 -0.042252 38.8726 -0.155884 39.927 -0.0917487C40.5528 -0.0917487 41.1785 0.0763309 41.8043 0.152728C42.7353 0.290243 43.6815 0.366647 44.6126 0.56528C45.2779 0.742643 45.9265 0.977808 46.5509 1.26812C47.5434 1.76696 48.4973 2.33898 49.405 2.97944C50.166 3.41582 50.8061 4.03555 51.2671 4.7824C51.6733 5.51446 52.0253 6.27537 52.3202 7.05902C52.5004 7.41987 52.6016 7.81496 52.6174 8.21804C52.6332 8.62111 52.5632 9.02293 52.4118 9.39678C52.2773 9.64591 52.1188 9.88134 51.9387 10.0997L51.786 10.008C51.786 9.64129 51.9082 9.25927 51.954 8.87728C52.0597 8.26335 51.9346 7.63195 51.6029 7.10486C51.2736 6.56775 50.9976 5.99973 50.7787 5.40886C50.4063 4.68465 49.8479 4.07285 49.1609 3.63644C48.1269 2.86003 46.9986 2.21825 45.8031 1.72651C45.0613 1.44648 44.3016 1.21677 43.529 1.03894C42.5644 0.791741 41.5858 0.602936 40.5986 0.473584C39.3932 0.236672 38.1471 0.315636 36.9813 0.702789C36.2637 0.915419 35.5351 1.08884 34.7987 1.22229C33.944 1.45148 33.1199 1.77237 32.2804 2.03212C31.441 2.29187 30.7541 2.44465 30.1131 2.73496C29.0154 3.13933 27.9448 3.61396 26.908 4.15594C25.6717 4.84351 24.5118 5.68388 23.3366 6.44786C22.1613 7.21183 20.7266 8.22029 19.4751 9.18289C18.0209 10.2743 16.7486 11.5893 15.7053 13.0791C14.9421 14.1793 14.0416 15.1877 13.2785 16.2878C12.2609 17.6878 11.5201 19.2696 11.0959 20.948C10.8823 21.8342 10.638 22.7052 10.4854 23.5914C10.4394 24.166 10.4394 24.7434 10.4854 25.318C10.4454 26.7832 10.8731 28.223 11.7064 29.4282C12.1377 30.1365 12.7223 30.7389 13.417 31.1911C14.1117 31.6433 14.8988 31.9337 15.7205 32.0409C16.3535 32.1762 17.0117 32.1321 17.621 31.9135C18.2304 31.6948 18.7667 31.3104 19.1698 30.8033C19.5616 30.4009 20.0283 30.0791 20.5435 29.856C20.914 29.6682 21.2964 29.5049 21.6882 29.367L17.781 27.5029C17.8015 27.4785 17.8272 27.4589 17.8562 27.4457C17.8853 27.4325 17.9169 27.4259 17.9488 27.4266L20.0398 28.1752C20.7724 28.4503 21.4897 28.7559 22.2223 29.0462C22.3021 29.0674 22.379 29.0982 22.4513 29.1379C23.0771 29.5657 23.7028 29.9629 24.298 30.406C24.4355 30.5236 24.5966 30.6103 24.7703 30.6604C24.9441 30.7105 25.1265 30.7227 25.3054 30.6963C26.4654 30.5741 27.6253 30.513 28.7852 30.3908C30.8152 30.1616 32.8604 29.9324 34.8903 29.6726C36.1571 29.5046 37.4239 29.2906 38.7059 29.1226C39.0722 29.1226 39.4539 29.1226 39.8202 29.0462V28.9087C39.3623 28.4961 38.9197 28.0836 38.4618 27.7016C37.7183 27.0328 36.9387 26.4054 36.1265 25.8222C35.165 25.1805 34.1271 24.6457 33.074 24.0651C32.9519 23.9887 32.8604 23.8817 32.7536 23.8053C32.1322 23.2287 31.3113 22.9165 30.4642 22.9344C30.1772 22.9393 29.8946 22.863 29.6489 22.7143C29.4032 22.5657 29.2044 22.3507 29.0752 22.094C28.7778 21.5672 28.4517 21.0571 28.0985 20.5661C27.8896 20.3417 27.6652 20.1324 27.4269 19.9396C26.9786 19.3387 26.7667 18.5936 26.8317 17.8463C26.8545 17.2438 27.0358 16.658 27.3574 16.1482C27.6791 15.6384 28.1295 15.2227 28.6632 14.9432C29.62 14.2717 30.6135 13.6545 31.6393 13.0944C32.8753 12.4345 34.2289 12.0244 35.6229 11.8873C36.2335 11.7957 36.844 11.5665 37.4545 11.4442C38.065 11.322 38.9807 11.1692 39.698 11.0622C40.4154 10.9553 40.9801 10.9859 41.6059 10.8942C43.1321 10.6955 44.6584 10.4511 46.2609 10.2372C47.7832 10.0799 49.3175 10.0799 50.8397 10.2372C51.7731 10.2474 52.7061 10.1963 53.6328 10.0844C54.1867 9.979 54.7481 9.9177 55.3117 9.90103C56.369 9.84 57.429 9.84 58.4863 9.90103C59.2271 9.97725 59.9738 9.97725 60.7147 9.90103C61.5236 9.90103 62.3325 9.90104 63.1414 10.008H63.4009C64.5761 10.115 65.7361 10.1913 66.896 10.3288C67.4881 10.4077 68.0743 10.525 68.6512 10.6802C69.918 10.94 71.1848 11.1845 72.4211 11.5206C73.23 11.7346 73.9473 12.1318 74.7868 12.4068C75.6262 12.6819 76.8777 13.0333 77.8393 13.4611C79.2587 14.0417 80.6476 14.6988 82.0365 15.3863C82.6775 15.6919 83.227 16.1656 83.8527 16.5018C84.9059 17.0518 85.9742 17.6172 87.0731 18.0297C88.8057 18.6543 90.3721 19.6683 91.6519 20.9939C92.0495 21.3385 92.4219 21.7112 92.7661 22.1093C93.3184 22.8592 93.828 23.6397 94.2924 24.447C94.6058 24.918 94.8475 25.4329 95.0097 25.975C95.0441 26.2279 95.0283 26.485 94.9632 26.7318C94.8982 26.9785 94.7852 27.21 94.6307 27.4129C94.4761 27.6159 94.2831 27.7864 94.0627 27.9145C93.8423 28.0427 93.5988 28.1261 93.3461 28.1599L91.3315 28.3127L91.7588 28.5572C93.0866 29.1226 94.4297 29.6115 95.6965 30.2838C96.5133 30.7646 97.2713 31.3389 97.9554 31.9951C98.8694 32.8211 99.7357 33.6985 100.55 34.6232C101.379 35.526 101.856 36.6976 101.893 37.9235C101.89 38.2686 101.807 38.6082 101.651 38.9158C101.495 39.2233 101.269 39.4904 100.993 39.696C100.146 40.2847 99.1742 40.6667 98.1538 40.8113C97.1521 41.0533 96.2114 41.5008 95.3913 42.1254C94.3926 43.0066 93.5058 44.0072 92.7509 45.1049C92.1928 45.8241 91.683 46.5796 91.2246 47.3662C91.0002 47.8285 90.8311 48.3158 90.7209 48.8178C90.492 49.5818 90.2478 50.3457 90.0646 51.1097C89.8815 51.8737 89.8204 52.6377 89.6525 53.31C89.3015 54.9143 88.92 56.5034 88.5842 58.123C88.3705 59.0856 88.3094 60.1093 88.05 61.0719C87.7905 62.0345 87.241 63.0888 86.9053 64.1278C86.5695 65.1668 86.3253 66.2669 86.0353 67.3365C85.9744 67.5111 85.8978 67.6799 85.8064 67.8407C85.1959 69.0325 84.5701 70.209 83.9749 71.4161C83.8282 71.8316 83.6496 72.2352 83.4406 72.6232C82.8352 73.4901 82.1561 74.3029 81.4108 75.0526C80.9788 75.4483 80.4388 75.7062 79.8597 75.7933C79.2807 75.8804 78.6889 75.7927 78.1598 75.5415C77.122 75.1901 76.3894 74.3345 75.2904 74.1817C75.1567 74.1279 75.0404 74.038 74.9546 73.9219C73.9412 72.7724 73.3965 71.2835 73.4284 69.7506C73.4996 68.9318 73.8821 68.1716 74.4968 67.6268C75.1436 67.0276 75.6314 66.2768 75.9162 65.4418C76.3588 64.3723 76.9082 63.3333 77.4424 62.279C77.6411 61.7803 77.8093 61.2701 77.9461 60.751C78.1903 60.0023 78.4498 59.2231 78.6482 58.505C78.8467 57.7868 78.9535 57.1145 79.1061 56.4117C79.2587 55.7088 79.4266 55.3115 79.5487 54.7615C79.6708 54.2114 79.854 53.2335 79.9914 52.4237C80.1287 51.6139 80.2356 50.8958 80.3729 50.0401C80.6329 48.8961 80.8265 47.7381 80.9529 46.5717C80.9212 45.6149 80.7985 44.6632 80.5865 43.7297C80.5865 43.5005 80.5865 43.2714 80.5865 43.0422L80.7545 42.9657C81.0387 43.4548 81.2836 43.9658 81.4871 44.4937C81.6298 45.0266 81.6967 45.577 81.6855 46.1286C81.6855 46.9078 81.5939 47.6566 81.5023 48.4816C81.4108 49.3067 81.2124 50.3305 81.0445 51.2625C80.9224 51.9043 80.7697 52.5307 80.6324 53.1724C80.4339 54.1656 80.266 55.174 80.0218 56.1519C79.6708 57.5729 79.1977 58.9786 78.9077 60.3996C78.5368 61.675 78.0249 62.905 77.3814 64.0667C76.9999 64.907 76.7252 65.7933 76.2673 66.5878C75.8605 67.1318 75.4114 67.6427 74.9242 68.1158C74.5731 68.5436 74.0542 68.8644 74.0389 69.5061C73.9679 70.2884 74.1104 71.0752 74.451 71.7828C74.7358 72.3625 75.073 72.9148 75.4583 73.433C75.7972 73.7193 76.185 73.9418 76.603 74.09C77.2593 74.4414 77.9156 74.7623 78.5567 75.1137C78.9125 75.2822 79.3055 75.3566 79.6983 75.3298C80.091 75.3031 80.4704 75.1761 80.8002 74.9609C82.0166 73.8842 82.9673 72.5402 83.578 71.0341C83.9291 70.1173 84.4023 69.2311 84.7686 68.3143C85.0433 67.6573 85.2569 66.9545 85.5011 66.2669C85.7453 65.5793 86.1116 64.739 86.3253 63.9291C86.8246 62.7478 87.2229 61.5262 87.5158 60.2774C87.7015 58.882 87.9716 57.4992 88.3247 56.1366C88.5689 54.9907 88.8742 53.8753 89.1336 52.7446C89.3931 51.6139 89.4999 50.7888 89.7441 49.8415C89.9191 49.2573 90.1333 48.6855 90.3852 48.1302C90.4121 48.0674 90.4259 47.9998 90.4259 47.9316C90.4259 47.8633 90.4121 47.7957 90.3852 47.7329L89.4389 49.3984H89.3015C89.2857 49.2614 89.2857 49.1229 89.3015 48.9858C89.6373 48.1455 90.0341 47.3357 90.3241 46.4647C90.7829 45.3309 91.4051 44.2705 92.1709 43.3172C92.4761 42.8741 92.8119 42.4462 93.1324 42.0031C93.1714 42.1793 93.1714 42.3618 93.1324 42.5379C92.7356 43.2713 92.293 44.0659 91.8809 44.7382C91.4688 45.4105 91.2856 45.8688 90.9956 46.4189C92.5219 44.5395 93.7276 42.4768 95.956 41.3309C95.7191 41.3605 95.4845 41.4064 95.254 41.4684C94.7503 41.5448 94.2314 41.5906 93.7277 41.6976C93.4947 41.8403 93.2965 42.0335 93.1477 42.2629ZM27.8237 18.3353C27.7724 18.6247 27.8057 18.9228 27.9194 19.1938C28.0331 19.4648 28.2224 19.6972 28.4648 19.8632C28.6953 20.0554 28.9004 20.2762 29.0752 20.5202C29.2736 20.8411 29.3958 21.2231 29.6095 21.544C29.8232 21.8648 30.0978 22.4607 30.7846 22.3232C31.1048 22.2963 31.4253 22.3711 31.7004 22.5371C32.2194 22.8121 32.6773 23.1941 33.2267 23.4997C33.9725 24.0662 34.7756 24.5528 35.6229 24.9513C36.7224 25.4055 37.7229 26.0698 38.5686 26.9071C39.6651 27.9079 40.8332 28.8272 42.0637 29.6573C43.5606 30.6748 45.209 31.4484 46.9478 31.9493C47.4972 32.1173 48.0467 32.3618 48.6114 32.4993C49.9851 32.8354 51.3739 33.2174 52.7781 33.4161C53.7432 33.4921 54.7128 33.4921 55.6779 33.4161H56.609L58.4863 33.3397L61.0047 33.2174C61.5741 33.2483 62.1447 33.2483 62.7141 33.2174C63.5678 33.0863 64.4136 32.9078 65.2476 32.6827C66.1481 32.4535 67.0486 32.1785 67.9339 31.8729C68.8191 31.5673 69.4601 31.17 70.3301 30.895C71.2001 30.6199 72.1769 30.406 73.0926 30.1615C73.6917 29.9462 74.3034 29.7676 74.9242 29.6268C76.3679 29.3776 77.8257 29.2195 79.2892 29.1531C80.7239 29.1531 82.1586 29.3823 83.6086 29.4282C84.3182 29.4579 85.0282 29.3807 85.7148 29.199C86.768 28.924 87.8058 28.542 88.7674 28.1905C89.6418 27.8141 90.6003 27.677 91.5451 27.7933C92.1118 27.8771 92.6878 27.8771 93.2546 27.7933C93.4568 27.7347 93.6424 27.6294 93.7965 27.4857C93.9506 27.3421 94.0688 27.1642 94.1416 26.9664C94.2144 26.7686 94.2397 26.5565 94.2156 26.3471C94.1914 26.1378 94.1184 25.937 94.0024 25.7611C93.7763 25.452 93.5673 25.1306 93.3766 24.7985C93.1543 24.2683 92.8889 23.7572 92.583 23.2705C92.1557 22.7052 91.5909 22.2774 91.0567 21.7426C90.4509 20.9933 89.6908 20.3836 88.8284 19.9549C88.0042 19.6035 87.2106 19.1451 86.3864 18.7478C85.5622 18.3505 85.1043 18.2131 84.4786 17.8769C83.4865 17.3421 82.5401 16.7156 81.5328 16.1809C80.5255 15.6461 79.5639 15.2641 78.4803 14.821C77.8545 14.5307 77.2287 14.2251 76.5725 13.9959C75.9162 13.7667 75.0463 13.5375 74.2526 13.2931C73.9168 13.1708 73.6268 12.9263 73.3063 12.8347C72.0853 12.4832 70.8796 12.1471 69.6585 11.8262C69.052 11.6508 68.4352 11.5131 67.8117 11.4137C66.4991 11.2609 65.1866 11.1539 63.8892 11.047C62.8514 10.9706 61.8288 10.8789 60.8367 10.8483C60.1957 10.8483 59.5395 10.94 58.8984 10.94L55.5406 10.8483C53.8923 10.8483 52.2744 11.3373 50.5956 11.1692C49.4827 11.0928 48.3659 11.0928 47.253 11.1692C46.1694 11.1692 45.101 11.3525 44.0327 11.4901L39.9575 11.9943C39.2249 12.086 38.4313 12.1012 37.7292 12.254C37.0271 12.4068 36.2029 12.7124 35.3787 12.9111C34.5235 13.0678 33.6778 13.2719 32.8451 13.5222C32.121 13.8621 31.4177 14.2448 30.7389 14.6682C29.8489 15.1379 29.0357 15.7407 28.3274 16.4559C28.101 16.707 27.9373 17.0082 27.8498 17.3349C27.7622 17.6616 27.7532 18.0045 27.8237 18.3353ZM43.6205 40.903C44.1219 41.0504 44.6315 41.1677 45.1468 41.2544C45.7396 41.3256 46.3356 41.3664 46.9325 41.3767C47.0241 41.3767 47.1614 41.3767 47.2072 41.3767C47.6327 40.9949 47.9664 40.5217 48.1831 39.9924C48.3999 39.4632 48.4941 38.8917 48.4588 38.3208C48.4434 38.0708 48.3342 37.8358 48.153 37.6629C47.9719 37.4901 47.7322 37.3921 47.4819 37.3887C46.7812 37.3276 46.0764 37.3276 45.3757 37.3887C44.5668 37.4957 43.8494 37.8013 42.9947 37.9082C42.14 38.0152 41.8196 38.2444 41.6517 39.1459C41.309 40.7011 40.8653 42.2323 40.3238 43.7297C39.9416 45.0222 39.7161 46.356 39.6522 47.7024C39.6522 48.3441 39.7438 49.0622 39.1028 49.704C38.9297 48.4061 38.9814 47.0881 39.2555 45.8077C39.4676 44.518 39.7944 43.2498 40.2322 42.0184C40.6138 40.8113 41.1327 39.6195 41.6211 38.3819H41.2549L37.5461 39.5279C37.4726 39.5493 37.4045 39.5864 37.3466 39.6365C37.2887 39.6865 37.2421 39.7485 37.2102 39.8182C37.1034 40.2766 37.0118 40.7502 36.9508 41.2086C36.8134 42.5532 36.676 43.8825 36.5997 45.2271C36.5234 46.5717 36.4776 47.794 36.5081 49.0775C36.5081 49.9943 36.7371 50.8958 36.7524 51.8126C36.7257 52.4787 36.6543 53.1423 36.5387 53.7989C35.5919 49.114 35.7277 44.2744 36.9355 39.6501L34.9667 40.0015C34.9667 41.3308 35.104 42.6143 35.1651 43.8978C35.1651 44.7687 35.2567 45.6549 35.2567 46.5259C35.2567 47.3968 35.2566 47.7941 35.1345 48.4358H34.8598C34.6027 45.6421 34.5517 42.8333 34.7071 40.0321L31.0899 40.5516C31.8272 42.8544 32.3384 45.2238 32.6162 47.626H32.3873L30.6626 40.5669L28.4648 40.903C28.7395 41.3919 28.9685 41.7434 29.1516 42.1254C29.7774 43.4547 30.4031 44.784 30.9831 46.1286C31.3646 47.0454 31.6852 47.9927 31.9904 48.9247C32.4331 50.254 32.8452 51.5834 33.242 52.9127C33.2879 53.2421 33.2879 53.5764 33.242 53.9058H33.1046C32.9949 53.6719 32.898 53.4322 32.8146 53.1877C32.4635 52.0417 32.1736 50.8805 31.792 49.7346C31.4715 48.8331 31.0441 47.9622 30.6931 47.0607C30.342 46.1592 29.9452 44.9368 29.5484 43.8978C29.2889 43.2102 28.9227 42.5532 28.6785 41.8504C28.4343 41.1475 28.358 40.9183 27.5185 40.9489H27.3048L25.0764 41.2086C25.4885 41.8045 25.8548 42.2629 26.1448 42.7366C27.0301 44.2645 27.8847 45.93 28.7852 47.5037C29.3805 48.5733 30.0215 49.597 30.6015 50.6666C30.922 51.2778 31.1663 51.9348 31.4257 52.5765C31.9141 53.7836 32.372 55.006 32.8299 56.213L32.6314 56.3047L32.3567 55.7394C31.7615 54.5017 31.2121 53.2336 30.5863 52.0265C29.7011 50.3152 28.7853 48.6344 27.8695 46.9537C27.3659 46.0217 26.8011 45.1202 26.3433 44.1881C25.8854 43.2561 25.3207 42.1865 24.817 41.1322L18.9867 42.5074C19.0998 42.7147 19.2273 42.9138 19.3682 43.1032L21.1998 45.2882C21.7187 45.8841 22.2224 46.48 22.726 47.0454C23.2297 47.6107 23.9929 48.2066 24.5728 48.8483C25.6717 50.0554 26.8011 51.2625 27.7779 52.5765C28.4819 53.6147 29.1191 54.6966 29.6858 55.8158C29.7359 55.9634 29.7617 56.1182 29.7621 56.2742L29.5942 56.3658C29.3883 56.1476 29.1947 55.918 29.0142 55.6783C28.4037 54.6851 27.8237 53.6766 27.198 52.6987C26.7477 51.984 26.2371 51.3093 25.6717 50.6819C24.466 49.3373 23.1686 48.0844 21.9476 46.7551C20.9861 45.7008 20.0703 44.6159 19.1545 43.5158C18.9401 43.1976 18.7463 42.8659 18.5746 42.5227L14.1637 43.5922L24.5576 53.1724L24.6644 53.0807C21.6684 50.2119 19.0245 46.9958 16.7889 43.5005C16.8957 43.5005 16.9109 43.6075 16.972 43.6839C18.132 45.1049 19.2767 46.5411 20.4672 47.9316C21.2151 48.8178 21.9934 49.6429 22.8023 50.4985C23.3213 51.0792 23.8554 51.6598 24.3286 52.2557C24.8017 52.8516 25.6412 53.7836 26.267 54.5323C26.7498 55.1063 27.1983 55.7083 27.6101 56.3353C27.9153 56.7784 28.0679 57.3131 28.3427 57.7715C28.8005 58.5202 29.3042 59.2995 29.8689 59.9718C30.2882 60.8155 30.8001 61.6099 31.3952 62.3401C31.5186 62.4639 31.6263 62.6024 31.7157 62.7526C32.12 63.3984 32.5742 64.0114 33.074 64.5862C33.9645 65.5399 34.9936 66.3538 36.1265 67.0003C36.9407 67.5231 37.7114 68.1107 38.4312 68.7575C39.0265 69.2158 39.6523 69.6437 40.217 70.1326C41.2701 71.0647 42.2927 72.0425 43.2695 72.9899C43.4769 73.2341 43.7247 73.4409 44.0021 73.6011C45.3207 74.2484 46.7014 74.7603 48.123 75.129C48.7435 75.3127 49.3983 75.3475 50.0347 75.2307C50.671 75.1139 51.271 74.8488 51.786 74.4567C51.5721 74.2414 51.3733 74.0117 51.1908 73.7691C50.5905 72.6944 50.124 71.5502 49.8019 70.3618C49.5882 69.7048 49.4203 69.0172 49.2219 68.3449C49.0235 67.6726 48.7641 67.0767 48.5962 66.4197C48.4283 65.7627 48.3519 65.3043 48.2451 64.739C48.1382 64.1736 48.0467 63.5319 47.9093 62.936C47.8353 62.3378 47.5349 61.7909 47.0699 61.408C46.0531 60.6248 45.2066 59.6422 44.5821 58.5203C44.2703 58.0311 43.9289 57.5617 43.5595 57.1145C42.9795 57.1145 42.5369 57.1145 42.0333 57.2215C41.7367 57.2757 41.432 57.2655 41.1397 57.1917C40.8474 57.1179 40.5744 56.9822 40.339 56.7937C40.0984 56.5346 39.8381 56.2946 39.5606 56.0755C39.1425 55.7527 38.8274 55.3148 38.6539 54.8155C38.4805 54.3162 38.4562 53.7771 38.5839 53.2641C38.6646 52.8494 38.8366 52.4579 39.0875 52.1182C39.4567 51.4085 39.8965 50.7379 40.4002 50.1166C41.0372 49.4816 41.7812 48.9644 42.598 48.5886C44.4091 47.6766 46.3265 46.994 48.3062 46.5564L49.2982 46.3731L48.8709 42.7671H49.0846L49.8629 46.2203C50.1703 46.1648 50.4817 46.1341 50.794 46.1286C51.9082 46.1286 53.0223 46.1286 54.1212 46.2356C54.6339 46.2337 55.1454 46.2849 55.6475 46.3884C56.5022 46.5717 57.3416 46.8926 58.1963 47.0607C59.051 47.2287 60.1652 47.3663 61.1573 47.5343C61.5388 47.5343 61.9356 47.6871 62.363 47.7788C62.363 47.0301 62.363 46.3425 62.363 45.6396C62.363 44.6465 62.2561 43.6686 62.1798 42.6754C62.1269 42.4343 62.0962 42.1888 62.0883 41.942C62.1951 41.1933 62.3936 40.4141 62.4394 39.6807C62.5712 39.0097 62.9071 38.396 63.4009 37.9235C63.9515 37.3728 64.5786 36.9045 65.2629 36.5331C65.8276 36.0747 66.3771 35.6164 66.9723 35.2191C68.0254 34.5621 69.0938 33.9356 70.1927 33.3397C71.2393 32.7548 72.3256 32.2442 73.4436 31.8118C74.9699 31.2464 76.4962 30.8491 78.114 30.3755L79.9914 29.8254C79.7551 29.7732 79.5102 29.7732 79.274 29.8254L77.5188 29.963C76.8625 29.963 76.1909 29.9629 75.5499 30.1157C74.9089 30.2685 74.3289 30.4519 73.7184 30.62L69.3838 31.9187C68.8344 32.0868 68.3002 32.3159 67.7507 32.4993C67.2013 32.6827 66.6212 32.7896 66.087 33.0036C64.4331 33.5496 62.7003 33.818 60.9588 33.7981H59.692L57.891 41.285H57.6926C57.7965 38.7019 58.3707 36.1595 59.3868 33.7828C58.7611 33.7828 58.2116 33.7828 57.6622 33.8897C57.5706 33.8897 57.4332 34.0578 57.4179 34.1495C57.4179 34.5468 57.3264 34.944 57.2959 35.326C57.2959 36.2733 57.1737 37.236 57.0669 38.168C56.7479 39.4274 56.7902 40.7514 57.189 41.9879C57.189 42.0948 57.189 42.2476 57.189 42.3851H57.0211C56.7605 41.9364 56.5652 41.4528 56.4411 40.9489C56.3647 40.1051 56.3647 39.2562 56.4411 38.4125C56.5211 37.7898 56.6384 37.1724 56.7922 36.5636C56.9601 35.6774 57.1279 34.7913 57.3111 33.7828L55.7085 33.9356C55.4479 36.6493 55.5248 39.3848 55.9375 42.0795C55.7391 41.9879 55.5864 41.8962 55.5406 41.7587C55.2667 40.9285 55.0725 40.0741 54.9606 39.207C54.8349 37.4744 55.0053 35.7331 55.4643 34.0578C55.2437 34.0068 55.019 33.9761 54.7928 33.9662H53.6175V34.8218C53.6175 35.5399 53.6175 36.3498 53.7091 36.9762C53.8243 38.5416 54.153 40.0839 54.6859 41.5601C54.8662 42.0593 55.014 42.5697 55.1285 43.088L54.9759 43.1797C54.7938 43.0188 54.6346 42.8337 54.5028 42.6296C53.1625 39.9853 52.7382 36.9699 53.297 34.0578L52.076 33.9203C52.1262 34.1409 52.1518 34.3664 52.1523 34.5926C52.1523 35.7233 52.0607 36.8692 52.1523 37.9999C52.2039 38.7094 52.3318 39.4112 52.5338 40.0932C52.7475 40.8266 53.0681 41.5448 53.3123 42.2782C53.3866 42.5949 53.4377 42.9166 53.4649 43.2408H53.2054C52.3167 41.8307 51.7585 40.2374 51.5724 38.5805C51.472 38.8353 51.3493 39.0807 51.206 39.314C50.6871 39.9557 50.0613 40.521 49.6035 41.2086C49.3164 41.6615 48.8678 41.9878 48.3489 42.1212C47.83 42.2547 47.2799 42.1851 46.8104 41.9267C46.624 41.7923 46.399 41.7226 46.1694 41.7281C45.4991 41.8347 44.8131 41.7771 44.17 41.5601C43.8797 41.4331 43.5992 41.285 43.3305 41.1169C42.2882 42.352 41.5835 43.8366 41.2853 45.4258C41.2853 45.7466 41.1479 46.0675 41.0869 46.3884C40.9648 47.2135 40.8274 48.0385 40.7206 48.8789C40.7206 49.2609 40.6291 49.6581 40.5833 50.1318C40.0491 49.6887 40.0033 49.4595 40.1254 48.6039C40.2475 47.7482 40.3544 46.6634 40.5833 45.7313C40.8557 44.5826 41.2076 43.4543 41.6364 42.3546C41.9242 41.8509 42.2784 41.3884 42.6895 40.9794C43.0147 40.6381 43.3108 40.2701 43.5747 39.8793C44.0326 39.0237 44.2768 38.0305 45.2078 37.4346L43.6205 40.903ZM51.786 33.7828C50.8092 33.5842 49.9698 33.4467 49.1303 33.248C48.2909 33.0494 47.3446 32.7591 46.4594 32.4535C45.7139 32.101 44.9496 31.7899 44.17 31.5214C43.1971 31.1527 42.2861 30.6374 41.4685 29.9935C41.1807 29.7797 40.8542 29.624 40.507 29.5351C39.7133 29.5351 38.9807 29.5351 38.1412 29.6726C37.3018 29.8102 36.9965 29.8407 36.4165 29.9171L33.364 30.2991C32.1278 30.4519 30.8763 30.6505 29.6248 30.788C28.6937 30.8797 27.7321 30.788 26.8011 30.9714C25.4275 31.17 24.0691 31.4756 22.7108 31.7353C22.3902 31.7353 22.0697 31.8882 21.7645 31.9646L19.3225 32.4993C18.0099 32.8202 16.7126 33.1716 15.4153 33.4467C13.5784 34.0287 11.8506 34.9116 10.3022 36.0594C9.60281 36.4973 8.87351 36.8853 8.1197 37.2207C7.1429 37.6485 6.07451 37.2207 5.06718 37.5568C4.33511 37.7186 3.64079 38.0194 3.02195 38.443C2.46004 38.9413 1.94879 39.494 1.49569 40.0932C1.07723 40.5613 0.80163 41.1397 0.70154 41.7599C0.601449 42.3801 0.681073 43.016 0.930982 43.5922C0.948947 43.6761 0.983572 43.7555 1.03271 43.8257C1.08184 43.896 1.1445 43.9557 1.21706 44.0012C1.28963 44.0468 1.37061 44.0774 1.45517 44.0911C1.53973 44.1048 1.62616 44.1014 1.70939 44.0812C2.35042 44.0812 3.00674 43.9283 3.64777 43.9283C4.83825 43.9283 6.04396 43.9284 7.23445 44.0048C7.72285 44.0048 8.21125 44.0047 8.76071 43.9131C9.31016 43.8214 10.0276 43.9131 10.6381 43.7908C11.2486 43.6686 12.1643 43.5005 12.9579 43.363C13.7516 43.2255 14.3469 43.1033 15.0337 42.9352C15.7205 42.7671 16.5599 42.4921 17.3994 42.3087C18.2388 42.1254 19.1393 41.942 20.0092 41.7434L23.9013 40.8572C24.1447 40.7708 24.3755 40.6527 24.588 40.5058C24.588 40.5058 24.7255 40.6127 24.8476 40.5974C26.5061 40.4345 28.1696 40.2511 29.8384 40.0474C31.5478 39.8182 33.2724 39.589 34.9819 39.3292C35.9587 39.1764 36.9508 38.9778 37.9123 38.7486C38.5534 38.5958 39.1639 38.3055 39.8049 38.1222C40.4459 37.9388 40.8733 37.9235 41.3312 37.7707C43.0377 37.1834 44.8234 36.8588 46.6272 36.8081C47.0438 36.7776 47.4622 36.7776 47.8788 36.8081C48.1647 36.8577 48.4246 37.0052 48.614 37.2254C48.8033 37.4455 48.9103 37.7248 48.9166 38.0152C48.9819 38.5331 48.9136 39.0592 48.7182 39.5432C48.3481 40.26 47.9352 40.9539 47.4819 41.6211C47.766 41.7352 48.0832 41.7354 48.3674 41.6216C48.6516 41.5078 48.8811 41.2887 49.0082 41.01C49.1303 40.8266 49.2524 40.6585 49.3898 40.4905C49.8171 40.0015 50.2598 39.5279 50.6719 38.9625C50.8259 38.8014 50.9316 38.6002 50.9771 38.3819C51.0992 37.6638 51.6334 37.0373 51.4807 36.2581C51.4807 36.2581 51.4807 36.2581 51.4807 36.1664C51.5265 35.433 51.6944 34.5926 51.786 33.7828ZM53.3885 53.9975H51.8623L52.2744 58.5813H51.9844C51.719 57.8585 51.6047 57.0889 51.6487 56.32C51.6323 55.5283 51.5762 54.7378 51.4807 53.9517L49.9545 53.6614C50.4336 54.9534 50.8463 56.2692 51.1908 57.6035C51.6206 58.8864 51.7409 60.253 51.5418 61.5914C51.3892 61.4233 51.2213 61.2553 51.2213 61.0719C51.0933 59.6551 50.8327 58.2534 50.4429 56.8853C50.1682 55.8311 49.8477 54.8073 49.5577 53.8295C49.5577 53.7225 49.4509 53.5391 49.3746 53.5238L47.5888 53.2641C47.9703 53.9823 48.3214 54.5781 48.5962 55.1893C49.1304 56.3811 49.634 57.5576 50.1224 58.7647C50.2293 59.0397 50.4429 59.5287 49.8324 59.8648C49.7256 59.4981 49.634 59.1772 49.5272 58.8717C49.2066 57.9854 48.8861 57.1145 48.5503 56.2283C48.2146 55.3421 47.8482 54.4559 47.4819 53.5697C47.4819 53.478 47.3599 53.3405 47.2683 53.31C46.7843 53.1496 46.2721 53.0926 45.7647 53.1426C45.2573 53.1926 44.7661 53.3485 44.3227 53.6003L47.7262 58.4897L47.9246 58.3827L45.6047 53.3405C46.7036 53.3405 49.4966 60.4607 48.9472 61.3622L48.5351 60.5371L48.4435 61.1483H48.3062C47.9841 59.7681 47.3467 58.4815 46.4441 57.3895C45.681 56.1825 44.9179 54.9754 44.0327 53.6308C43.8648 53.8753 43.7274 53.9822 43.7427 54.0586C43.7935 54.5912 43.9436 55.1094 44.1852 55.5866C44.7406 56.1675 45.3265 56.7183 45.9405 57.2367C46.5299 57.7307 46.9114 58.4292 47.0088 59.1925C47.0222 59.6271 47.1658 60.0477 47.4209 60.3996C48.0778 61.1818 48.4962 62.1364 48.6266 63.1499C48.8403 64.2042 48.9777 65.289 49.2524 66.3433C49.6645 67.8713 50.1224 69.3228 50.6108 70.7897C50.8999 71.6298 51.2624 72.4428 51.6944 73.2191C51.8986 73.6631 52.2225 74.0414 52.6296 74.3113C53.0367 74.5812 53.511 74.7321 53.9991 74.747C55.3959 74.7181 56.758 74.3059 57.9369 73.5552C58.1362 73.4853 58.3069 73.3517 58.4228 73.1749C58.5386 72.9982 58.5931 72.7882 58.5779 72.5773C58.5779 71.6911 58.471 70.7896 58.3947 69.9034C58.3032 68.6352 58.1963 67.3517 58.12 66.0683C58.12 65.5335 58.12 64.9834 58.12 64.4486C58.12 63.4402 57.9521 62.447 57.8758 61.3928C57.8371 61.114 57.8371 60.8312 57.8758 60.5524C58.0894 59.7579 58.3184 59.0244 58.5626 58.1994C58.8234 57.0776 59.4391 56.0701 60.3178 55.3268C60.6344 55.0103 60.9112 54.6562 61.142 54.2725L59.3257 54.1809L56.9753 60.3996H56.8226C56.8226 58.123 58.0742 56.3047 58.99 54.2878H57.0059L55.4796 60.0176C55.0675 57.9396 55.9833 56.1366 56.6243 54.1961H55.0217L54.7775 59.8496H54.5791C54.3732 57.9573 54.4659 56.0443 54.8538 54.1809L53.9685 54.0433C53.6329 55.8769 53.6329 57.7562 53.9685 59.5898C53.709 59.4097 53.5118 59.1534 53.4038 58.8564C53.139 57.741 53.0718 56.5877 53.2054 55.4491C53.3122 55.0212 53.3275 54.517 53.3885 53.9975ZM51.2213 46.7092V46.6023C50.6871 46.7092 50.1529 46.7856 49.695 46.9079C48.7335 47.1523 47.772 47.4579 46.7952 47.6565C45.4241 47.9994 44.1012 48.5127 42.8574 49.1845C42.1766 49.5188 41.5733 49.9925 41.0869 50.5749C40.5505 51.2955 40.0708 52.0566 39.6522 52.8515C39.4806 53.2456 39.4077 53.6756 39.4396 54.1042C39.4715 54.5329 39.6074 54.9473 39.8354 55.3116C40.1396 55.7328 40.5352 56.0796 40.9925 56.3257C41.4499 56.5718 41.9571 56.7109 42.4758 56.7325C42.7041 56.713 42.9244 56.6389 43.1182 56.5166C43.3121 56.3944 43.4738 56.2274 43.59 56.0297C43.6859 55.8933 43.7374 55.7305 43.7374 55.5636C43.7374 55.3968 43.6859 55.2341 43.59 55.0976C43.4358 54.8496 43.3687 54.5572 43.3991 54.2666C43.4295 53.9761 43.5557 53.704 43.7579 53.4933C44.0774 53.1847 44.4554 52.9433 44.8696 52.7832C45.2837 52.6232 45.7256 52.5477 46.1694 52.5612C47.2784 52.5438 48.3868 52.6256 49.4813 52.8057C50.1987 52.8974 50.9008 53.0961 51.6181 53.1724C52.3355 53.2488 52.8391 53.1724 53.4344 53.2947C54.8918 53.5771 56.3777 53.6848 57.8606 53.6155C58.3332 53.585 58.8073 53.585 59.28 53.6155C60.626 53.8016 61.9955 53.7185 63.3092 53.371C63.717 53.1556 64.1541 53.0012 64.6066 52.9127C65.3392 52.9127 65.7666 52.3779 66.255 51.9959C66.4506 51.7595 66.5584 51.4626 66.5602 51.1555C66.6518 50.2693 65.8734 49.9332 65.3698 49.4901C64.5748 48.9134 63.6327 48.5743 62.653 48.5122C61.6304 48.3288 60.623 48.0844 59.6004 47.8552C58.5779 47.626 57.54 47.3815 56.5479 47.1217C56.0551 46.9202 55.5439 46.7667 55.0217 46.6634C53.6938 46.6634 52.4576 46.7092 51.2213 46.7092ZM26.9843 55.8769L27.0606 55.7699C26.7489 55.5892 26.4483 55.3902 26.1601 55.1741C25.107 54.242 24.0691 53.2794 23.016 52.3321C21.9629 51.3847 20.7724 50.3152 19.6735 49.2762C18.8493 48.4969 18.1472 47.7482 17.2467 46.9231C16.0932 46.0504 15.0659 45.022 14.1942 43.8672C14.1555 43.8146 14.1049 43.7719 14.0465 43.7427C13.9882 43.7135 13.9237 43.6986 13.8585 43.6992C13.5003 43.6983 13.1428 43.729 12.7901 43.7908C11.9048 43.9742 11.0196 44.2187 10.1344 44.3868C9.69176 44.4632 9.24914 44.3867 8.79126 44.4937C9.50594 44.8031 10.2039 45.15 10.8822 45.5327C11.7064 46.0522 12.4085 46.6634 13.2326 47.244C14.0568 47.8246 14.6521 48.3594 15.3389 48.9247C15.7968 49.3067 16.1936 49.7346 16.6667 50.1013C17.44 50.6921 18.2337 51.2727 19.0477 51.8431C19.5019 52.1759 19.9816 52.4722 20.4824 52.7293C22.0086 53.478 23.4587 54.2573 24.9544 54.9296L26.9843 55.8769ZM18.422 32.2701L24.237 30.9408L22.146 29.7185C20.6625 30.1367 19.3553 31.027 18.422 32.2549V32.2701ZM44.0784 56.2894L43.6968 56.7937L46.4746 60.201C46.7188 58.1993 45.2231 57.3743 44.0784 56.2742V56.2894Z" fill="black"/>
<path d="M48.2757 9.97734C47.5063 10.0262 46.749 9.76795 46.1694 9.2592C45.683 8.77856 45.0359 8.4955 44.3532 8.46469C42.3734 8.48976 40.3986 8.66856 38.4465 8.99948C37.8208 8.99948 37.2103 9.12169 36.5845 9.12169C35.5998 9.1671 34.6321 9.39506 33.7304 9.79399C32.6621 10.1454 31.5937 10.451 30.5711 10.8941C29.0448 11.5359 27.6254 12.3457 26.0991 12.9416C24.8763 13.488 23.764 14.2545 22.8176 15.2029C21.5189 16.2536 20.4224 17.5325 19.582 18.977C19.2615 19.5881 19.0326 20.2299 18.7578 20.8716C18.4831 21.5133 18.1167 22.3231 17.8267 23.0565C17.4146 24.065 17.0331 25.0734 16.6668 26.1124C16.1631 27.6404 15.6747 29.0767 15.1405 30.5588C15.0692 30.7015 14.9505 30.8149 14.8048 30.8796C14.7814 30.7226 14.7814 30.563 14.8048 30.406C15.3084 28.7099 15.8274 27.0292 16.331 25.3332C16.5447 24.6304 16.7126 23.8969 16.9873 23.2093C17.262 22.5218 17.6589 21.6814 17.9947 20.9327C18.3305 20.184 18.5288 19.6492 18.8646 19.038C19.165 18.4634 19.523 17.9207 19.933 17.4184C20.5588 16.6545 21.2456 15.8905 21.9477 15.2182C22.4181 14.7328 22.9287 14.2882 23.4739 13.8889C24.2996 13.2825 25.161 12.7264 26.0533 12.2234C26.8055 11.8406 27.5803 11.5039 28.3733 11.215C29.3806 10.8177 30.3879 10.4052 31.4258 10.0385C32.9004 9.43339 34.4354 8.98776 36.0046 8.70917C36.8745 8.57165 37.775 8.6022 38.645 8.51052C39.866 8.38829 41.087 8.09797 42.308 8.06741C43.1076 7.91843 43.9298 7.94226 44.7194 8.13726C45.5091 8.33226 46.2481 8.69392 46.8868 9.19807C47.3105 9.49208 47.7797 9.7141 48.2757 9.85512V9.97734Z" fill="black"/>
<path d="M68.0254 72.012C68.6959 70.7603 69.3021 69.4752 69.8417 68.1616C70.2242 67.0124 70.1754 65.763 69.7043 64.6473C69.136 63.1553 68.3434 61.7589 67.3539 60.5066C66.733 59.7488 66.191 58.9296 65.736 58.0618C65.0478 56.9332 64.5333 55.7073 64.2098 54.4253C64.2098 54.2725 64.3014 54.1045 64.3472 53.9517C64.4998 54.0586 64.744 54.1503 64.805 54.3031C65.0495 55.2858 65.4242 56.2313 65.9192 57.1145C66.3771 57.741 66.5908 58.5202 67.0181 59.162C67.4455 59.8037 68.0713 60.369 68.5444 61.0566C69.1549 62.065 69.6585 63.1652 70.1927 64.2195C70.7807 65.4577 70.8682 66.8755 70.4369 68.1768C69.982 69.2588 69.4032 70.2842 68.7123 71.2327C68.5256 71.5141 68.3162 71.7799 68.0864 72.0273L68.0254 72.012Z" fill="black"/>
<path d="M86.3558 55.8618C86.2337 56.5188 86.1269 57.1911 85.9895 57.8634C85.917 58.3378 85.8151 58.8073 85.6843 59.2691C85.3638 60.247 84.9822 61.2249 84.6464 62.218C84.4633 62.7375 84.3564 63.2876 84.1733 63.746C83.8986 64.51 83.5628 65.2739 83.288 66.0226C82.8759 67.1533 82.5402 68.2992 82.0823 69.4146C81.6244 70.53 81.1971 71.1718 80.7392 72.058L80.5865 71.9816C81.6091 69.3077 82.708 66.6644 83.639 63.9599C84.5701 61.2555 85.379 58.5051 86.2337 55.7854L86.3558 55.8618Z" fill="black"/>
<path d="M82.2807 57.4812C82.1586 57.8479 82.0212 58.2146 81.9296 58.5813C81.7312 59.3606 81.5633 60.1093 81.3649 60.9344L80.3118 64.8154C80.205 65.2279 80.1134 65.6557 79.9761 66.053C79.6556 66.8628 79.2892 67.6726 78.984 68.4824C78.6787 69.2922 78.404 70.0104 78.1598 70.8049C78.0835 71.0952 78.3582 71.4924 77.7477 71.7522C77.7759 71.2378 77.8474 70.7267 77.9614 70.2243C78.4956 68.6963 79.1366 67.3364 79.5945 65.8391C80.1592 64.0361 80.5561 62.1873 81.1208 60.3537C81.4108 59.3453 81.7618 58.3521 82.0823 57.2979L82.2807 57.4812Z" fill="black"/>
<path d="M62.012 56.5186C62.8243 59.6811 63.8911 62.7726 65.2019 65.7627C63.7367 64.5861 61.3099 57.6187 62.012 56.5186Z" fill="black"/>
<path d="M29.2432 27.3655C26.8927 26.4181 22.604 21.819 22.2834 19.9702C22.4341 20.0657 22.577 20.173 22.7108 20.2911C23.7944 21.6968 24.817 23.1789 25.977 24.5388C26.6746 25.2077 27.4192 25.8255 28.2053 26.3876C28.6326 26.6167 28.9074 26.9682 29.2432 27.3655Z" fill="black"/>
<path d="M19.7956 25.6848C21.093 25.8529 25.9007 29.1227 26.1754 30.0853L19.7956 25.6848Z" fill="black"/>
<path d="M82.3112 70.3923C82.514 70.1149 82.6976 69.8239 82.8607 69.5214C83.3949 68.3601 83.9139 67.1989 84.387 66.0377C84.4364 65.9245 84.4978 65.8169 84.5701 65.7168C84.5701 65.7168 84.677 65.7168 84.738 65.6404C84.7991 65.564 84.8143 65.7474 84.738 65.8085C84.612 66.5522 84.4386 67.2871 84.219 68.0087C83.8635 68.86 83.345 69.6334 82.6928 70.2854C82.5954 70.3699 82.4878 70.4418 82.3723 70.4993L82.3112 70.3923Z" fill="black"/>
<path d="M83.0286 64.4029C82.735 65.8195 82.2199 67.1808 81.5023 68.4367H81.3497C81.5175 67.7185 81.6702 67.0157 81.8686 66.3128C81.9987 65.7918 82.1671 65.2811 82.3723 64.7849C82.4639 64.6015 82.7233 64.4946 82.8912 64.3418L83.0286 64.4029Z" fill="black"/>
<path d="M25.0307 19.9702L28.0832 23.897C27.1828 23.897 24.9239 20.7647 25.0307 19.9702Z" fill="black"/>
<path d="M78.6329 65.4419L77.1067 68.6047H76.9235C76.9235 68.513 76.7556 68.3755 76.7861 68.3297C77.3966 67.3824 77.3661 66.0836 78.3124 65.3655L78.6329 65.4419Z" fill="black"/>
<path d="M22.1308 24.3096C23.3254 25.0927 24.4265 26.0104 25.4123 27.0446C24.1612 26.3406 23.0491 25.4137 22.1308 24.3096Z" fill="black"/>
<path d="M87.4089 33.0953C87.0274 33.4467 86.6458 33.8287 86.2337 34.1649C86.1268 34.2413 85.7758 34.1649 85.7453 34.1649C85.7147 34.1649 85.6384 33.6607 85.7453 33.5843C86.2337 33.187 86.7374 32.7439 87.4089 33.0953Z" fill="black"/>
<path d="M88.1568 33.4772C88.5231 32.8508 89.3931 32.5146 89.8509 32.8202C89.7831 32.975 89.6853 33.1147 89.5634 33.2315C89.4414 33.3484 89.2976 33.44 89.1402 33.501C88.9828 33.5621 88.8149 33.5914 88.6462 33.5873C88.4774 33.5832 88.3111 33.5458 88.1568 33.4772Z" fill="black"/>
<path d="M27.7779 21.2537L29.3042 23.2094C28.8771 23.0848 28.4999 22.8289 28.226 22.478C27.9521 22.127 27.7954 21.6987 27.7779 21.2537Z" fill="black"/>
<path d="M63.5077 64.9683C62.8208 64.5558 62.1493 63.0737 62.4088 62.5847L63.5077 64.9683Z" fill="black"/>
<path d="M65.9802 63.8681C65.6879 63.6663 65.4593 63.3851 65.3214 63.0575C65.1835 62.7299 65.142 62.3697 65.2019 62.0193C65.5377 62.0804 65.9802 63.1194 65.9802 63.8681Z" fill="black"/>
<path d="M80.5255 67.6575L80.0676 69.6591C79.9399 69.3269 79.894 68.9687 79.9338 68.615C79.9737 68.2612 80.0981 67.9224 80.2965 67.627L80.5255 67.6575Z" fill="black"/>
<path d="M84.387 33.4773C84.387 34.0274 84.2496 34.3941 83.5933 35.0052C83.3796 34.5774 83.6696 33.9815 84.387 33.4773Z" fill="black"/>
<path d="M44.0937 4.12549C44.231 4.76723 43.8189 5.04225 42.9184 4.9353L44.0937 4.12549Z" fill="black"/>
<path d="M41.8959 4.90462C42.1706 4.11009 42.6742 3.77398 43.2847 3.98789L41.8959 4.90462Z" fill="black"/>
<path d="M67.0792 63.1499C66.4839 63.1499 66.3161 62.9513 66.4382 62.3401L67.0792 63.1499Z" fill="black"/>
<path d="M64.3776 19.2064L60.5925 20.933C61.0104 20.3314 61.5824 19.8537 62.2485 19.5498C62.9145 19.246 63.65 19.1274 64.3776 19.2064Z" fill="black"/>
<path d="M82.1739 22.6748C82.6165 22.6748 83.227 23.1943 83.1965 23.4235C83.1872 23.4618 83.1702 23.4978 83.1466 23.5293C83.123 23.5609 83.0932 23.5872 83.0591 23.6069C82.937 23.6069 82.7691 23.6068 82.7233 23.5305C82.6775 23.4541 82.3876 23.0262 82.1739 22.6748Z" fill="black"/>
<path d="M42.1248 17.9076C42.3385 17.2506 42.659 17.0213 43.239 17.1741L42.2469 18.0604L42.1248 17.9076Z" fill="black"/>
<path d="M65.2629 19.9701L64.0419 20.398V20.1382L65.2782 19.741L65.2629 19.9701Z" fill="black"/>
<path d="M80.2355 24.3096L79.5945 23.6832C80.0524 23.4081 80.2813 23.5762 80.3729 24.1568L80.2355 24.3096Z" fill="black"/>
<path d="M42.0179 16.6699L41.0717 17.3881C41.0259 16.8991 41.2853 16.6699 42.0179 16.6699Z" fill="black"/>
<path d="M39.6828 16.1199C39.988 15.6004 40.3391 15.5698 40.8733 15.7379L39.6828 16.1199Z" fill="black"/>
<path d="M47.8025 70.8355C47.1614 70.0715 46.5357 69.3076 45.8641 68.5283C45.1925 67.7491 44.17 66.7253 43.3305 65.8086C42.4911 64.8918 41.8043 64.1889 41.1633 63.3638C40.5223 62.5388 39.637 61.5914 38.8281 60.6594C38.3397 60.0635 37.9123 59.437 37.4697 58.7953C37.0271 58.1536 36.7524 57.7104 36.4014 57.1451C36.369 57.0922 36.3518 57.0314 36.3518 56.9694C36.3518 56.9074 36.369 56.8466 36.4014 56.7937C36.7021 57.0948 36.9873 57.411 37.2561 57.741C38.2176 58.9787 39.1181 60.2774 40.1254 61.4845C41.1328 62.6915 42.1247 63.593 43.0863 64.6626C44.0478 65.7322 44.7042 66.5267 45.5131 67.4587C46.1236 68.1616 46.7494 68.8645 47.3446 69.5979C47.6051 69.9576 47.8397 70.3355 48.0466 70.7285L47.8025 70.8355Z" fill="black"/>
<path d="M32.1126 57.512C32.4636 58.0773 32.8604 58.612 33.1504 59.1927C34.3117 61.3065 35.704 63.2846 37.3018 65.0906C38.1331 66.1262 39.0634 67.078 40.0796 67.9325C40.9954 68.6965 42.0333 69.3077 42.9795 70.0564C43.9258 70.8051 44.8874 71.6913 45.8336 72.5163C46.0864 72.7295 46.3029 72.9824 46.4746 73.2651C46.3408 73.2063 46.2131 73.1346 46.0931 73.0511C45.3147 72.3941 44.5668 71.676 43.7427 71.0495C42.5674 70.1328 41.3006 69.323 40.1406 68.3909C39.0655 67.6228 38.1135 66.6954 37.3171 65.6406C36.6721 64.7772 35.9791 63.9508 35.2414 63.1653C34.3635 62.1297 33.6151 60.9906 33.013 59.7733L32.2193 58.2453C32.1222 58.043 32.0406 57.8336 31.9752 57.6189L32.1126 57.512Z" fill="black"/>
<path d="M34.7377 54.3184L32.4789 40.4905H32.7689C32.8604 40.9489 32.952 41.4225 33.0588 41.8809C33.2573 42.7671 33.4861 43.6533 33.654 44.5395C33.8219 45.4257 33.9135 46.2509 34.0661 47.1065C34.2188 47.9622 34.3103 48.4664 34.4324 49.1387C34.5545 49.8109 34.753 50.5291 34.8598 51.2166C34.9667 51.9042 34.9361 52.3626 34.9667 52.9432C34.9972 53.5238 34.9667 53.8906 34.9667 54.3642L34.7377 54.3184Z" fill="black"/>
<path d="M59.6768 40.8879C59.9696 39.821 60.4903 38.8305 61.2031 37.9848C61.6762 37.5264 62.1036 37.0222 62.6072 36.5944C63.4161 35.9374 64.2556 35.3262 65.1103 34.715C65.965 34.1038 66.7434 33.5385 67.5828 33.0037C68.1513 32.6581 68.7371 32.3419 69.338 32.0564C69.338 32.0564 69.5059 32.0564 69.7348 32.0564L68.3613 32.9732C67.5829 33.508 66.835 34.0274 66.0566 34.5775C65.2782 35.1276 64.2556 35.8762 63.3856 36.5791C62.3899 37.3737 61.5336 38.3291 60.852 39.4058C60.1957 40.5976 60.2263 40.6129 59.6768 40.8879Z" fill="black"/>
<path d="M29.8995 54.624C27.7066 50.42 25.2123 46.3808 22.436 42.5379L22.6192 42.4004C23.0923 42.981 23.596 43.5158 24.0386 44.1117C24.4812 44.7076 25.1528 45.6396 25.6564 46.4647C26.5111 47.8246 27.3659 49.1845 28.1595 50.5749C28.7395 51.5681 29.2432 52.5918 29.6858 53.6308C29.8153 53.9332 29.9225 54.2447 30.0063 54.5628L29.8995 54.624Z" fill="black"/>
<path d="M38.126 52.164C37.7066 51.0166 37.5654 49.786 37.7139 48.5733C37.6656 47.6908 37.7014 46.8056 37.8208 45.9299C38.0192 44.7687 38.3855 43.6227 38.6908 42.4615C38.8739 41.7892 39.0723 41.1016 39.2859 40.4293C39.4246 39.981 39.625 39.5542 39.8812 39.1611C39.4233 41.2697 39.0265 43.3935 38.5075 45.4868C37.9886 47.5801 38.4312 49.8873 38.126 52.164Z" fill="black"/>
<path d="M61.9357 33.9204C61.7313 34.8595 61.3307 35.7447 60.7604 36.5179C60.2801 37.3541 59.8569 38.222 59.4936 39.1154C59.1883 39.9558 59.0205 40.8267 58.7763 41.6976H58.5932C58.5932 41.5601 58.3947 41.4073 58.41 41.2851C58.4656 40.8264 58.5522 40.3721 58.6694 39.9252C58.8523 39.1293 59.1077 38.3519 59.4326 37.6028C59.9431 36.7587 60.4985 35.9426 61.0962 35.158L61.9357 33.9204Z" fill="black"/>
<path d="M37.9123 42.2019C37.8396 44.5054 37.6204 46.802 37.256 49.0777C36.9681 46.7653 37.1921 44.4178 37.9123 42.2019Z" fill="black"/>
<path d="M42.5216 68.513C40.9232 67.0791 39.4851 65.4755 38.2328 63.7305L38.3855 63.593L42.659 68.3755L42.5216 68.513Z" fill="black"/>
<path d="M42.369 39.3752C42.1925 40.6694 41.6646 41.8903 40.8427 42.9048C41.1343 41.6457 41.6514 40.4498 42.369 39.3752Z" fill="black"/>
<path d="M50.626 40.3071C51.3411 41.0536 51.7915 42.0145 51.9081 43.0422C51.5233 42.6947 51.2116 42.2738 50.9915 41.8041C50.7713 41.3345 50.6471 40.8255 50.626 40.3071Z" fill="black"/>
<path d="M43.3916 62.1875C44.3989 62.7681 44.4905 63.8835 45.1774 64.6475C44.6846 64.4385 44.2579 64.0991 43.9433 63.6657C43.6287 63.2323 43.4379 62.7213 43.3916 62.1875Z" fill="black"/>
<path d="M57.0363 46.6177C56.9603 46.509 56.8987 46.3909 56.8532 46.2663C56.78 45.939 56.7291 45.6072 56.7006 45.2731C56.7092 45.1316 56.7401 44.9924 56.7922 44.8606C56.9295 44.937 57.1737 45.0134 57.1737 45.1203C57.1737 45.594 57.1738 46.0829 57.2806 46.5566L57.0363 46.6177Z" fill="black"/>
<path d="M49.695 41.6519L51.0534 43.6535L50.8856 43.7757C50.4429 43.0881 49.6492 42.645 49.5119 41.7588L49.695 41.6519Z" fill="black"/>
<path d="M45.8184 63.2874C45.5365 63.1599 45.2918 62.9624 45.1075 62.7138C44.9232 62.4651 44.8054 62.1734 44.7652 61.8664C44.7652 61.7747 44.872 61.6983 44.9178 61.6219C44.9636 61.5455 45.1468 61.7289 45.1925 61.8205L45.8184 63.2874Z" fill="black"/>
<path d="M59.1578 44.0508C59.216 44.2454 59.2568 44.4448 59.28 44.6467C59.28 45.0134 59.28 45.3954 59.28 45.7621C59.0908 45.5218 58.9781 45.2303 58.9563 44.9252C58.9346 44.6201 59.0047 44.3155 59.1578 44.0508Z" fill="black"/>
<path d="M43.1169 32.7437C43.1891 32.6923 43.2737 32.6608 43.362 32.6526C43.4504 32.6443 43.5394 32.6596 43.6199 32.6968C43.7004 32.734 43.7697 32.7919 43.8207 32.8645C43.8718 32.9371 43.9028 33.022 43.9105 33.1105C43.9105 33.3091 44.1547 33.4619 44.231 33.6605C44.2544 33.8226 44.2544 33.9873 44.231 34.1495C44.0478 34.1495 43.8342 34.2259 43.6968 34.1495C43.4405 34.0321 43.2381 33.8218 43.1305 33.5609C43.0228 33.3 43.0179 33.008 43.1169 32.7437Z" fill="black"/>
<path d="M8.42497 40.139C7.75342 40.139 7.3108 39.8946 7.28028 39.4668C7.28028 39.3904 7.52445 39.2223 7.53972 39.2375C7.81444 39.4973 8.07393 39.7723 8.42497 40.139Z" fill="black"/>
<path d="M9.76809 38.168L10.5922 38.8097C9.84437 39.3445 9.93594 38.5347 9.63069 38.3819L9.76809 38.168Z" fill="black"/>
<path d="M45.3299 33.4773C45.2748 33.6863 45.2034 33.8907 45.1162 34.0885C45.0018 34.0682 44.8894 34.0375 44.7805 33.9968L44.9941 33.3704L45.3299 33.4773Z" fill="black"/>
<path d="M52.2439 63.7152L53.7701 72.6231H53.4954C52.9002 69.6742 52.2744 66.71 51.9691 63.7L52.2439 63.7152Z" fill="black"/>
<path d="M56.5479 64.4641L56.9295 70.4537H56.67L56.2579 64.4794L56.5479 64.4641Z" fill="black"/>
<path d="M54.4722 68.7271C54.796 69.0216 55.0134 69.415 55.0907 69.8461C55.168 70.2772 55.1008 70.7218 54.8996 71.1106L54.4722 68.7271Z" fill="black"/>
<path d="M55.2812 68.9255C55.7238 69.1547 55.8612 70.2854 55.4643 70.8202L55.2812 68.9255Z" fill="black"/>
<path d="M51.5266 68.9868L51.954 70.8508H51.8013C51.4482 70.2802 51.2927 69.6089 51.3587 68.9409L51.5266 68.9868Z" fill="black"/>
<path d="M60.0278 51.1863C59.8447 51.4766 59.7836 51.9655 59.2342 51.721C59.3563 51.3085 59.5547 51.0487 60.0278 51.1863Z" fill="black"/>
<path d="M61.6457 51.5071L62.2867 51.1709C62.3413 51.2471 62.3875 51.3291 62.4241 51.4154C62.2257 51.5529 62.0119 51.6751 61.7983 51.7974L61.6457 51.5071Z" fill="black"/>
<path d="M22.6955 53.5545C22.1308 53.2337 21.5355 52.9586 21.0013 52.6072C20.3842 52.2053 19.7881 51.7719 19.2156 51.3084C18.9714 51.1098 18.8493 50.7889 18.6051 50.6056C17.7351 49.9027 16.8194 49.2457 15.9494 48.5581C15.0795 47.8705 14.6673 47.5497 14.0873 47.0302C13.632 46.5772 13.204 46.0976 12.8053 45.5939C12.4543 45.1813 12.1337 44.7535 11.798 44.3257V44.2188C12.0256 44.3694 12.2448 44.5326 12.4543 44.7077C13.7669 45.9606 15.0184 47.2594 16.3615 48.4817C17.0186 48.99 17.7012 49.4643 18.4067 49.9027C18.6898 50.1428 18.9551 50.4033 19.2004 50.682C20.1248 51.6662 21.1832 52.5149 22.3445 53.2031C22.4617 53.2819 22.5693 53.3742 22.665 53.4781L22.6955 53.5545Z" fill="black"/>
</g>
<defs>
<clipPath id="clip0_2_255">
<rect width="102" height="76" fill="white"/>
</clipPath>
</defs>
</svg>
