<svg width="119" height="105" viewBox="0 0 119 105" fill="none" xmlns="http://www.w3.org/2000/svg">
<path d="M9.64707 65.9545C6.92373 64.9107 4.52194 63.248 2.65934 61.1169C0.423269 58.4874 -0.67808 55.5887 0.444129 52.2336C0.952565 50.6453 1.1296 48.9804 0.965601 47.3296C0.829596 45.6414 0.829596 43.946 0.965601 42.2578C1.31603 37.9 5.42107 33.8427 10.0768 33.199C11.0238 33.0663 11.4952 32.7737 11.7997 31.8257C12.2169 30.5109 13.0721 29.3172 13.6854 28.0492C14.6282 26.0986 15.6336 24.1752 16.4262 22.1972C18.0532 18.1047 21.3656 16.0331 25.746 15.3309C27.8319 14.9992 29.9553 15.05 32.0662 14.9407C32.2373 14.9407 32.4125 14.9407 32.5835 14.9095C35.0615 14.5818 35.0365 14.574 35.7123 12.3347C36.9639 8.23827 39.1082 4.66463 42.7126 1.97272C45.929 -0.434402 51.9906 -1.14832 55.6451 2.77641C56.7446 3.96506 58.2748 4.732 59.942 4.92995C61.611 5.10209 63.1857 5.74113 64.4601 6.76356C64.5916 6.83946 64.7412 6.88377 64.8955 6.89262C65.0498 6.90147 65.204 6.87453 65.3445 6.81423C67.8017 5.20298 70.5759 5.16007 73.3585 5.44877C74.9774 5.67574 76.6314 5.40175 78.0684 4.6685C81.093 3.10797 84.0257 3.41624 86.7874 5.22255C91.6642 8.41774 95.131 12.6039 96.7747 18.0111C96.9833 18.6938 97.2419 19.361 97.5131 20.1295C97.7968 20.0476 98.0804 19.9774 98.3474 19.8799C100.058 19.2713 101.572 19.6536 102.87 20.7577C103.547 21.2723 104.113 21.9024 104.538 22.6146C105.79 25.1115 108.08 26.5394 110.496 27.8737C111.41 28.3384 112.259 28.907 113.024 29.5668C114.317 30.784 114.555 32.3758 114.275 34.0066C114.05 35.3759 114.3 36.4878 115.527 37.3734C118.902 39.8 119.536 43.0693 118.606 46.7365C117.503 50.9062 115.494 54.8187 112.703 58.2298C111.284 59.9322 109.398 61.2427 107.246 62.0219C104.271 63.1923 101.234 64.1989 98.2223 65.2796L97.463 65.5683C98.5393 66.2393 99.5239 66.8167 100.471 67.4448C105.152 70.5659 107.342 74.9003 107.563 80.1554C107.698 82.0901 107.637 84.0324 107.384 85.9566C106.787 89.7292 104.618 91.399 100.504 91.5316C99.3593 91.5616 98.2135 91.5173 97.0751 91.3989C96.6635 91.3275 96.2384 91.3765 95.8577 91.5391C95.477 91.7018 95.1591 91.9703 94.9474 92.308C94.5303 92.9361 94.063 93.5525 93.6959 94.2079C91.8979 97.3055 89.0444 98.5618 85.3523 98.8661C80.7383 99.2563 77.5094 97.2627 74.7852 94.1845C73.5337 95.4486 72.3948 96.7906 71.0598 97.9376C68.1738 100.381 64.759 102.215 61.0476 103.314C58.5946 104.067 56.1332 104.671 53.5384 104.644C45.6579 104.566 40.8895 98.8856 41.023 92.4016C41.023 92.0505 41.0606 91.7032 41.0939 91.0985C39.2417 91.0985 37.4812 91.1297 35.7249 91.0985C33.639 91.0517 31.5531 91.0986 29.5006 90.8294C25.8169 90.3495 22.9926 88.4534 21.0318 85.543C19.7219 83.5924 18.6498 81.5169 17.4358 79.5155C16.7335 78.3081 15.5927 77.3755 14.2194 76.886C9.43432 75.1538 7.51946 70.8155 9.5386 66.4109C9.57615 66.2471 9.59284 66.1613 9.64707 65.9545ZM99.5072 87.6186C99.7825 87.6186 100.062 87.6186 100.342 87.6186C102.348 87.5132 103.591 86.3936 103.746 84.5249C103.875 82.9784 103.875 81.4248 103.746 79.8783C103.516 77.1474 102.565 73.7884 100.433 71.7363C97.7372 69.1171 94.1589 67.4459 90.3001 67.0039C87.2881 66.6138 84.5055 68.3421 83.2539 70.9365C83.0525 71.3848 82.8067 71.8145 82.5197 72.2201C81.0471 74.1707 77.2841 78.6026 76.3288 80.9122C75.4277 83.0853 75.5946 88.4886 76.2579 90.1427C77.3092 92.7605 80.2294 96.303 85.4149 95.2496C86.9376 94.9414 88.6147 94.7853 89.399 93.5642C90.0414 92.5616 90.6922 91.5589 91.4348 90.6226C92.7197 89.0035 93.7209 87.6069 96.7997 87.4665C97.7092 87.4665 99.5072 87.6186 99.5072 87.6186ZM72.5492 82.1021C71.452 82.1021 70.5133 82.1529 69.5872 82.1021C64.8357 81.7779 60.1522 80.8594 55.6618 79.3712C51.0269 77.7522 50.9018 77.8457 48.1234 81.5442C45.7455 84.7121 44.9362 88.3715 44.7234 92.1948C44.4606 96.9154 48.9411 102.295 54.89 101.558C56.4614 101.328 58.0072 100.965 59.5082 100.473C63.4338 99.2757 67.1592 97.6762 69.7833 94.6214C70.7567 93.4901 71.7078 92.3456 72.6368 91.1883C72.7577 91.04 72.6368 88.9606 72.6368 88.7538C72.6117 86.9436 72.5784 85.1373 72.5492 83.3271C72.5408 82.8629 72.5492 82.4455 72.5492 82.1021ZM93.0993 61.5772C93.7001 62.455 95.7901 61.8464 96.0947 61.7449C99.5739 60.5511 103.074 59.4041 106.524 58.1167C108.227 57.4944 109.649 56.3427 110.55 54.8552C111.75 52.9624 112.836 51.0087 113.804 49.0032C114.438 47.5949 114.705 46.0226 114.989 44.4972C115.13 43.8361 115.083 43.152 114.854 42.5128C114.625 41.8736 114.221 41.3015 113.683 40.8533C111.685 39.2733 110.187 37.3422 110.654 34.7985C111.013 32.8479 110.012 32.0481 108.435 31.2366C106.211 30.0896 104.121 28.7397 102.744 26.6408C102.21 25.8254 101.013 24.2259 100.333 23.235C99.916 23.7538 99.0441 24.8501 98.8314 25.2286C97.8468 26.9764 96.8122 29.161 96.9457 31.1039C97.1168 33.5617 97.3629 36.0235 97.3629 38.4814C97.3629 41.462 97.2419 44.4504 97.0125 47.4232C96.7413 50.911 96.2699 54.3871 95.0559 57.7228C94.5595 59.0648 93.7001 60.1103 93.0827 61.5772H93.0993ZM53.0252 60.8438C54.6939 64.2653 55.2029 69.2082 55.1612 72.8131C55.1612 73.8898 55.0652 75.622 56.225 75.7312C56.6993 75.8131 57.1624 75.9439 57.6059 76.1214C59.9337 76.8587 62.224 77.7483 64.5977 78.2944C66.6233 78.7148 68.6859 78.9603 70.7595 79.0278C71.502 79.0669 73.6171 79.0279 74.051 78.5519C75.7739 76.6012 77.7263 73.3047 79.345 71.2799C80.3003 70.09 80.8176 66.9883 80.1793 65.5331C79.9416 65.0064 77.5637 62.1897 76.9796 61.3743C75.5794 59.5017 73.7565 57.9395 71.6397 56.7981C69.4453 55.5614 67.1509 54.8474 64.5185 55.7876C62.4827 56.5055 60.5845 57.3482 58.9784 58.737C58.6709 58.9987 58.3107 59.2004 57.9187 59.33C56.3293 59.8489 54.7273 60.3093 53.0336 60.8438H53.0252ZM43.2257 24.3078C42.9546 23.9177 42.7752 23.6407 42.5916 23.3793C41.3025 21.5145 39.396 20.2582 37.6147 18.8499C36.9347 18.3154 35.0157 16.9694 34.2063 17.1567C32.7643 17.4868 31.305 17.7472 29.8343 17.9369C28.4284 18.1203 26.9808 18.0501 25.5958 18.3037C23.1553 18.7446 20.7941 19.5131 19.8679 21.9553C18.658 25.0291 17.1732 28.002 15.4292 30.8425C14.5948 32.2197 14.1776 35.4149 14.9828 36.8233C15.7879 38.2317 17.3607 40.8729 18.1283 42.2852C18.2884 42.6082 18.4978 42.9078 18.7499 43.1747C20.3604 44.8097 22.2118 46.2219 24.2483 47.3686C25.1202 47.8485 26.8348 45.9836 27.5065 45.6442C28.1781 45.3047 28.1865 44.8639 28.1322 44.2787C27.8777 41.7155 28.6036 39.402 30.6353 37.6464C32.5458 35.9948 33.9427 33.8905 34.6777 31.5565C35.971 27.7605 38.4073 24.8852 43.2257 24.3078ZM45.4159 78.7313C45.0238 78.6221 44.761 78.5402 44.494 78.4739C39.3084 77.2216 34.7111 75.0017 31.09 71.2252C29.2169 69.2745 26.4093 66.368 24.5278 64.4096C24.1174 63.9812 23.5728 63.6849 22.9717 63.563C20.4154 63.1522 17.7856 63.5648 15.5126 64.7334C14.4534 65.3368 13.5885 66.1968 13.0095 67.2224C11.8623 69.1731 12.1752 73.4334 15.5126 74.1902C18.0052 75.0632 20.0725 76.7551 21.3281 78.9498C22.3543 80.6781 23.2804 82.461 24.3526 84.1659C25.6041 86.1868 27.4397 87.7122 30.0012 87.9112C33.3386 88.1687 36.676 88.1531 39.9842 88.2389C40.3313 88.2515 40.6778 88.2038 41.0063 88.0984C41.1258 88.0633 41.236 88.0052 41.3301 87.9279C41.4242 87.8507 41.5001 87.756 41.5528 87.6498C42.1869 85.0203 43.8098 81.0721 45.4159 78.7313ZM89.3656 60.5395L89.5825 60.5863C89.8704 60.005 90.1707 59.4159 90.4169 58.8424C91.9521 55.4599 92.4736 51.859 92.8866 48.2542C93.2621 44.9342 94.0547 40.7753 93.0493 37.4436C92.2984 34.9584 90.6964 33.1287 88.8024 31.459C86.3327 29.2898 83.6127 27.464 80.1877 26.7774C77.8807 26.3248 74.172 26.8203 73.3877 28.8334C73.3147 29.5822 73.3147 30.3357 73.3877 31.0845C73.4795 31.6268 73.6422 32.1573 73.759 32.6957C74.2763 35.0677 75.386 37.7674 75.8115 40.1472C75.9241 40.7793 77.063 41.1537 77.6262 41.536C83.6795 45.691 87.4883 50.5911 88.8149 57.6954C89.011 58.6551 89.1904 59.5954 89.3656 60.5395ZM23.2054 60.5863C23.1678 60.4419 22.7339 58.9555 22.6505 58.6161C21.9872 55.9671 21.9663 53.3337 23.0677 50.7823C23.3806 50.0527 23.1595 49.725 22.5212 49.4051C20.0181 48.1567 18.0616 46.3269 16.1133 44.4738C15.6631 44.0233 15.2864 43.5133 14.9953 42.9601C14.04 41.2318 12.5757 38.337 11.6913 36.5775C11.6583 36.4708 11.6029 36.3714 11.5284 36.285C11.4539 36.1986 11.3617 36.127 11.2572 36.0743C11.1527 36.0216 11.038 35.989 10.9198 35.9783C10.8017 35.9675 10.6824 35.9789 10.569 36.0118C8.14524 36.4331 4.54081 39.2343 4.21958 41.5166C3.99234 43.1242 3.95039 44.75 4.09444 46.3659C4.28634 48.539 4.21959 50.6574 3.44781 52.7095C2.82205 54.3676 3.91087 57.2545 4.91626 58.6278C5.9759 60.0713 7.73223 61.2651 9.3926 62.0571C10.9153 62.7788 12.4755 63.6683 14.1484 62.256C16.2385 60.9062 20.6647 60.5863 23.2054 60.5863ZM51.6611 68.7323C51.4316 66.2081 51.2731 63.3601 49.6127 61.3002C48.9744 60.52 47.1889 59.0804 46.0792 58.9829C43.1173 58.7137 40.2387 58.343 38.3573 56.1075C37.16 54.6914 35.9334 53.4898 34.878 51.9683C34.2355 51.0437 33.7016 50.0527 33.0132 49.1632C32.3249 48.2737 30.0262 47.9928 29.1043 48.5858C27.4355 49.6469 25.5541 51.5547 25.237 53.4507C24.6738 56.7629 26.2549 61.308 28.733 63.8985C29.9136 65.1352 31.0149 66.4343 32.1789 67.6828C36.4508 72.2824 41.2608 75.938 48.2777 75.8014C49.4917 75.778 51.8613 74.5257 51.8613 73.4022C51.8571 73.1837 51.7821 70.0626 51.6611 68.7323ZM92.6446 31.1039C93.479 30.3666 94.0672 27.7722 94.1923 26.9842C94.2574 25.2625 94.2087 23.5388 94.0463 21.8227C93.8085 20.6523 93.4915 19.4819 93.1411 18.3466C91.8228 14.0551 87.8638 9.98993 84.009 7.42286C83.4695 7.01307 82.804 6.77539 82.1097 6.74451C81.4155 6.71363 80.7288 6.89117 80.1501 7.25122C77.8724 8.50745 75.4152 8.58544 72.8203 8.28504C71.0932 8.08607 69.3202 7.99249 67.8142 9.02244C66.863 9.66616 64.7438 10.4971 63.584 12.3386C62.3784 14.2424 62.5953 16.3765 62.3784 17.7185C63.6633 17.2777 65.6449 15.7679 66.8422 15.4831C69.5121 14.8628 71.4687 15.6625 73.0998 17.8239C74.3013 19.4312 75.2775 21.1399 75.5403 23.1335C75.5525 23.4863 75.5873 23.838 75.6446 24.1869C78.9624 23.6217 82.3869 24.1062 85.3774 25.564C88.1391 26.9373 90.3501 28.9114 92.6655 31.1039H92.6446ZM83.4041 64.9051L83.7295 65.0182C83.9673 64.6281 83.6086 63.2587 83.7295 62.8412C84.4346 60.6643 85.2648 57.9178 84.5931 55.8189C82.3695 48.9096 76.4498 44.5674 69.3369 41.8014C64.8063 40.0419 60.9266 42.5388 60.1172 46.0149C59.8836 47.0214 59.7001 48.0435 59.4957 49.0578C59.1703 50.5676 59.0076 53.283 58.6613 54.8709C58.8866 54.7772 59.5707 54.4807 59.7543 54.4261C61.5815 53.7589 63.3796 53.0099 65.2486 52.456C66.8852 51.9745 68.6468 52.017 70.2547 52.5768C72.4115 53.3064 74.4932 54.1608 76.3079 55.5263C79.0905 57.6213 81.6603 59.8685 82.8409 63.1573C83.0704 63.7308 83.2247 64.3238 83.4041 64.9051ZM53.4508 36.1211C53.0336 35.887 52.9793 34.2562 52.5163 34.0066C51.2594 33.3894 50.0544 32.6838 48.9119 31.8959C47.4559 30.7528 46.8594 29.8282 45.5327 28.5486C44.1352 27.1948 40.4849 27.6278 39.2375 29.1532C38.4031 30.1598 38.1236 31.4122 37.7857 32.6216C36.9514 35.5632 35.6998 37.151 33.251 39.0275C32.1079 39.8975 30.8939 41.9886 31.0316 43.319C31.0608 43.6194 31.211 45.297 31.4822 45.5077C34.561 46.8887 37.3727 51.0709 38.157 52.2842C38.8036 53.2752 40.1762 53.8877 40.8269 54.8787C40.9229 54.8358 40.7519 53.5014 40.8269 53.4585C40.8269 52.9787 40.8269 52.4988 40.8269 52.019C40.852 50.4194 41.1774 48.8277 42.333 47.6612C43.6262 46.3543 43.8682 44.8678 44.0017 43.2332C44.2353 40.6076 45.5786 38.5789 48.2444 37.5723C49.8881 36.952 51.6152 36.6048 53.4508 36.1211ZM61.8652 8.7688C61.1741 8.52013 60.4644 8.3194 59.7418 8.16807C57.005 7.70127 54.4939 6.44308 52.5622 4.57097C50.6306 2.6203 46.5631 2.55016 44.373 4.26675C41.5403 6.4866 38.9496 11.055 38.2446 14.4413C38.2143 14.7041 38.2427 14.9698 38.3282 15.2217C38.4137 15.4736 38.5543 15.7061 38.7411 15.9043C40.4098 17.4649 44.1936 19.8837 45.9749 21.4559C47.3475 19.6321 49.2455 18.2102 51.4483 17.3556C53.9514 16.4271 57.489 17.5547 59.5249 18.0111C59.2412 15.8927 60.8306 11.1721 61.8485 8.74937L61.8652 8.7688ZM43.4593 56.0178C45.2073 56.1388 48.9077 56.5835 50.2552 57.9294C50.3536 58.0143 50.4694 58.0796 50.5956 58.1212C50.7219 58.1628 50.8559 58.1798 50.9894 58.1714C51.9406 58.0543 52.8862 57.9009 53.8262 57.711C54.5646 57.555 55.9121 57.0087 55.6785 56.2948C55.264 54.9474 55.3388 53.5096 55.8912 52.2062C56.1435 51.4991 56.3251 50.7716 56.4336 50.0332C56.8216 47.6924 57.0593 45.3516 58.3234 43.2175C58.7906 42.4373 57.6351 39.562 56.6964 39.3475C55.119 39.0654 53.5109 38.9632 51.9072 39.0431C49.3207 39.2148 46.8051 41.0953 46.5798 43.4595C46.3963 45.3789 46.7175 47.4935 45.1281 48.9448C44.1275 50.0072 43.5395 51.3542 43.4593 52.768C43.4385 53.8448 43.5303 54.824 43.4593 56.0178ZM71.2267 26.1649C71.0807 26.3092 71.1433 26.2702 71.1683 26.2195C71.2288 26.096 71.2682 25.9643 71.2851 25.8294C71.4728 23.7071 71.2851 21.0775 69.9293 19.2673C69.3828 18.53 68.7821 18.2881 67.906 18.6119C67.4888 18.768 67.0716 18.9474 66.6544 19.0879C65.2235 19.5717 63.8009 20.0827 62.3492 20.5118C59.7919 21.2726 56.8508 20.2738 54.4478 19.4194C53.3715 19.0293 52.2701 20.0515 51.3398 20.6406C49.329 21.9202 48.0024 23.6173 47.5852 25.8957C47.5477 26.1142 48.1526 26.6018 48.3028 26.7579C49.16 27.7359 50.0868 28.6588 51.077 29.52C52.0157 30.273 53.1421 30.827 54.3185 31.5487C54.9359 25.3066 59.9838 23.0985 65.1234 24.0699C67.1926 24.4678 69.1283 25.4197 71.2267 26.1531V26.1649ZM61.252 39.3475C64.4684 37.3383 68.8405 38.2004 72.4908 39.0977C72.3865 38.6686 72.1487 37.7752 72.0736 37.4709C71.573 35.7543 70.822 34.0611 70.626 32.3134C70.4299 30.5656 68.3982 28.4121 66.984 27.7683C66.6419 27.6162 66.2998 27.4601 65.9411 27.3353C64.1597 26.7149 61.5065 26.3326 59.7376 27.1753C58.582 27.7254 56.6881 31.0767 57.1261 31.9701C57.9187 33.6086 57.9605 35.3135 57.8603 37.0418C57.7936 38.0718 60.4343 38.4892 61.252 39.3357V39.3475Z" fill="#758963"/>
</svg>
