<svg width="120" height="124" viewBox="0 0 120 124" fill="none" xmlns="http://www.w3.org/2000/svg">
<g clip-path="url(#clip0_2_506)">
<path d="M70.994 82.846C69.0022 75.1011 71.249 68.3354 74.0135 61.7626C76.7779 55.1898 80.0675 48.8136 82.9557 42.2779C84.081 39.726 84.8312 36.9924 85.5814 34.2957C85.7989 33.5205 85.4689 32.5894 85.3901 31.7289C84.5086 32.0775 83.3796 32.1926 82.7982 32.8157C81.3754 34.318 80.118 35.9655 79.0472 37.7305C75.7577 43.2944 72.6144 48.9176 69.3998 54.5111C68.8746 55.4275 68.2998 56.3153 67.6782 57.1706C66.8605 58.2834 65.6151 58.7136 64.6099 58.2834C63.7284 57.9125 63.3983 57.0148 63.8822 55.5014C65.135 51.5622 66.4141 47.6304 67.8094 43.7394C70.0075 37.6007 72.2806 31.4989 73.4996 25.0634C73.7647 23.456 73.8164 21.8213 73.6534 20.2006C73.5446 18.7874 72.4381 18.1865 71.2115 18.869C70.2829 19.3603 69.521 20.1111 69.021 21.0278C67.6219 24.0285 66.3053 27.0812 65.2025 30.197C62.7419 37.1444 60.4389 44.1474 58.0458 51.1171C57.7659 51.8467 57.4168 52.5485 57.003 53.2129C56.174 54.6483 54.97 55.2974 53.2521 55.0044C52.2843 54.8412 51.6054 54.4109 51.3766 53.4836C51.099 52.3523 50.7314 51.195 50.7389 50.0526C50.7727 42.8344 50.8852 35.6125 51.0015 28.3943C51.0353 26.254 51.2003 24.1175 51.2003 21.9773C51.1468 21.2395 50.9719 20.5155 50.6827 19.8334C50.21 18.4832 49.4711 18.3496 48.4321 19.3845C47.2054 20.6259 46.4331 22.2369 46.2378 23.9617C45.9152 26.7474 45.7052 29.5516 45.5326 32.3521C45.09 39.4405 44.7074 46.5325 42.4869 53.3649C42.3342 53.9285 42.1125 54.4716 41.8267 54.9821C41.039 56.2358 39.895 56.247 38.7734 55.2714C36.4666 53.2647 35.8552 50.4272 34.85 47.7825C32.8807 42.6081 32.003 37.1741 31.0353 31.7623C30.8386 30.6887 30.541 29.6357 30.1463 28.6169C29.5124 26.9551 27.7307 26.6769 26.8267 28.2125C26.1665 29.3253 25.6302 30.7793 25.7014 32.0442C25.9124 35.232 26.3018 38.4058 26.868 41.5509C27.7007 46.4694 28.5334 51.399 29.6849 56.2507C30.2213 58.5096 29.6849 60.4755 29.1673 62.5304C27.5319 68.9215 27.3481 75.4201 27.7119 81.9446C28.0683 88.332 28.4283 94.7192 28.9985 101.088C29.156 102.802 28.5934 104.211 28.1395 105.702C27.0855 109.174 25.9415 112.616 24.8425 116.088C24.5049 117.149 23.8485 117.65 22.967 117.453C22.0855 117.257 21.6054 116.407 21.913 115.306C22.9332 111.704 24.006 108.117 25.0563 104.523C25.4989 103.002 25.9377 101.555 25.7239 99.8566C24.5386 90.5167 23.8485 81.1249 24.4561 71.7182C24.7112 67.7011 25.8027 63.7396 26.4179 59.7411C26.611 58.5282 26.611 57.293 26.4179 56.0801C25.1163 48.6319 23.6872 41.2097 22.3893 33.7615C22.0032 31.5445 22.3698 29.2634 23.4321 27.2741C24.9775 24.3067 28.0157 23.1939 30.8515 24.6034C31.484 24.9681 31.997 25.505 32.3293 26.1502C34.141 29.5144 34.5349 33.2868 35.2926 36.9367C36.2768 41.834 37.8234 46.6041 39.9025 51.1542C40.2588 49.4406 40.7727 47.7417 40.9415 46.0132C41.4816 40.4233 41.8642 34.8187 42.3781 29.2288C42.5704 26.7461 42.901 24.2757 43.3683 21.8289C43.7829 19.8569 44.8523 18.0786 46.4066 16.7769C47.8132 15.5825 49.4899 14.837 51.3053 15.6975C53.207 16.6026 54.1223 18.3497 54.126 20.3675C54.126 30.1191 54.0548 39.8669 54.0172 49.6148C54.0398 50.2081 54.0924 50.7998 54.1748 51.3879L54.5499 51.4398C55.3938 49.1883 56.3203 46.9665 57.0705 44.6853C59.021 38.7505 60.8214 32.7749 62.8357 26.881C63.7962 24.2848 64.9109 21.7468 66.174 19.2806C66.8622 17.8064 68.059 16.6228 69.5499 15.9423C73.0758 14.3288 76.4066 16.113 77.0518 19.9001C77.4831 22.4966 77.1155 25.0633 76.3953 27.5337C74.895 32.7266 73.1958 37.8899 71.5791 43.0606C71.4016 43.5379 71.2917 44.0372 71.2528 44.5443C72.5581 42.2668 73.8147 39.9597 75.1875 37.7231C76.3916 35.7572 77.6669 33.8284 79.0322 31.97C80.2134 30.2839 81.9613 29.0667 83.9647 28.5353C86.4403 27.8936 88.3946 29.0063 88.9535 31.5027C89.4448 33.6837 88.8147 35.7609 88.222 37.8084C86.7854 42.8307 84.2498 47.3893 82.0142 52.0741C79.1223 58.1387 76.159 64.1811 74.4899 70.7242C73.7397 73.61 73.2821 76.5329 73.7022 79.5225C73.7772 80.0455 73.9497 80.5536 74.1185 81.2547C76.264 80.1976 78.2258 79.1256 80.2701 78.2465C84.3061 76.5069 88.3721 74.8155 92.4756 73.2316C93.5282 72.8976 94.6383 72.7776 95.7389 72.8792C96.5615 72.9061 97.3643 73.1356 98.0746 73.5468C98.7849 73.958 99.3802 74.5378 99.8067 75.234C100.233 75.9301 100.477 76.7205 100.517 77.5334C100.557 78.3464 100.39 79.1562 100.034 79.8897C99.3075 81.3148 98.3118 82.589 97.1005 83.6434C94.7899 85.6427 92.2243 87.3527 89.8499 89.2778C86.6354 91.8558 83.2746 94.3001 80.3413 97.1637C74.4373 102.928 67.4906 106.923 59.8537 109.883C58.6797 110.339 57.5356 110.918 56.3241 111.222C55.1125 111.526 54.5124 112.279 54.2536 113.447C53.6572 116.11 53.0195 118.763 52.4006 121.418C52.3031 121.838 52.2543 122.268 52.1268 122.676C51.7929 123.74 51.024 124.241 50.0863 123.967C49.0773 123.674 48.7359 122.898 48.961 121.956C49.5011 119.519 50.0488 117.082 50.6939 114.675C51.069 113.247 51.7142 111.889 52.1418 110.472C52.4756 109.36 53.2258 108.851 54.2573 108.488C60.0675 106.444 65.7577 104.133 70.8477 100.632C72.8127 99.3299 74.6646 97.8684 76.3841 96.2623C80.8997 91.9529 85.7523 88.0027 90.8965 84.4484C92.6787 83.1595 94.3624 81.7424 95.934 80.2087C97.2468 78.9586 97.5169 77.7494 96.8867 76.8703C96.0127 75.6797 94.6812 75.943 93.6309 76.3325C89.9475 77.6975 86.3091 79.1812 82.6932 80.7132C79.2573 82.1709 75.889 83.7918 72.4456 85.2458C71.3106 85.6923 70.1215 85.9904 68.9085 86.1324C68.1693 86.2137 67.4216 86.1011 66.7404 85.8059C66.5517 85.7368 66.3807 85.6276 66.2392 85.4861C66.0978 85.3445 65.9895 85.1741 65.9219 84.9867C65.8543 84.7992 65.8291 84.5994 65.8481 84.4013C65.867 84.2032 65.9296 84.0116 66.0315 83.84C66.2212 83.5977 66.4572 83.3946 66.7263 83.2425C66.9953 83.0904 67.292 82.9923 67.5994 82.9536C68.7278 82.8519 69.8613 82.8159 70.994 82.846Z" fill="#758963"/>
<path d="M41.868 98.5954C40.3488 98.5732 39.7112 97.4827 40.2513 96.3699C41.7704 93.2059 43.2821 90.0345 44.9325 86.9336C48.132 80.9209 52.997 76.4179 58.5521 72.5714C58.7138 72.4597 58.8816 72.3569 59.0548 72.2635C60.1313 71.67 61.0653 71.7665 61.5941 72.5194C62.123 73.2724 61.9017 74.1552 60.904 74.9342C59.2048 76.2621 57.4831 77.5678 55.784 78.8994C51.2528 82.4492 48.3984 87.2563 45.6939 92.1673C44.7899 93.8068 44.0323 95.5279 43.117 97.16C42.7602 97.6862 42.3409 98.1681 41.868 98.5954Z" fill="#758963"/>
<path d="M9.60614 34.4292C10.03 30.312 11.2265 26.4803 12.7382 22.7525C13.4692 20.9878 14.3175 19.2728 15.2776 17.6189C15.7876 16.8344 16.4295 16.142 17.1755 15.5714C17.3157 15.4295 17.4846 15.3185 17.6711 15.2456C17.8576 15.1726 18.0576 15.1395 18.258 15.1482C18.4584 15.157 18.6547 15.2075 18.834 15.2964C19.0133 15.3853 19.1716 15.5106 19.2986 15.6641C19.895 16.3132 19.8087 17.0478 19.2761 17.6895C16.9505 20.4936 15.7389 23.843 14.5836 27.1962C13.8334 29.3624 13.3308 31.6139 12.7944 33.8468C12.6968 34.4961 12.6968 35.1561 12.7944 35.8053C12.8545 36.677 12.6406 37.4114 11.7217 37.66C10.7277 37.9122 10.12 37.3447 9.89122 36.447C9.7528 35.7811 9.65758 35.1072 9.60614 34.4292Z" fill="#758963"/>
<path d="M8.42087 77.8682C8.84097 76.3845 9.17105 75.0454 9.62492 73.7249C9.7637 73.3206 10.15 72.8013 10.5139 72.716C11.0878 72.5825 11.898 72.5714 12.3031 72.8903C12.6369 73.15 12.6594 74.0032 12.5769 74.5299C12.4058 75.243 12.1736 75.9403 11.883 76.6144C11.5529 77.6122 11.8117 78.4209 12.4081 79.3259C13.0045 80.231 13.3046 81.3808 13.5709 82.4602C14.1523 84.8415 14.6362 87.2452 15.1501 89.6413C15.2187 89.9461 15.2577 90.2566 15.2663 90.5687C15.2926 91.3847 15.0075 92.0523 14.141 92.2823C13.9528 92.3494 13.7524 92.3768 13.5528 92.3627C13.3531 92.3486 13.1587 92.2933 12.982 92.2003C12.8053 92.1074 12.6503 91.9789 12.5269 91.8231C12.4035 91.6672 12.3145 91.4876 12.2656 91.2957C11.808 89.8528 11.4666 88.3727 11.1403 86.8927C10.8515 85.6019 10.7164 84.274 10.3901 82.998C10.099 82.1249 9.75706 81.2691 9.3661 80.435C9.05102 79.5819 8.7472 78.7176 8.42087 77.8682Z" fill="#758963"/>
<path d="M109.321 75.7242C108.515 75.5127 107.566 75.5313 107.209 75.0862C106.853 74.6411 107.01 73.7137 107.209 73.0683C107.472 72.1521 108.215 71.7701 109.227 71.8369C111.77 72.0038 112.663 72.9793 112.558 75.472C112.419 78.8548 112.314 82.2339 112.183 85.6167C112.183 85.8504 112.183 86.0878 112.149 86.3178C112.018 87.297 111.613 88.0536 110.488 88.0982C109.58 88.1315 108.893 87.4379 108.92 86.2732C108.995 82.8162 109.171 79.3555 109.295 75.8873C109.321 75.7501 109.321 75.6055 109.321 75.7242Z" fill="#758963"/>
<path d="M0.738922 27.619C1.08776 26.5953 1.51162 25.1412 2.07801 23.7391C3.35708 20.5788 4.96623 17.6003 7.40809 15.1448C7.89547 14.5852 8.49603 14.1328 9.17103 13.8169C9.65115 13.6351 10.5589 13.7353 10.8402 14.0691C11.1665 14.4586 11.2153 15.3043 11.024 15.831C10.8177 16.4134 10.2288 16.8733 9.77868 17.3592C7.19054 20.1634 5.41635 23.435 4.09977 26.9699C3.9458 27.3694 3.85349 27.7895 3.82595 28.2162C3.78094 29.2028 3.40584 29.9002 2.32557 29.9373C1.46286 29.967 0.761428 29.0953 0.738922 27.619Z" fill="#758963"/>
<path d="M0 84.5597C0.31883 83.3097 0.592655 81.8927 1.05027 80.5351C1.39911 79.4854 2.36309 79.0514 3.19955 79.4224C4.2123 79.8934 4.14854 80.6983 3.83721 81.6071C3.22581 83.4098 3.08703 85.116 3.90098 87.0263C4.67743 88.8142 4.80121 90.8728 5.22506 92.8128C5.3826 93.5361 5.56265 94.2519 5.73894 94.9715C5.96775 95.9173 5.78019 96.7371 4.80495 97.1006C3.82971 97.4641 3.0195 96.9189 2.71943 96.0584C2.25056 94.7045 2.00676 93.2764 1.66917 91.878C1.25657 90.1866 0.836464 88.4951 0.438865 86.7963C0.277574 86.1323 0.168792 85.4425 0 84.5597Z" fill="#758963"/>
<path d="M102.806 33.958C102.854 35.2785 102.734 36.1428 101.635 36.3468C100.536 36.5508 99.9137 35.8572 99.7112 34.8928C99.2086 32.4595 98.8485 29.9929 98.2971 27.5707C97.9482 26.0537 97.7982 24.4512 96.5829 23.1901C96.2753 22.8711 96.4029 21.7064 96.7554 21.3355C97.108 20.9645 98.1245 20.8385 98.5897 21.087C99.2473 21.4996 99.7545 22.1091 100.038 22.8266C101.568 26.5247 102.318 30.4194 102.806 33.958Z" fill="#758963"/>
<path d="M107.611 30.2823C107.472 27.1443 106.722 24.2288 104.61 21.7288C104.276 21.3282 104.126 20.3193 104.392 19.9966C104.734 19.5849 105.589 19.4291 106.208 19.4625C106.62 19.4885 107.104 19.9595 107.386 20.3527C109.497 23.2719 110.821 26.4804 110.84 30.1192C110.838 30.7817 110.726 31.4394 110.51 32.0665C110.236 32.8677 109.662 33.4352 108.717 33.2312C107.858 33.0457 107.528 32.3892 107.528 31.5694C107.543 31.1392 107.588 30.7089 107.611 30.2823Z" fill="#758963"/>
<path d="M116.695 76.1916C117.219 76.1807 117.728 76.3656 118.12 76.7093C118.513 77.0531 118.759 77.5305 118.811 78.0462C118.98 79.0403 118.98 80.0603 119.145 81.0581C119.315 82.1271 119.555 83.1841 119.865 84.2221C120.113 85.0307 120.06 85.7058 119.34 86.1806C118.545 86.7073 117.656 86.4884 117.269 85.7762C116.754 84.7099 116.36 83.5903 116.095 82.4379C115.952 81.8305 115.897 81.2061 115.93 80.5833C115.93 79.8415 115.836 79.2962 115.038 78.9104C114.685 78.7361 114.396 77.9757 114.467 77.5455C114.539 77.1152 115.045 76.6886 115.465 76.4327C115.803 76.2027 116.302 76.251 116.695 76.1916Z" fill="#758963"/>
<path d="M73.1508 117.906C72.7757 117.498 72.0555 117.06 71.8342 116.455C71.5379 115.636 72.1755 115.076 72.9895 114.864C75.3154 114.239 77.4441 113.044 79.1785 111.389C79.9287 110.713 80.7314 110.394 81.6016 111.095C82.3181 111.674 82.2655 112.705 81.3953 113.581C79.2085 115.769 76.5004 117.041 73.1508 117.906Z" fill="#758963"/>
<path d="M87.2655 115.187C86.9542 115.929 86.8567 116.578 86.4778 116.964C85.1806 118.361 83.7896 119.671 82.3143 120.884C81.3316 121.659 79.9662 121.185 79.8574 120.176C79.8355 119.619 80.0302 119.075 80.4013 118.655C81.6579 117.283 82.967 115.951 84.3511 114.708C84.8495 114.279 85.4906 114.047 86.1515 114.055C86.5491 114.081 86.898 114.786 87.2655 115.187Z" fill="#758963"/>
<path d="M56.4329 0C56.9342 0.113076 57.4248 0.268189 57.8995 0.463655C58.6497 0.816034 59.0473 1.45408 58.7547 2.28866C58.7025 2.46966 58.6134 2.63822 58.493 2.78402C58.3727 2.92981 58.2234 3.04975 58.0546 3.13656C57.8857 3.22336 57.7006 3.27513 57.5108 3.28878C57.321 3.30244 57.1303 3.2777 56.9505 3.21598C55.7202 2.90069 54.6999 3.27903 53.7322 3.95782C52.982 4.48083 52.2318 4.52535 51.6429 3.7835C51.054 3.04165 51.2341 2.26635 51.8792 1.67287C53.057 0.552681 54.5837 0.152079 56.4329 0Z" fill="#758963"/>
<path d="M101.519 56.3471C101.35 56.77 101.144 57.6936 100.645 58.3686C100.421 58.5752 100.15 58.7243 99.8543 58.8032C99.5588 58.8821 99.2482 58.8883 98.9497 58.8212C98.5746 58.6802 98.2708 57.8679 98.1995 57.3375C98.1283 56.807 98.4358 56.2247 98.5109 55.6349C98.6759 54.4145 99.2123 53.8211 100.135 53.9138C101.058 54.0066 101.568 54.767 101.519 56.3471Z" fill="#758963"/>
<path d="M13.2971 53.1349C14.126 53.2202 14.5649 53.7692 14.5461 54.6854C14.5161 56.2099 13.7659 57.3598 12.817 57.3857C11.943 57.408 11.4029 56.7255 11.4141 55.6053C11.4216 54.0956 12.1155 53.1237 13.2971 53.1349Z" fill="#758963"/>
</g>
<defs>
<clipPath id="clip0_2_506">
<rect width="120" height="124" fill="white"/>
</clipPath>
</defs>
</svg>
