<svg width="121" height="122" viewBox="0 0 121 122" fill="none" xmlns="http://www.w3.org/2000/svg">
<path d="M120.391 22.7798C119.047 19.1208 116.407 16.952 112.288 16.4597C108.375 15.994 105.316 17.2014 103.264 20.4913C101.831 22.871 100.269 25.1803 98.5829 27.4102C97.4922 28.7831 96.1708 29.9817 94.6702 30.9594C93.4572 31.7478 93.2474 31.7145 94.069 32.8721C95.1931 34.4755 96.4914 36.0122 97.3451 37.7387C99.6131 42.2508 100.978 47.1133 101.372 52.0854C101.848 58.4056 100.418 64.4663 97.8146 70.2709C95.8013 74.7715 92.945 78.8297 89.6014 82.5785C89.637 82.6916 89.6725 82.8047 89.7116 82.9112C90.2363 82.9415 90.7631 82.9124 91.2803 82.8247C92.3936 82.5315 93.4769 82.1464 94.5172 81.6738C105.448 76.3249 111.858 67.7894 114.316 56.6226C115.073 53.1765 115.027 49.5673 115.813 46.1278C116.845 41.6738 118.353 37.3162 119.669 32.9187C120.661 29.5923 121.679 26.2759 120.391 22.7798Z" fill="#758963"/>
<path d="M107.184 81.5775C106.693 81.2914 105.811 81.3812 105.174 81.5542C103.993 81.8869 102.901 82.4956 101.713 82.7883C97.0143 83.9426 93.9801 87.5384 93.9339 92.1022C93.9837 92.7409 93.9836 93.3895 94.0939 94.0216C94.5172 96.4864 96.7617 97.654 99.1841 96.5829C100.494 95.9833 101.74 95.2682 102.905 94.4473C104.299 93.4812 105.264 92.0684 105.615 90.4789C106.209 88.0673 106.921 85.6823 107.483 83.2673C107.611 82.7218 107.536 81.7837 107.184 81.5775Z" fill="#758963"/>
<path d="M85.3187 9.35126H85.436C85.436 10.1562 85.4004 10.9612 85.436 11.7629C85.6459 15.9974 88.0718 18.7483 92.2727 19.55C93.5141 19.7862 94.3607 19.3039 94.6452 18.1296C94.9085 17.0319 95.1349 15.9231 95.3246 14.8032C95.6803 12.7641 95.1468 10.8781 93.4963 9.53088C91.6598 8.08971 89.7294 6.75659 87.7161 5.5392C86.6952 4.89388 85.3009 5.71218 85.3116 6.82652C85.3222 7.67143 85.3187 8.50968 85.3187 9.35126Z" fill="#758963"/>
<path d="M68.035 81.9367C67.4659 81.8635 66.8932 81.461 66.4236 81.0951C65.6197 80.4698 64.7341 80.1937 64.0618 81.002C63.6599 81.4843 63.5496 82.3325 63.6385 82.9978C63.8484 84.5812 64.261 86.1413 64.574 87.7147C64.8582 89.0647 65.6101 90.2897 66.7134 91.2C67.8168 92.1103 69.21 92.6554 70.6779 92.7508C73.5697 92.9039 74.8965 91.876 74.8609 89.5142C74.9428 85.1933 73.3243 82.602 68.035 81.9367Z" fill="#758963"/>
<path d="M90.8535 78.5139C92.8753 75.4874 94.7286 72.3653 96.406 69.1601C99.6073 63.279 100.376 57.0387 99.458 50.5322C98.8241 46.3558 97.3491 42.3295 95.1112 38.667C93.8434 36.5508 92.4032 34.5291 90.8037 32.6196C87.4992 28.6512 84.184 24.726 82.0925 20.0092C80.4934 16.2872 78.6888 12.6455 76.6858 9.09857C73.986 4.44161 69.9274 1.25159 64.1685 0.263649C59.3808 -0.557972 55.8202 0.426642 53.4974 4.84078C52.0746 7.54182 52.1493 10.9214 52.7042 14.2379C42.1327 14.2379 32.02 17.215 24.6035 22.6071C12.9542 31.0927 7.61863 43.1044 8.74977 58.3127C9.46118 67.8462 5.65514 71.6848 2.87708 74.4857C0.952722 76.4283 -0.864959 78.2611 0.444033 81.052C1.09853 82.4424 2.65294 83.1842 4.15757 83.8994C5.58039 84.5646 7.03522 85.2732 7.71461 86.4441C7.99918 86.9297 8.1486 88.5829 8.28021 90.0432C8.77109 95.4885 9.68174 105.627 20.6054 104.799C33.7665 103.801 35.0647 105.717 36.0998 108.921C36.3809 109.792 36.3844 110.96 36.3844 112.197C36.3844 114.685 36.3844 117.519 38.6183 119.515C40.3185 121.049 43.0361 121.8 46.9062 121.8C47.2334 121.8 47.5677 121.8 47.9092 121.784L73.7192 120.985H73.8401C77.3972 120.543 84.1093 117.805 84.1306 110.63C84.1306 108.851 83.9742 106.915 83.8034 104.866C83.2521 98.2295 82.5833 90.1098 87.2253 81.7838C88.7441 81.0786 89.9785 79.7813 90.8535 78.5139ZM65.7122 21.3597C67.601 24.5497 69.465 27.753 71.3787 30.9297C75.0816 37.0836 78.1122 43.5168 79.7342 50.4125C80.7088 54.5505 81.0787 58.8216 81.5731 63.0528C81.8506 65.4312 81.8292 67.8395 81.9288 70.2378H81.7083C80.8901 66.2295 80.129 62.2112 79.2433 58.2162C77.5014 50.6032 74.9514 43.1718 71.6312 36.0324C69.593 31.5717 67.7931 27.0146 65.8972 22.4973C65.7369 22.138 65.6734 21.7473 65.7122 21.3597ZM81.3313 105.032C81.4985 107.028 81.6549 108.924 81.6514 110.614C81.6514 117.313 74.3417 118.547 73.5769 118.657L47.8381 119.455C44.1886 119.568 41.6737 119.023 40.3683 117.835C38.8992 116.505 38.8957 114.412 38.8922 112.18C38.8922 110.767 38.8921 109.433 38.5009 108.235C37.078 103.874 34.179 102.191 26.6594 102.191C24.8596 102.191 22.793 102.288 20.424 102.467C12.6234 103.059 11.4104 96.8291 10.7773 89.827C10.5887 87.7314 10.4536 86.2179 9.91293 85.2998C8.84581 83.5002 6.96058 82.6021 5.28877 81.8071C4.12206 81.2482 3.01939 80.7227 2.72415 80.0973C2.12301 78.8133 2.72409 78.0549 4.70537 76.0491C7.61503 73.1118 12.0151 68.6711 11.2326 58.1331C10.1655 43.743 15.1773 32.4033 26.133 24.4266C33.2151 19.2674 42.9614 16.4433 53.1488 16.5464C53.7144 19.1144 54.4257 21.536 54.7672 23.4487C55.8326 29.5658 55.8146 35.8052 54.7139 41.9169C53.7533 47.622 54.1825 53.4563 55.9695 58.9846C57.5987 64.1871 63.6136 74.0432 73.6409 78.8432C75.9174 79.931 80.9008 81.7339 84.2871 82.0832C80.1254 90.4723 80.7871 98.4524 81.3313 105.032Z" fill="#758963"/>
</svg>
