<svg width="106" height="106" viewBox="0 0 106 106" fill="none" xmlns="http://www.w3.org/2000/svg">
<g clip-path="url(#clip0_2_366)">
<path d="M72.7842 68.7208C71.3394 65.7963 69.8442 62.7749 68.3373 59.8116C68.1204 59.3855 67.5007 58.8239 66.9739 58.8743C66.6876 58.9276 66.417 59.0448 66.1823 59.2172C65.9475 59.3895 65.7547 59.6126 65.6181 59.8698C64.6265 61.8066 63.6813 63.7433 62.7362 65.6491C62.3759 66.3812 62.0157 67.1172 61.6516 67.8493C61.2875 68.5814 60.9815 69.1973 60.6251 69.9023L60.3965 70.3555C60.3501 70.2897 60.3075 70.2276 60.2687 70.1656L58.8897 67.9888C57.6618 66.052 56.3952 64.0455 55.113 62.0816C54.8109 61.6167 54.1601 60.9544 53.5636 61.0163C52.9671 61.0783 52.4015 61.6787 52.0955 62.2365C50.9644 64.3824 49.8488 66.5826 48.7604 68.7324C48.3265 69.5898 47.8914 70.4459 47.455 71.3007C47.4487 71.3144 47.4409 71.3273 47.4317 71.3393L47.118 70.8242L41.2379 61.1093C40.8041 60.3888 40.3121 60.0247 39.7776 60.0247C39.243 60.0247 38.7705 60.381 38.3521 61.0783C37.5361 62.4418 36.7226 63.8079 35.9118 65.1765L35.7685 65.4205C35.097 66.5516 34.4256 67.6802 33.7542 68.8061L33.5489 69.1508C33.1385 69.8764 32.6805 70.5738 32.1777 71.2386C32.1273 71.3006 32.0731 71.3665 32.0188 71.4246C31.7206 71.7693 31.2751 72.2845 31.6625 72.974C31.8871 73.3613 32.4372 73.9579 32.995 73.9308C33.2883 73.886 33.5693 73.7814 33.8205 73.6235C34.0717 73.4656 34.2878 73.2577 34.4553 73.0128C34.9744 72.238 35.4469 71.4285 35.904 70.6383C36.0938 70.3091 36.2914 69.9798 36.4773 69.6544L39.7853 64.0997L41.2728 66.5594C42.8609 69.1818 44.5033 71.8933 46.1612 74.5661C46.3216 74.824 46.5371 75.0432 46.7923 75.208C47.0475 75.3727 47.3359 75.4789 47.637 75.5189C48.1948 75.5189 48.7526 74.8604 48.9734 74.4498C49.7249 73.036 50.457 71.5873 51.1659 70.1889L51.193 70.1347L52.0645 68.411C52.4519 67.6363 52.8392 66.8964 53.2266 66.1217L53.7456 65.1068L53.7689 65.1417L55.4771 67.8531C56.6134 69.6608 57.7522 71.4595 58.8936 73.2491L59.0408 73.4931C59.2887 73.9269 59.6683 74.5816 60.5437 74.5816C61.4811 74.5622 61.7949 73.8533 62.0351 73.311C62.0738 73.2258 62.1125 73.1406 62.1552 73.0593C62.6548 72.0676 63.1545 71.0411 63.5961 70.1347L63.6271 70.0727C63.9215 69.4684 64.2172 68.8655 64.5141 68.2638C65.1339 67.0126 65.7576 65.7692 66.4122 64.456L66.9622 63.3599C67.1249 63.6659 67.2683 63.9409 67.4077 64.2237L69.1624 67.7718L69.3406 68.1359C70.0882 69.6466 70.8319 71.1535 71.5834 72.6642C71.6829 72.9061 71.8314 73.1248 72.0193 73.3068C72.2073 73.4887 72.4307 73.63 72.6757 73.7216C72.8398 73.7701 73.0122 73.7834 73.1817 73.7607C73.3513 73.738 73.5141 73.6798 73.6596 73.5899C74.8217 72.9082 74.2678 71.8197 74.0896 71.4595L72.7842 68.7208Z" fill="#758963"/>
<path d="M32.2048 38.9603L42.276 44.7706C42.0553 44.9449 41.8538 45.0999 41.6485 45.2548L33.4288 51.3982C32.6541 51.9793 32.4875 52.7037 32.9717 53.3893C33.0718 53.5469 33.2032 53.6822 33.3578 53.7869C33.5124 53.8915 33.6869 53.9631 33.8704 53.9974C33.9336 54.0012 33.997 54.0012 34.0602 53.9974C34.4304 53.9818 34.7854 53.8458 35.0712 53.61L38.0887 51.3634C40.4129 49.6319 42.8222 47.8385 45.2006 46.0334C45.9017 45.5027 46.2116 45.0301 46.1845 44.542C46.1573 44.054 45.7971 43.6085 45.0224 43.1553C41.2457 40.9318 37.4108 38.693 33.7 36.5277L33.607 36.4734C33.4062 36.347 33.1821 36.2621 32.9479 36.2235C32.7138 36.1849 32.4743 36.1935 32.2435 36.2488C32.072 36.2953 31.9116 36.3759 31.7718 36.4857C31.6321 36.5955 31.5159 36.7322 31.4301 36.8879C31.0195 37.6239 31.3332 38.4567 32.2048 38.9603Z" fill="#758963"/>
<path d="M60.7956 46.0373C63.1623 47.8308 65.5794 49.632 67.919 51.3751L70.9249 53.6139C71.2125 53.8493 71.5685 53.9852 71.9398 54.0013C72.0016 54.0071 72.0639 54.0071 72.1257 54.0013C72.3096 53.968 72.4844 53.8967 72.6391 53.792C72.7939 53.6873 72.9251 53.5515 73.0244 53.3932C73.5086 52.7076 73.3459 51.9832 72.5712 51.4022L64.3476 45.2587L63.724 44.7745L66.2728 43.3065L73.7952 38.9758C74.6707 38.4723 74.9844 37.6394 74.5699 36.9073C74.4834 36.7515 74.3664 36.6147 74.226 36.5049C74.0857 36.3951 73.9247 36.3147 73.7526 36.2682C73.5225 36.2131 73.2836 36.2045 73.0501 36.2431C72.8166 36.2817 72.5932 36.3666 72.393 36.4928L72.1916 36.609C68.5233 38.7511 64.7272 40.9629 60.9582 43.1747C60.1835 43.6279 59.8194 44.0695 59.7962 44.5615C59.7729 45.0534 60.0983 45.5067 60.7956 46.0373Z" fill="#758963"/>
<path d="M53.0019 106C23.7759 106 0 82.2241 0 52.9981C0 23.7721 23.7759 0.00390625 53.0019 0.00390625C82.228 0.00390625 106 23.7799 106 53.002C106 82.2241 82.2241 106 53.0019 106ZM53.0019 2.71152C25.2711 2.71152 2.71149 25.2712 2.71149 52.9981C2.72892 66.3306 8.03295 79.112 17.4605 88.5396C26.888 97.9671 39.6694 103.271 53.0019 103.289C80.7289 103.289 103.289 80.7289 103.289 52.9981C103.289 25.2673 80.7289 2.7154 53.0019 2.7154V2.71152Z" fill="#758963"/>
</g>
<defs>
<clipPath id="clip0_2_366">
<rect width="106" height="106" fill="white"/>
</clipPath>
</defs>
</svg>
